{
.appVersion = "3091";
DisplayStrings = (

glyphs = (
{
glyphname = "A-vit";
lastChange = "2021-11-03 06:54:48 +0000";
layers = (
{
layerId = UUID0;
paths = (
{
closed = 1;
nodes = (
"575 -10 OFFCURVE",
"674 235 OFFCURVE",
"674 448 CURVE SMOOTH",
"674 648 OFFCURVE",
"601 726 OFFCURVE",
"508 726 CURVE SMOOTH",
"441 726 OFFCURVE",
"375 682 OFFCURVE",
"375 592 CURVE SMOOTH",
"375 471 OFFCURVE",
"446 413 OFFCURVE",
"538 371 CURVE SMOOTH",
"606 340 LINE",
"623 332 LINE",
"679 306 LINE SMOOTH",
"747 275 OFFCURVE",
"784 235 OFFCURVE",
"784 174 CURVE SMOOTH",
"784 106 OFFCURVE",
"730 58 OFFCURVE",
"643 60 CURVE",
"643 -10 LINE",
"743 -12 OFFCURVE",
"861 51 OFFCURVE",
"861 186 CURVE SMOOTH",
"861 317 OFFCURVE",
"779 359 OFFCURVE",
"710 391 CURVE SMOOTH",
"658 415 LINE",
"641 423 LINE",
"571 456 LINE SMOOTH",
"508 486 OFFCURVE",
"456 519 OFFCURVE",
"456 590 CURVE SMOOTH",
"456 633 OFFCURVE",
"479 652 OFFCURVE",
"508 652 CURVE SMOOTH",
"556 652 OFFCURVE",
"597 573 OFFCURVE",
"597 448 CURVE SMOOTH",
"597 231 OFFCURVE",
"507 68 OFFCURVE",
"351 68 CURVE SMOOTH",
"226 68 OFFCURVE",
"155 155 OFFCURVE",
"155 349 CURVE SMOOTH",
"155 547 OFFCURVE",
"235 658 OFFCURVE",
"360 666 CURVE",
"360 724 LINE",
"205 721 OFFCURVE",
"60 609 OFFCURVE",
"60 350 CURVE SMOOTH",
"60 95 OFFCURVE",
"161 -10 OFFCURVE",
"350 -10 CURVE SMOOTH"
);
}
);
width = 876;
},
{
layerId = "58AAA307-6DE9-4107-B80A-C255AE991657";
paths = (
{
closed = 1;
nodes = (
"639 -10 OFFCURVE",
"762 265 OFFCURVE",
"762 448 CURVE SMOOTH",
"762 648 OFFCURVE",
"663 726 OFFCURVE",
"552 726 CURVE SMOOTH",
"461 726 OFFCURVE",
"393 666 OFFCURVE",
"393 562 CURVE SMOOTH",
"393 439 OFFCURVE",
"472 371 OFFCURVE",
"574 334 CURVE SMOOTH",
"635 312 LINE",
"661 312 LINE",
"700 293 LINE SMOOTH",
"764 262 OFFCURVE",
"784 248 OFFCURVE",
"784 191 CURVE SMOOTH",
"784 135 OFFCURVE",
"749 102 OFFCURVE",
"667 102 CURVE",
"670 -10 LINE",
"812 -10 OFFCURVE",
"912 60 OFFCURVE",
"912 210 CURVE SMOOTH",
"912 346 OFFCURVE",
"838 404 OFFCURVE",
"753 432 CURVE SMOOTH",
"720 443 LINE",
"695 447 LINE",
"634 470 LINE SMOOTH",
"574 493 OFFCURVE",
"523 512 OFFCURVE",
"523 562 CURVE SMOOTH",
"523 590 OFFCURVE",
"541 600 OFFCURVE",
"559 600 CURVE SMOOTH",
"595 600 OFFCURVE",
"633 543 OFFCURVE",
"633 448 CURVE SMOOTH",
"633 298 OFFCURVE",
"548 119 OFFCURVE",
"393 119 CURVE SMOOTH",
"271 119 OFFCURVE",
"217 208 OFFCURVE",
"217 358 CURVE SMOOTH",
"217 522 OFFCURVE",
"278 594 OFFCURVE",
"362 609 CURVE",
"362 722 LINE",
"165 725 OFFCURVE",
"58 575 OFFCURVE",
"58 359 CURVE SMOOTH",
"58 137 OFFCURVE",
"163 -10 OFFCURVE",
"367 -10 CURVE SMOOTH"
);
}
);
width = 932;
},
{
layerId = "75F4F5E0-D5B2-4549-A21B-477AF2945BCD";
paths = (
{
closed = 1;
nodes = (
"596 -10 OFFCURVE",
"703 245 OFFCURVE",
"703 448 CURVE SMOOTH",
"703 648 OFFCURVE",
"621 726 OFFCURVE",
"522 726 CURVE SMOOTH",
"448 726 OFFCURVE",
"381 677 OFFCURVE",
"381 582 CURVE SMOOTH",
"381 461 OFFCURVE",
"455 399 OFFCURVE",
"550 359 CURVE SMOOTH",
"616 331 LINE",
"635 325 LINE",
"686 302 LINE SMOOTH",
"753 271 OFFCURVE",
"784 239 OFFCURVE",
"784 180 CURVE SMOOTH",
"784 116 OFFCURVE",
"736 72 OFFCURVE",
"651 74 CURVE",
"652 -10 LINE",
"766 -11 OFFCURVE",
"878 54 OFFCURVE",
"878 194 CURVE SMOOTH",
"878 327 OFFCURVE",
"798 374 OFFCURVE",
"724 404 CURVE SMOOTH",
"678 424 LINE",
"659 431 LINE",
"592 461 LINE SMOOTH",
"530 488 OFFCURVE",
"478 517 OFFCURVE",
"478 581 CURVE SMOOTH",
"478 619 OFFCURVE",
"499 635 OFFCURVE",
"525 635 CURVE SMOOTH",
"569 635 OFFCURVE",
"609 563 OFFCURVE",
"609 448 CURVE SMOOTH",
"609 253 OFFCURVE",
"520 85 OFFCURVE",
"365 85 CURVE SMOOTH",
"241 85 OFFCURVE",
"175 172 OFFCURVE",
"175 352 CURVE SMOOTH",
"175 539 OFFCURVE",
"249 637 OFFCURVE",
"361 647 CURVE",
"361 723 LINE",
"192 722 OFFCURVE",
"59 598 OFFCURVE",
"59 353 CURVE SMOOTH",
"59 109 OFFCURVE",
"162 -10 OFFCURVE",
"356 -10 CURVE SMOOTH"
);
}
);
width = 894.36066;
},
{
layerId = "3F80E263-2B21-4BD5-AA74-4B7BB1AD4533";
paths = (
{
closed = 1;
nodes = (
"617 -10 OFFCURVE",
"732 255 OFFCURVE",
"732 448 CURVE SMOOTH",
"732 648 OFFCURVE",
"641 726 OFFCURVE",
"537 726 CURVE SMOOTH",
"454 726 OFFCURVE",
"387 672 OFFCURVE",
"387 572 CURVE SMOOTH",
"387 450 OFFCURVE",
"463 385 OFFCURVE",
"562 347 CURVE SMOOTH",
"625 322 LINE",
"648 319 LINE",
"693 298 LINE SMOOTH",
"758 267 OFFCURVE",
"784 243 OFFCURVE",
"784 185 CURVE SMOOTH",
"784 125 OFFCURVE",
"742 87 OFFCURVE",
"659 88 CURVE",
"661 -10 LINE",
"788 -11 OFFCURVE",
"895 57 OFFCURVE",
"895 202 CURVE SMOOTH",
"895 336 OFFCURVE",
"818 389 OFFCURVE",
"738 418 CURVE SMOOTH",
"698 433 LINE",
"677 439 LINE",
"612 465 LINE SMOOTH",
"551 490 OFFCURVE",
"500 515 OFFCURVE",
"500 572 CURVE SMOOTH",
"500 605 OFFCURVE",
"519 618 OFFCURVE",
"542 618 CURVE SMOOTH",
"582 618 OFFCURVE",
"621 553 OFFCURVE",
"621 448 CURVE SMOOTH",
"621 275 OFFCURVE",
"534 102 OFFCURVE",
"379 102 CURVE SMOOTH",
"256 102 OFFCURVE",
"195 190 OFFCURVE",
"195 355 CURVE SMOOTH",
"195 531 OFFCURVE",
"263 616 OFFCURVE",
"361 628 CURVE",
"361 723 LINE",
"179 723 OFFCURVE",
"59 587 OFFCURVE",
"59 356 CURVE SMOOTH",
"59 123 OFFCURVE",
"162 -10 OFFCURVE",
"361 -10 CURVE SMOOTH"
);
}
);
width = 912.72131;
}
);
leftKerningGroup = "Ka-vit";
leftMetricsKey = "Ka-vit";
rightKerningGroup = "A-vit";
unicode = 10570;
script = vithkuqi;
category = Letter;
subCategory = Uppercase;
},
{
glyphname = "Bbe-vit";
lastChange = "2021-11-03 06:54:48 +0000";
layers = (
{
layerId = UUID0;
paths = (
{
closed = 1;
nodes = (
"636 -251 OFFCURVE",
"650 -250 OFFCURVE",
"676 -247 CURVE",
"676 -187 LINE",
"657 -187 LINE SMOOTH",
"585 -187 OFFCURVE",
"574 -127 OFFCURVE",
"574 -47 CURVE SMOOTH",
"574 226 LINE SMOOTH",
"574 389 OFFCURVE",
"467 450 OFFCURVE",
"316 450 CURVE SMOOTH",
"133 450 OFFCURVE",
"20 330 OFFCURVE",
"20 184 CURVE SMOOTH",
"20 91 OFFCURVE",
"65 45 OFFCURVE",
"138 45 CURVE SMOOTH",
"201 45 OFFCURVE",
"248 93 OFFCURVE",
"248 159 CURVE SMOOTH",
"248 565 LINE SMOOTH",
"248 615 OFFCURVE",
"271 647 OFFCURVE",
"336 647 CURVE SMOOTH",
"370 647 OFFCURVE",
"394 630 OFFCURVE",
"423 594 CURVE",
"480 651 LINE",
"458 681 OFFCURVE",
"421 725 OFFCURVE",
"336 725 CURVE SMOOTH",
"234 725 OFFCURVE",
"171 673 OFFCURVE",
"171 573 CURVE SMOOTH",
"171 161 LINE SMOOTH",
"171 138 OFFCURVE",
"160 123 OFFCURVE",
"138 123 CURVE SMOOTH",
"114 123 OFFCURVE",
"98 146 OFFCURVE",
"98 184 CURVE SMOOTH",
"98 307 OFFCURVE",
"172 372 OFFCURVE",
"316 372 CURVE SMOOTH",
"428 372 OFFCURVE",
"484 316 OFFCURVE",
"484 232 CURVE SMOOTH",
"484 -64 LINE SMOOTH",
"484 -187 OFFCURVE",
"523 -251 OFFCURVE",
"617 -251 CURVE SMOOTH"
);
}
);
width = 681;
},
{
layerId = "58AAA307-6DE9-4107-B80A-C255AE991657";
paths = (
{
closed = 1;
nodes = (
"681 -256 OFFCURVE",
"713 -255 OFFCURVE",
"732 -253 CURVE",
"732 -138 LINE",
"718 -138 LINE SMOOTH",
"679 -138 OFFCURVE",
"660 -107 OFFCURVE",
"660 -72 CURVE SMOOTH",
"661 209 LINE SMOOTH",
"662 359 OFFCURVE",
"579 464 OFFCURVE",
"351 464 CURVE SMOOTH",
"160 464 OFFCURVE",
"20 362 OFFCURVE",
"20 208 CURVE SMOOTH",
"20 115 OFFCURVE",
"65 35 OFFCURVE",
"186 35 CURVE SMOOTH",
"303 35 OFFCURVE",
"352 119 OFFCURVE",
"352 221 CURVE SMOOTH",
"352 518 LINE SMOOTH",
"352 578 OFFCURVE",
"377 598 OFFCURVE",
"418 598 CURVE SMOOTH",
"457 598 OFFCURVE",
"481 578 OFFCURVE",
"509 533 CURVE",
"606 620 LINE",
"565 680 OFFCURVE",
"517 725 OFFCURVE",
"418 725 CURVE SMOOTH",
"322 725 OFFCURVE",
"226 671 OFFCURVE",
"226 534 CURVE SMOOTH",
"226 225 LINE SMOOTH",
"226 177 OFFCURVE",
"211 162 OFFCURVE",
"186 162 CURVE SMOOTH",
"165 162 OFFCURVE",
"147 176 OFFCURVE",
"147 208 CURVE SMOOTH",
"147 270 OFFCURVE",
"192 337 OFFCURVE",
"351 337 CURVE SMOOTH",
"465 337 OFFCURVE",
"508 275 OFFCURVE",
"508 202 CURVE SMOOTH",
"509 -90 LINE SMOOTH",
"509 -187 OFFCURVE",
"556 -256 OFFCURVE",
"662 -256 CURVE SMOOTH"
);
}
);
width = 732;
},
{
layerId = "75F4F5E0-D5B2-4549-A21B-477AF2945BCD";
paths = (
{
closed = 1;
nodes = (
"651 -253 OFFCURVE",
"671 -252 OFFCURVE",
"694 -249 CURVE",
"694 -171 LINE",
"677 -171 LINE SMOOTH",
"616 -171 OFFCURVE",
"602 -120 OFFCURVE",
"602 -55 CURVE SMOOTH",
"603 220 LINE SMOOTH",
"603 379 OFFCURVE",
"504 455 OFFCURVE",
"327 455 CURVE SMOOTH",
"142 455 OFFCURVE",
"20 340 OFFCURVE",
"20 192 CURVE SMOOTH",
"20 99 OFFCURVE",
"65 42 OFFCURVE",
"154 42 CURVE SMOOTH",
"234 42 OFFCURVE",
"282 102 OFFCURVE",
"282 179 CURVE SMOOTH",
"282 550 LINE SMOOTH",
"282 603 OFFCURVE",
"306 631 OFFCURVE",
"363 631 CURVE SMOOTH",
"399 631 OFFCURVE",
"423 613 OFFCURVE",
"451 574 CURVE",
"521 641 LINE",
"493 681 OFFCURVE",
"452 725 OFFCURVE",
"363 725 CURVE SMOOTH",
"263 725 OFFCURVE",
"189 672 OFFCURVE",
"189 560 CURVE SMOOTH",
"189 182 LINE SMOOTH",
"189 151 OFFCURVE",
"177 136 OFFCURVE",
"154 136 CURVE SMOOTH",
"131 136 OFFCURVE",
"114 156 OFFCURVE",
"114 192 CURVE SMOOTH",
"114 295 OFFCURVE",
"179 361 OFFCURVE",
"327 361 CURVE SMOOTH",
"440 361 OFFCURVE",
"492 303 OFFCURVE",
"492 222 CURVE SMOOTH",
"492 -73 LINE SMOOTH",
"492 -187 OFFCURVE",
"534 -253 OFFCURVE",
"632 -253 CURVE SMOOTH"
);
}
);
width = 697.72131;
},
{
layerId = "3F80E263-2B21-4BD5-AA74-4B7BB1AD4533";
paths = (
{
closed = 1;
nodes = (
"666 -254 OFFCURVE",
"691 -253 OFFCURVE",
"713 -251 CURVE",
"713 -155 LINE",
"697 -155 LINE SMOOTH",
"647 -155 OFFCURVE",
"630 -114 OFFCURVE",
"630 -63 CURVE SMOOTH",
"631 215 LINE SMOOTH",
"632 369 OFFCURVE",
"541 459 OFFCURVE",
"339 459 CURVE SMOOTH",
"151 459 OFFCURVE",
"20 351 OFFCURVE",
"20 200 CURVE SMOOTH",
"20 107 OFFCURVE",
"65 39 OFFCURVE",
"170 39 CURVE SMOOTH",
"268 39 OFFCURVE",
"316 110 OFFCURVE",
"316 199 CURVE SMOOTH",
"316 534 LINE SMOOTH",
"316 591 OFFCURVE",
"341 615 OFFCURVE",
"390 615 CURVE SMOOTH",
"427 615 OFFCURVE",
"451 596 OFFCURVE",
"479 554 CURVE",
"562 631 LINE",
"528 681 OFFCURVE",
"484 725 OFFCURVE",
"390 725 CURVE SMOOTH",
"292 725 OFFCURVE",
"207 672 OFFCURVE",
"207 547 CURVE SMOOTH",
"207 203 LINE SMOOTH",
"207 164 OFFCURVE",
"194 149 OFFCURVE",
"170 149 CURVE SMOOTH",
"148 149 OFFCURVE",
"130 166 OFFCURVE",
"130 200 CURVE SMOOTH",
"130 283 OFFCURVE",
"185 349 OFFCURVE",
"339 349 CURVE SMOOTH",
"452 349 OFFCURVE",
"500 289 OFFCURVE",
"500 212 CURVE SMOOTH",
"500 -81 LINE SMOOTH",
"500 -187 OFFCURVE",
"545 -254 OFFCURVE",
"647 -254 CURVE SMOOTH"
);
}
);
width = 714.44262;
}
);
leftKerningGroup = "Bbe-vit";
rightKerningGroup = "Bbe-vit";
unicode = 10571;
script = vithkuqi;
category = Letter;
subCategory = Uppercase;
},
{
glyphname = "Be-vit";
lastChange = "2021-11-03 06:54:48 +0000";
layers = (
{
layerId = UUID0;
paths = (
{
closed = 1;
nodes = (
"284 -11 OFFCURVE",
"324 -3 OFFCURVE",
"341 5 CURVE",
"341 59 LINE",
"320 55 OFFCURVE",
"301 53 OFFCURVE",
"277 53 CURVE SMOOTH",
"212 53 OFFCURVE",
"185 80 OFFCURVE",
"185 151 CURVE SMOOTH",
"185 185 LINE SMOOTH",
"185 222 OFFCURVE",
"185 254 OFFCURVE",
"177 294 CURVE",
"184 294 LINE",
"211 252 OFFCURVE",
"245 231 OFFCURVE",
"287 231 CURVE SMOOTH",
"378 231 OFFCURVE",
"433 304 OFFCURVE",
"433 390 CURVE SMOOTH",
"433 496 OFFCURVE",
"361 551 OFFCURVE",
"274 550 CURVE SMOOTH",
"232 550 OFFCURVE",
"184 527 OFFCURVE",
"163 503 CURVE",
"183 490 LINE",
"183 537 LINE SMOOTH",
"183 609 OFFCURVE",
"211 650 OFFCURVE",
"269 650 CURVE SMOOTH",
"307 650 OFFCURVE",
"329 629 OFFCURVE",
"345 604 CURVE",
"401 657 LINE",
"375 702 OFFCURVE",
"331 725 OFFCURVE",
"269 725 CURVE SMOOTH",
"139 725 OFFCURVE",
"95 630 OFFCURVE",
"95 516 CURVE SMOOTH",
"95 145 LINE SMOOTH",
"95 34 OFFCURVE",
"145 -11 OFFCURVE",
"243 -11 CURVE SMOOTH"
);
},
{
closed = 1;
nodes = (
"224 309 OFFCURVE",
"184 342 OFFCURVE",
"184 390 CURVE SMOOTH",
"184 436 OFFCURVE",
"215 472 OFFCURVE",
"274 472 CURVE SMOOTH",
"324 472 OFFCURVE",
"356 439 OFFCURVE",
"356 390 CURVE SMOOTH",
"356 345 OFFCURVE",
"331 309 OFFCURVE",
"275 309 CURVE SMOOTH"
);
}
);
width = 476;
},
{
layerId = "58AAA307-6DE9-4107-B80A-C255AE991657";
paths = (
{
closed = 1;
nodes = (
"314 -11 OFFCURVE",
"344 -4 OFFCURVE",
"361 1 CURVE",
"361 108 LINE",
"340 107 OFFCURVE",
"331 105 OFFCURVE",
"298 105 CURVE SMOOTH",
"271 105 OFFCURVE",
"241 127 OFFCURVE",
"241 171 CURVE SMOOTH",
"241 176 LINE SMOOTH",
"241 181 OFFCURVE",
"238 209 OFFCURVE",
"233 236 CURVE",
"239 236 LINE",
"265 203 OFFCURVE",
"297 179 OFFCURVE",
"346 179 CURVE SMOOTH",
"448 179 OFFCURVE",
"522 252 OFFCURVE",
"522 374 CURVE SMOOTH",
"522 494 OFFCURVE",
"429 553 OFFCURVE",
"340 553 CURVE SMOOTH",
"281 553 OFFCURVE",
"239 537 OFFCURVE",
"197 497 CURVE",
"240 479 LINE",
"243 534 LINE SMOOTH",
"245 571 OFFCURVE",
"264 609 OFFCURVE",
"311 609 CURVE SMOOTH",
"347 609 OFFCURVE",
"378 596 OFFCURVE",
"408 573 CURVE",
"460 677 LINE",
"430 703 OFFCURVE",
"384 726 OFFCURVE",
"314 726 CURVE SMOOTH",
"174 726 OFFCURVE",
"90 632 OFFCURVE",
"90 479 CURVE SMOOTH",
"90 157 LINE SMOOTH",
"90 32 OFFCURVE",
"168 -11 OFFCURVE",
"283 -11 CURVE SMOOTH"
);
},
{
closed = 1;
nodes = (
"266 302 OFFCURVE",
"230 323 OFFCURVE",
"230 365 CURVE SMOOTH",
"230 408 OFFCURVE",
"266 429 OFFCURVE",
"313 429 CURVE SMOOTH",
"360 429 OFFCURVE",
"395 408 OFFCURVE",
"395 366 CURVE SMOOTH",
"395 323 OFFCURVE",
"361 302 OFFCURVE",
"313 302 CURVE SMOOTH"
);
}
);
width = 552;
},
{
layerId = "75F4F5E0-D5B2-4549-A21B-477AF2945BCD";
paths = (
{
closed = 1;
nodes = (
"294 -11 OFFCURVE",
"331 -3 OFFCURVE",
"348 4 CURVE",
"348 75 LINE",
"327 72 OFFCURVE",
"311 70 OFFCURVE",
"284 70 CURVE SMOOTH",
"231 70 OFFCURVE",
"203 95 OFFCURVE",
"203 158 CURVE SMOOTH",
"203 182 LINE SMOOTH",
"203 209 OFFCURVE",
"202 239 OFFCURVE",
"195 275 CURVE",
"202 275 LINE",
"229 236 OFFCURVE",
"262 214 OFFCURVE",
"306 214 CURVE SMOOTH",
"401 214 OFFCURVE",
"462 287 OFFCURVE",
"462 385 CURVE SMOOTH",
"462 495 OFFCURVE",
"383 552 OFFCURVE",
"296 551 CURVE SMOOTH",
"248 551 OFFCURVE",
"202 530 OFFCURVE",
"174 501 CURVE",
"202 486 LINE",
"203 536 LINE SMOOTH",
"203 597 OFFCURVE",
"228 637 OFFCURVE",
"283 637 CURVE SMOOTH",
"320 637 OFFCURVE",
"345 618 OFFCURVE",
"366 594 CURVE",
"420 664 LINE",
"393 702 OFFCURVE",
"348 725 OFFCURVE",
"284 725 CURVE SMOOTH",
"150 725 OFFCURVE",
"93 631 OFFCURVE",
"93 504 CURVE SMOOTH",
"93 149 LINE SMOOTH",
"93 33 OFFCURVE",
"153 -11 OFFCURVE",
"256 -11 CURVE SMOOTH"
);
},
{
closed = 1;
nodes = (
"238 307 OFFCURVE",
"199 336 OFFCURVE",
"199 382 CURVE SMOOTH",
"199 427 OFFCURVE",
"232 458 OFFCURVE",
"287 458 CURVE SMOOTH",
"336 458 OFFCURVE",
"369 429 OFFCURVE",
"369 382 CURVE SMOOTH",
"369 338 OFFCURVE",
"341 307 OFFCURVE",
"287 307 CURVE SMOOTH"
);
}
);
width = 500.91803;
},
{
layerId = "3F80E263-2B21-4BD5-AA74-4B7BB1AD4533";
paths = (
{
closed = 1;
nodes = (
"304 -11 OFFCURVE",
"337 -3 OFFCURVE",
"354 3 CURVE",
"354 91 LINE",
"333 89 OFFCURVE",
"321 87 OFFCURVE",
"291 87 CURVE SMOOTH",
"251 87 OFFCURVE",
"222 111 OFFCURVE",
"222 164 CURVE SMOOTH",
"222 179 LINE SMOOTH",
"222 195 OFFCURVE",
"220 224 OFFCURVE",
"214 256 CURVE",
"220 256 LINE",
"247 220 OFFCURVE",
"279 197 OFFCURVE",
"326 197 CURVE SMOOTH",
"424 197 OFFCURVE",
"491 270 OFFCURVE",
"491 380 CURVE SMOOTH",
"491 495 OFFCURVE",
"405 552 OFFCURVE",
"317 552 CURVE SMOOTH",
"264 552 OFFCURVE",
"220 533 OFFCURVE",
"185 499 CURVE",
"221 483 LINE",
"223 535 LINE SMOOTH",
"223 584 OFFCURVE",
"246 623 OFFCURVE",
"297 623 CURVE SMOOTH",
"333 623 OFFCURVE",
"361 607 OFFCURVE",
"386 584 CURVE",
"440 670 LINE",
"411 702 OFFCURVE",
"366 725 OFFCURVE",
"299 725 CURVE SMOOTH",
"162 725 OFFCURVE",
"92 631 OFFCURVE",
"92 492 CURVE SMOOTH",
"92 153 LINE SMOOTH",
"92 33 OFFCURVE",
"160 -11 OFFCURVE",
"269 -11 CURVE SMOOTH"
);
},
{
closed = 1;
nodes = (
"252 305 OFFCURVE",
"214 330 OFFCURVE",
"214 374 CURVE SMOOTH",
"214 418 OFFCURVE",
"249 444 OFFCURVE",
"300 444 CURVE SMOOTH",
"348 444 OFFCURVE",
"382 419 OFFCURVE",
"382 374 CURVE SMOOTH",
"382 331 OFFCURVE",
"351 305 OFFCURVE",
"300 305 CURVE SMOOTH"
);
}
);
width = 525.83607;
}
);
unicode = 10572;
script = vithkuqi;
category = Letter;
subCategory = Uppercase;
},
{
glyphname = "Ce-vit";
lastChange = "2021-11-03 06:54:48 +0000";
layers = (
{
layerId = UUID0;
paths = (
{
closed = 1;
nodes = (
"330 -250 OFFCURVE",
"348 -247 OFFCURVE",
"371 -239 CURVE",
"371 -179 LINE",
"360 -182 OFFCURVE",
"341 -184 OFFCURVE",
"328 -184 CURVE SMOOTH",
"275 -184 OFFCURVE",
"229 -160 OFFCURVE",
"229 -83 CURVE SMOOTH",
"229 -5 OFFCURVE",
"251 89 OFFCURVE",
"413 232 CURVE",
"413 308 LINE",
"279 308 LINE SMOOTH",
"256 308 OFFCURVE",
"234 308 OFFCURVE",
"186 302 CURVE",
"138 277 LINE",
"312 336 OFFCURVE",
"429 453 OFFCURVE",
"429 558 CURVE SMOOTH",
"429 665 OFFCURVE",
"364 726 OFFCURVE",
"238 726 CURVE SMOOTH",
"111 726 OFFCURVE",
"50 651 OFFCURVE",
"50 575 CURVE SMOOTH",
"50 494 OFFCURVE",
"111 446 OFFCURVE",
"178 446 CURVE SMOOTH",
"217 446 OFFCURVE",
"244 460 OFFCURVE",
"256 473 CURVE",
"234 527 LINE",
"225 522 OFFCURVE",
"211 516 OFFCURVE",
"192 516 CURVE SMOOTH",
"156 516 OFFCURVE",
"127 537 OFFCURVE",
"127 575 CURVE SMOOTH",
"127 621 OFFCURVE",
"165 648 OFFCURVE",
"226 648 CURVE SMOOTH",
"281 648 OFFCURVE",
"334 623 OFFCURVE",
"334 551 CURVE SMOOTH",
"334 445 OFFCURVE",
"220 352 OFFCURVE",
"118 307 CURVE",
"118 229 LINE",
"277 229 LINE SMOOTH",
"289 229 OFFCURVE",
"331 231 OFFCURVE",
"343 235 CURVE",
"392 271 LINE",
"196 132 OFFCURVE",
"134 18 OFFCURVE",
"134 -84 CURVE SMOOTH",
"134 -198 OFFCURVE",
"204 -250 OFFCURVE",
"302 -250 CURVE SMOOTH"
);
}
);
width = 489;
},
{
layerId = "58AAA307-6DE9-4107-B80A-C255AE991657";
paths = (
{
closed = 1;
nodes = (
"370 -258 OFFCURVE",
"391 -251 OFFCURVE",
"408 -245 CURVE",
"408 -129 LINE",
"397 -132 OFFCURVE",
"379 -134 OFFCURVE",
"366 -134 CURVE SMOOTH",
"292 -134 OFFCURVE",
"268 -95 OFFCURVE",
"268 -39 CURVE SMOOTH",
"268 32 OFFCURVE",
"323 105 OFFCURVE",
"453 221 CURVE",
"453 335 LINE",
"347 335 LINE SMOOTH",
"311 335 OFFCURVE",
"239 326 OFFCURVE",
"194 319 CURVE",
"197 300 LINE",
"396 366 OFFCURVE",
"462 456 OFFCURVE",
"462 544 CURVE SMOOTH",
"462 665 OFFCURVE",
"380 725 OFFCURVE",
"245 725 CURVE SMOOTH",
"133 725 OFFCURVE",
"40 665 OFFCURVE",
"40 559 CURVE SMOOTH",
"40 466 OFFCURVE",
"102 415 OFFCURVE",
"177 415 CURVE SMOOTH",
"212 415 OFFCURVE",
"235 425 OFFCURVE",
"252 436 CURVE",
"228 537 LINE",
"219 533 OFFCURVE",
"210 530 OFFCURVE",
"199 530 CURVE SMOOTH",
"187 530 OFFCURVE",
"170 537 OFFCURVE",
"170 559 CURVE SMOOTH",
"170 583 OFFCURVE",
"191 596 OFFCURVE",
"225 596 CURVE SMOOTH",
"276 596 OFFCURVE",
"303 568 OFFCURVE",
"303 520 CURVE SMOOTH",
"303 456 OFFCURVE",
"254 381 OFFCURVE",
"115 325 CURVE",
"115 209 LINE",
"235 209 LINE SMOOTH",
"280 209 OFFCURVE",
"326 215 OFFCURVE",
"340 220 CURVE",
"337 236 LINE",
"207 131 OFFCURVE",
"116 41 OFFCURVE",
"116 -78 CURVE SMOOTH",
"116 -187 OFFCURVE",
"183 -258 OFFCURVE",
"295 -258 CURVE SMOOTH"
);
}
);
width = 512;
},
{
layerId = "75F4F5E0-D5B2-4549-A21B-477AF2945BCD";
paths = (
{
closed = 1;
nodes = (
"343 -253 OFFCURVE",
"362 -248 OFFCURVE",
"383 -241 CURVE",
"383 -163 LINE",
"372 -166 OFFCURVE",
"353 -168 OFFCURVE",
"340 -168 CURVE SMOOTH",
"281 -168 OFFCURVE",
"242 -139 OFFCURVE",
"242 -69 CURVE SMOOTH",
"242 7 OFFCURVE",
"275 94 OFFCURVE",
"426 228 CURVE",
"426 317 LINE",
"301 317 LINE SMOOTH",
"274 317 OFFCURVE",
"236 314 OFFCURVE",
"189 308 CURVE",
"157 285 LINE",
"340 346 OFFCURVE",
"440 454 OFFCURVE",
"440 553 CURVE SMOOTH",
"440 665 OFFCURVE",
"369 726 OFFCURVE",
"240 726 CURVE SMOOTH",
"118 726 OFFCURVE",
"47 656 OFFCURVE",
"47 570 CURVE SMOOTH",
"47 485 OFFCURVE",
"108 436 OFFCURVE",
"178 436 CURVE SMOOTH",
"215 436 OFFCURVE",
"241 449 OFFCURVE",
"255 461 CURVE",
"232 530 LINE",
"223 526 OFFCURVE",
"211 521 OFFCURVE",
"194 521 CURVE SMOOTH",
"166 521 OFFCURVE",
"141 537 OFFCURVE",
"141 570 CURVE SMOOTH",
"141 609 OFFCURVE",
"174 631 OFFCURVE",
"226 631 CURVE SMOOTH",
"279 631 OFFCURVE",
"324 605 OFFCURVE",
"324 541 CURVE SMOOTH",
"324 449 OFFCURVE",
"231 362 OFFCURVE",
"117 313 CURVE",
"117 222 LINE",
"263 222 LINE SMOOTH",
"286 222 OFFCURVE",
"329 226 OFFCURVE",
"342 230 CURVE",
"374 260 LINE",
"200 132 OFFCURVE",
"128 26 OFFCURVE",
"128 -82 CURVE SMOOTH",
"128 -194 OFFCURVE",
"197 -253 OFFCURVE",
"300 -253 CURVE SMOOTH"
);
}
);
width = 496.54098;
},
{
layerId = "3F80E263-2B21-4BD5-AA74-4B7BB1AD4533";
paths = (
{
closed = 1;
nodes = (
"356 -255 OFFCURVE",
"376 -249 OFFCURVE",
"395 -243 CURVE",
"395 -146 LINE",
"384 -149 OFFCURVE",
"366 -151 OFFCURVE",
"353 -151 CURVE SMOOTH",
"286 -151 OFFCURVE",
"255 -118 OFFCURVE",
"255 -54 CURVE SMOOTH",
"255 19 OFFCURVE",
"298 99 OFFCURVE",
"439 225 CURVE",
"439 326 LINE",
"323 326 LINE SMOOTH",
"292 326 OFFCURVE",
"237 320 OFFCURVE",
"191 313 CURVE",
"177 292 LINE",
"367 356 OFFCURVE",
"451 455 OFFCURVE",
"451 549 CURVE SMOOTH",
"451 665 OFFCURVE",
"374 726 OFFCURVE",
"242 726 CURVE SMOOTH",
"125 726 OFFCURVE",
"44 660 OFFCURVE",
"44 565 CURVE SMOOTH",
"44 476 OFFCURVE",
"105 426 OFFCURVE",
"178 426 CURVE SMOOTH",
"214 426 OFFCURVE",
"238 437 OFFCURVE",
"254 449 CURVE",
"230 533 LINE",
"221 529 OFFCURVE",
"211 525 OFFCURVE",
"196 525 CURVE SMOOTH",
"176 525 OFFCURVE",
"155 537 OFFCURVE",
"155 565 CURVE SMOOTH",
"155 596 OFFCURVE",
"182 614 OFFCURVE",
"226 614 CURVE SMOOTH",
"278 614 OFFCURVE",
"314 587 OFFCURVE",
"314 531 CURVE SMOOTH",
"314 452 OFFCURVE",
"242 371 OFFCURVE",
"116 319 CURVE",
"116 216 LINE",
"249 216 LINE SMOOTH",
"283 216 OFFCURVE",
"328 221 OFFCURVE",
"341 225 CURVE",
"356 248 LINE",
"203 132 OFFCURVE",
"122 33 OFFCURVE",
"122 -80 CURVE SMOOTH",
"122 -191 OFFCURVE",
"190 -255 OFFCURVE",
"298 -255 CURVE SMOOTH"
);
}
);
width = 504.08197;
}
);
unicode = 10573;
script = vithkuqi;
category = Letter;
subCategory = Uppercase;
},
{
glyphname = "Che-cit";
lastChange = "2021-11-03 06:54:48 +0000";
layers = (
{
guideLines = (
{
position = "{624, 856}";
}
);
layerId = UUID0;
paths = (
{
closed = 1;
nodes = (
"426 -9 OFFCURVE",
"493 9 OFFCURVE",
"548 47 CURVE SMOOTH",
"624 100 OFFCURVE",
"679 192 OFFCURVE",
"679 331 CURVE SMOOTH",
"679 476 OFFCURVE",
"627 536 OFFCURVE",
"525 536 CURVE SMOOTH",
"425 536 OFFCURVE",
"355 463 OFFCURVE",
"355 319 CURVE SMOOTH",
"355 178 OFFCURVE",
"404 93 OFFCURVE",
"470 45 CURVE SMOOTH",
"523 6 OFFCURVE",
"588 -9 OFFCURVE",
"648 -9 CURVE SMOOTH",
"850 -9 OFFCURVE",
"919 149 OFFCURVE",
"920 282 CURVE SMOOTH",
"921 472 OFFCURVE",
"811 549 OFFCURVE",
"710 611 CURVE SMOOTH",
"636 656 OFFCURVE",
"572 685 OFFCURVE",
"572 730 CURVE SMOOTH",
"572 756 OFFCURVE",
"588 779 OFFCURVE",
"624 779 CURVE SMOOTH",
"658 779 OFFCURVE",
"683 761 OFFCURVE",
"714 735 CURVE",
"752 795 LINE",
"730 817 OFFCURVE",
"686 854 OFFCURVE",
"627 854 CURVE SMOOTH",
"552 854 OFFCURVE",
"490 809 OFFCURVE",
"490 730 CURVE SMOOTH",
"491 639 OFFCURVE",
"579 600 OFFCURVE",
"668 547 CURVE SMOOTH",
"755 494 OFFCURVE",
"843 423 OFFCURVE",
"843 282 CURVE SMOOTH",
"843 140 OFFCURVE",
"765 69 OFFCURVE",
"651 69 CURVE SMOOTH",
"617 69 OFFCURVE",
"579 75 OFFCURVE",
"546 94 CURVE SMOOTH",
"493 125 OFFCURVE",
"450 189 OFFCURVE",
"450 319 CURVE SMOOTH",
"450 426 OFFCURVE",
"490 458 OFFCURVE",
"531 458 CURVE SMOOTH",
"569 458 OFFCURVE",
"602 422 OFFCURVE",
"602 329 CURVE SMOOTH",
"602 183 OFFCURVE",
"541 116 OFFCURVE",
"472 88 CURVE SMOOTH",
"435 73 OFFCURVE",
"396 68 OFFCURVE",
"362 68 CURVE SMOOTH",
"224 68 OFFCURVE",
"155 150 OFFCURVE",
"155 349 CURVE SMOOTH",
"155 549 OFFCURVE",
"235 650 OFFCURVE",
"360 658 CURVE",
"360 724 LINE",
"205 721 OFFCURVE",
"60 609 OFFCURVE",
"60 350 CURVE SMOOTH",
"60 95 OFFCURVE",
"159 -9 OFFCURVE",
"362 -9 CURVE SMOOTH"
);
}
);
width = 950;
},
{
layerId = "58AAA307-6DE9-4107-B80A-C255AE991657";
paths = (
{
closed = 1;
nodes = (
"479 -9 OFFCURVE",
"586 34 OFFCURVE",
"600 78 CURVE",
"694 112 OFFCURVE",
"740 211 OFFCURVE",
"740 301 CURVE SMOOTH",
"740 459 OFFCURVE",
"654 502 OFFCURVE",
"549 502 CURVE SMOOTH",
"427 502 OFFCURVE",
"345 424 OFFCURVE",
"345 296 CURVE SMOOTH",
"345 213 OFFCURVE",
"381 117 OFFCURVE",
"509 74 CURVE",
"535 33 OFFCURVE",
"605 -8 OFFCURVE",
"696 -8 CURVE SMOOTH",
"888 -8 OFFCURVE",
"989 106 OFFCURVE",
"989 295 CURVE SMOOTH",
"989 492 OFFCURVE",
"880 541 OFFCURVE",
"748 610 CURVE SMOOTH",
"647 662 OFFCURVE",
"608 682 OFFCURVE",
"608 711 CURVE SMOOTH",
"608 728 OFFCURVE",
"619 739 OFFCURVE",
"640 739 CURVE SMOOTH",
"677 739 OFFCURVE",
"700 721 OFFCURVE",
"731 694 CURVE",
"800 789 LINE",
"772 822 OFFCURVE",
"714 857 OFFCURVE",
"647 857 CURVE SMOOTH",
"560 857 OFFCURVE",
"481 813 OFFCURVE",
"481 720 CURVE SMOOTH",
"481 623 OFFCURVE",
"538 581 OFFCURVE",
"664 519 CURVE SMOOTH",
"800 452 OFFCURVE",
"860 403 OFFCURVE",
"860 295 CURVE SMOOTH",
"860 159 OFFCURVE",
"783 118 OFFCURVE",
"699 118 CURVE SMOOTH",
"672 118 OFFCURVE",
"647 126 OFFCURVE",
"579 124 CURVE",
"542 148 OFFCURVE",
"505 199 OFFCURVE",
"505 286 CURVE SMOOTH",
"505 348 OFFCURVE",
"528 375 OFFCURVE",
"562 375 CURVE SMOOTH",
"594 375 OFFCURVE",
"611 346 OFFCURVE",
"611 288 CURVE SMOOTH",
"611 205 OFFCURVE",
"580 145 OFFCURVE",
"544 126 CURVE",
"470 126 OFFCURVE",
"435 118 OFFCURVE",
"394 118 CURVE SMOOTH",
"296 118 OFFCURVE",
"217 178 OFFCURVE",
"217 358 CURVE SMOOTH",
"217 522 OFFCURVE",
"278 594 OFFCURVE",
"362 609 CURVE",
"365 725 LINE",
"165 725 OFFCURVE",
"58 575 OFFCURVE",
"58 359 CURVE SMOOTH",
"58 137 OFFCURVE",
"163 -10 OFFCURVE",
"398 -9 CURVE SMOOTH"
);
}
);
width = 1034;
},
{
layerId = "75F4F5E0-D5B2-4549-A21B-477AF2945BCD";
paths = (
{
closed = 1;
nodes = (
"443 -9 OFFCURVE",
"523 17 OFFCURVE",
"565 57 CURVE SMOOTH",
"647 104 OFFCURVE",
"699 198 OFFCURVE",
"699 321 CURVE SMOOTH",
"699 470 OFFCURVE",
"636 525 OFFCURVE",
"533 525 CURVE SMOOTH",
"426 525 OFFCURVE",
"352 450 OFFCURVE",
"352 311 CURVE SMOOTH",
"352 189 OFFCURVE",
"396 101 OFFCURVE",
"483 55 CURVE SMOOTH",
"527 15 OFFCURVE",
"594 -9 OFFCURVE",
"664 -9 CURVE SMOOTH",
"862 -9 OFFCURVE",
"942 135 OFFCURVE",
"943 286 CURVE SMOOTH",
"943 479 OFFCURVE",
"834 546 OFFCURVE",
"722 611 CURVE SMOOTH",
"640 658 OFFCURVE",
"584 684 OFFCURVE",
"584 724 CURVE SMOOTH",
"584 747 OFFCURVE",
"598 766 OFFCURVE",
"629 766 CURVE SMOOTH",
"664 766 OFFCURVE",
"689 748 OFFCURVE",
"720 722 CURVE",
"768 793 LINE",
"744 819 OFFCURVE",
"695 855 OFFCURVE",
"634 855 CURVE SMOOTH",
"555 855 OFFCURVE",
"487 810 OFFCURVE",
"487 727 CURVE SMOOTH",
"488 634 OFFCURVE",
"566 594 OFFCURVE",
"667 538 CURVE SMOOTH",
"770 480 OFFCURVE",
"849 416 OFFCURVE",
"849 286 CURVE SMOOTH",
"849 146 OFFCURVE",
"771 85 OFFCURVE",
"667 85 CURVE SMOOTH",
"635 85 OFFCURVE",
"601 92 OFFCURVE",
"557 104 CURVE SMOOTH",
"509 133 OFFCURVE",
"468 192 OFFCURVE",
"468 308 CURVE SMOOTH",
"468 400 OFFCURVE",
"502 431 OFFCURVE",
"541 431 CURVE SMOOTH",
"577 431 OFFCURVE",
"605 397 OFFCURVE",
"605 316 CURVE SMOOTH",
"605 190 OFFCURVE",
"554 126 OFFCURVE",
"496 100 CURVE SMOOTH",
"446 90 OFFCURVE",
"409 84 OFFCURVE",
"372 84 CURVE SMOOTH",
"248 84 OFFCURVE",
"175 159 OFFCURVE",
"175 352 CURVE SMOOTH",
"175 540 OFFCURVE",
"249 632 OFFCURVE",
"361 642 CURVE",
"362 724 LINE",
"192 722 OFFCURVE",
"59 598 OFFCURVE",
"59 353 CURVE SMOOTH",
"59 109 OFFCURVE",
"160 -9 OFFCURVE",
"374 -9 CURVE SMOOTH"
);
}
);
width = 977.54098;
},
{
layerId = "3F80E263-2B21-4BD5-AA74-4B7BB1AD4533";
paths = (
{
closed = 1;
nodes = (
"461 -9 OFFCURVE",
"554 25 OFFCURVE",
"582 67 CURVE",
"670 108 OFFCURVE",
"719 204 OFFCURVE",
"719 311 CURVE SMOOTH",
"719 465 OFFCURVE",
"645 514 OFFCURVE",
"541 514 CURVE SMOOTH",
"426 514 OFFCURVE",
"349 437 OFFCURVE",
"349 304 CURVE SMOOTH",
"349 201 OFFCURVE",
"389 109 OFFCURVE",
"496 64 CURVE",
"531 24 OFFCURVE",
"599 -9 OFFCURVE",
"680 -9 CURVE SMOOTH",
"875 -9 OFFCURVE",
"965 121 OFFCURVE",
"965 290 CURVE SMOOTH",
"965 485 OFFCURVE",
"856 544 OFFCURVE",
"735 611 CURVE SMOOTH",
"643 660 OFFCURVE",
"596 683 OFFCURVE",
"596 718 CURVE SMOOTH",
"596 738 OFFCURVE",
"608 753 OFFCURVE",
"634 753 CURVE SMOOTH",
"670 753 OFFCURVE",
"694 735 OFFCURVE",
"725 708 CURVE",
"784 791 LINE",
"758 820 OFFCURVE",
"704 856 OFFCURVE",
"640 856 CURVE SMOOTH",
"557 856 OFFCURVE",
"484 811 OFFCURVE",
"484 724 CURVE SMOOTH",
"485 629 OFFCURVE",
"552 588 OFFCURVE",
"666 529 CURVE SMOOTH",
"785 466 OFFCURVE",
"854 410 OFFCURVE",
"854 290 CURVE SMOOTH",
"854 152 OFFCURVE",
"777 101 OFFCURVE",
"683 101 CURVE SMOOTH",
"653 101 OFFCURVE",
"623 109 OFFCURVE",
"568 114 CURVE",
"525 140 OFFCURVE",
"486 195 OFFCURVE",
"486 297 CURVE SMOOTH",
"486 375 OFFCURVE",
"515 404 OFFCURVE",
"551 404 CURVE SMOOTH",
"585 404 OFFCURVE",
"608 372 OFFCURVE",
"608 302 CURVE SMOOTH",
"608 197 OFFCURVE",
"567 135 OFFCURVE",
"519 113 CURVE",
"458 108 OFFCURVE",
"422 101 OFFCURVE",
"383 101 CURVE SMOOTH",
"271 101 OFFCURVE",
"195 168 OFFCURVE",
"195 355 CURVE SMOOTH",
"195 531 OFFCURVE",
"263 613 OFFCURVE",
"361 626 CURVE",
"363 724 LINE",
"179 723 OFFCURVE",
"59 587 OFFCURVE",
"59 356 CURVE SMOOTH",
"59 123 OFFCURVE",
"161 -9 OFFCURVE",
"386 -9 CURVE SMOOTH"
);
}
);
width = 1005.08197;
}
);
leftKerningGroup = "Ka-vit";
leftMetricsKey = "Ka-vit";
unicode = 10574;
script = vithkuqi;
category = Letter;
subCategory = Uppercase;
},
{
glyphname = "De-vit";
lastChange = "2021-11-03 06:54:48 +0000";
layers = (
{
components = (
{
name = "Dhe-vit";
transform = "{1, 0, 0, 1, 30, 0}";
}
);
layerId = UUID0;
paths = (
{
closed = 1;
nodes = (
"371 457 LINE",
"371 536 LINE",
"0 536 LINE",
"0 457 LINE"
);
}
);
width = 689;
},
{
components = (
{
name = "Dhe-vit";
transform = "{1, 0, 0, 1, 38, 0}";
}
);
layerId = "58AAA307-6DE9-4107-B80A-C255AE991657";
paths = (
{
closed = 1;
nodes = (
"423 420 LINE",
"423 536 LINE",
"5 536 LINE",
"5 420 LINE"
);
}
);
width = 764;
},
{
components = (
{
alignment = -1;
name = "Dhe-vit";
transform = "{1, 0, 0, 1, 33, 0}";
}
);
layerId = "75F4F5E0-D5B2-4549-A21B-477AF2945BCD";
paths = (
{
closed = 1;
nodes = (
"388 445 LINE",
"388 536 LINE",
"2 536 LINE",
"2 445 LINE"
);
}
);
width = 713.59016;
},
{
components = (
{
alignment = -1;
name = "Dhe-vit";
transform = "{1, 0, 0, 1, 35, 0}";
}
);
layerId = "3F80E263-2B21-4BD5-AA74-4B7BB1AD4533";
paths = (
{
closed = 1;
nodes = (
"405 433 LINE",
"405 536 LINE",
"3 536 LINE",
"3 433 LINE"
);
}
);
width = 738.18033;
}
);
rightKerningGroup = "Dhe-vit";
rightMetricsKey = "=Dhe-vit";
unicode = 10575;
script = vithkuqi;
category = Letter;
subCategory = Uppercase;
},
{
glyphname = "Dhe-vit";
lastChange = "2021-11-03 06:54:48 +0000";
layers = (
{
layerId = UUID0;
paths = (
{
closed = 1;
nodes = (
"95 714 LINE",
"95 155 LINE SMOOTH",
"95 50 OFFCURVE",
"145 -10 OFFCURVE",
"302 -10 CURVE SMOOTH",
"372 -10 OFFCURVE",
"421 15 OFFCURVE",
"451 35 CURVE",
"455 35 LINE",
"483 14 OFFCURVE",
"543 -9 OFFCURVE",
"619 -9 CURVE SMOOTH",
"639 -9 OFFCURVE",
"662 -7 OFFCURVE",
"679 -4 CURVE",
"679 60 LINE",
"586 60 OFFCURVE",
"511 83 OFFCURVE",
"482 110 CURVE",
"505 170 OFFCURVE",
"522 238 OFFCURVE",
"522 279 CURVE SMOOTH",
"522 365 OFFCURVE",
"495 396 OFFCURVE",
"459 396 CURVE SMOOTH",
"423 396 OFFCURVE",
"394 365 OFFCURVE",
"394 279 CURVE SMOOTH",
"394 238 OFFCURVE",
"406 179 OFFCURVE",
"427 108 CURVE",
"401 87 OFFCURVE",
"370 68 OFFCURVE",
"307 68 CURVE SMOOTH",
"224 68 OFFCURVE",
"185 110 OFFCURVE",
"185 177 CURVE SMOOTH",
"185 714 LINE"
);
}
);
width = 659;
},
{
layerId = "58AAA307-6DE9-4107-B80A-C255AE991657";
paths = (
{
closed = 1;
nodes = (
"90 715 LINE",
"90 165 LINE SMOOTH",
"90 62 OFFCURVE",
"160 -10 OFFCURVE",
"327 -10 CURVE SMOOTH",
"404 -10 OFFCURVE",
"452 17 OFFCURVE",
"480 40 CURVE",
"489 40 LINE",
"530 8 OFFCURVE",
"583 -7 OFFCURVE",
"647 -7 CURVE SMOOTH",
"692 -7 OFFCURVE",
"710 -5 OFFCURVE",
"721 -3 CURVE",
"721 105 LINE",
"657 105 OFFCURVE",
"565 107 OFFCURVE",
"530 151 CURVE",
"562 202 OFFCURVE",
"581 243 OFFCURVE",
"581 308 CURVE SMOOTH",
"581 401 OFFCURVE",
"540 430 OFFCURVE",
"488 430 CURVE SMOOTH",
"438 430 OFFCURVE",
"393 401 OFFCURVE",
"393 308 CURVE SMOOTH",
"393 243 OFFCURVE",
"416 202 OFFCURVE",
"442 151 CURVE",
"432 137 OFFCURVE",
"413 117 OFFCURVE",
"362 117 CURVE SMOOTH",
"272 117 OFFCURVE",
"241 166 OFFCURVE",
"241 223 CURVE SMOOTH",
"241 715 LINE"
);
}
);
width = 726;
},
{
layerId = "75F4F5E0-D5B2-4549-A21B-477AF2945BCD";
paths = (
{
closed = 1;
nodes = (
"93 714 LINE",
"93 158 LINE SMOOTH",
"93 54 OFFCURVE",
"150 -10 OFFCURVE",
"310 -10 CURVE SMOOTH",
"382 -10 OFFCURVE",
"431 16 OFFCURVE",
"461 37 CURVE",
"466 37 LINE",
"498 12 OFFCURVE",
"556 -8 OFFCURVE",
"628 -8 CURVE SMOOTH",
"656 -8 OFFCURVE",
"678 -6 OFFCURVE",
"693 -4 CURVE",
"693 75 LINE",
"609 75 OFFCURVE",
"529 91 OFFCURVE",
"498 123 CURVE",
"524 180 OFFCURVE",
"541 240 OFFCURVE",
"541 289 CURVE SMOOTH",
"541 377 OFFCURVE",
"510 407 OFFCURVE",
"469 407 CURVE SMOOTH",
"428 407 OFFCURVE",
"394 377 OFFCURVE",
"394 289 CURVE SMOOTH",
"394 240 OFFCURVE",
"409 187 OFFCURVE",
"432 122 CURVE",
"411 103 OFFCURVE",
"384 84 OFFCURVE",
"325 84 CURVE SMOOTH",
"240 84 OFFCURVE",
"203 128 OFFCURVE",
"203 192 CURVE SMOOTH",
"203 714 LINE"
);
}
);
width = 680.96721;
},
{
layerId = "3F80E263-2B21-4BD5-AA74-4B7BB1AD4533";
paths = (
{
closed = 1;
nodes = (
"92 714 LINE",
"92 161 LINE SMOOTH",
"92 58 OFFCURVE",
"155 -10 OFFCURVE",
"318 -10 CURVE SMOOTH",
"393 -10 OFFCURVE",
"441 16 OFFCURVE",
"470 38 CURVE",
"477 38 LINE",
"514 10 OFFCURVE",
"569 -8 OFFCURVE",
"637 -8 CURVE SMOOTH",
"674 -8 OFFCURVE",
"694 -6 OFFCURVE",
"707 -4 CURVE",
"707 90 LINE",
"632 90 OFFCURVE",
"547 99 OFFCURVE",
"514 137 CURVE",
"543 191 OFFCURVE",
"561 241 OFFCURVE",
"561 298 CURVE SMOOTH",
"561 389 OFFCURVE",
"525 418 OFFCURVE",
"478 418 CURVE SMOOTH",
"433 418 OFFCURVE",
"394 389 OFFCURVE",
"394 298 CURVE SMOOTH",
"394 241 OFFCURVE",
"412 194 OFFCURVE",
"437 136 CURVE",
"421 120 OFFCURVE",
"398 100 OFFCURVE",
"343 100 CURVE SMOOTH",
"256 100 OFFCURVE",
"222 147 OFFCURVE",
"222 207 CURVE SMOOTH",
"222 714 LINE"
);
}
);
width = 702.93443;
}
);
leftKerningGroup = "Dhe-vit";
rightKerningGroup = "Dhe-vit";
unicode = 10576;
script = vithkuqi;
category = Letter;
subCategory = Uppercase;
},
{
glyphname = "E-vit";
lastChange = "2021-11-03 06:54:48 +0000";
layers = (
{
layerId = UUID0;
paths = (
{
closed = 1;
nodes = (
"559 -10 OFFCURVE",
"645 57 OFFCURVE",
"682 111 CURVE",
"646 154 LINE",
"614 125 OFFCURVE",
"560 68 OFFCURVE",
"468 68 CURVE SMOOTH",
"349 68 OFFCURVE",
"273 153 OFFCURVE",
"273 311 CURVE SMOOTH",
"273 527 OFFCURVE",
"388 652 OFFCURVE",
"507 652 CURVE SMOOTH",
"558 652 OFFCURVE",
"588 631 OFFCURVE",
"588 595 CURVE SMOOTH",
"588 499 OFFCURVE",
"469 476 OFFCURVE",
"377 476 CURVE SMOOTH",
"268 476 OFFCURVE",
"206 533 OFFCURVE",
"150 597 CURVE",
"97 597 LINE",
"73 555 OFFCURVE",
"52 515 OFFCURVE",
"-5 465 CURVE",
"29 423 LINE",
"77 452 OFFCURVE",
"136 514 OFFCURVE",
"136 555 CURVE",
"102 509 LINE",
"154 451 OFFCURVE",
"228 402 OFFCURVE",
"364 402 CURVE SMOOTH",
"486 402 OFFCURVE",
"665 434 OFFCURVE",
"665 597 CURVE SMOOTH",
"665 691 OFFCURVE",
"597 726 OFFCURVE",
"509 726 CURVE SMOOTH",
"327 726 OFFCURVE",
"178 527 OFFCURVE",
"178 307 CURVE SMOOTH",
"178 94 OFFCURVE",
"265 -10 OFFCURVE",
"449 -10 CURVE SMOOTH"
);
}
);
width = 697;
},
{
layerId = "58AAA307-6DE9-4107-B80A-C255AE991657";
paths = (
{
closed = 1;
nodes = (
"606 -10 OFFCURVE",
"677 42 OFFCURVE",
"744 117 CURVE",
"674 202 LINE",
"633 159 OFFCURVE",
"590 117 OFFCURVE",
"509 117 CURVE SMOOTH",
"426 117 OFFCURVE",
"350 185 OFFCURVE",
"350 311 CURVE SMOOTH",
"350 527 OFFCURVE",
"466 599 OFFCURVE",
"557 599 CURVE SMOOTH",
"587 599 OFFCURVE",
"599 587 OFFCURVE",
"599 572 CURVE SMOOTH",
"599 514 OFFCURVE",
"498 465 OFFCURVE",
"403 465 CURVE SMOOTH",
"310 465 OFFCURVE",
"223 553 OFFCURVE",
"168 619 CURVE",
"105 619 LINE",
"80 576 OFFCURVE",
"49 515 OFFCURVE",
"0 465 CURVE",
"64 394 LINE",
"112 423 OFFCURVE",
"161 485 OFFCURVE",
"171 526 CURVE",
"84 491 LINE",
"156 421 OFFCURVE",
"247 338 OFFCURVE",
"403 338 CURVE SMOOTH",
"529 338 OFFCURVE",
"727 411 OFFCURVE",
"727 572 CURVE SMOOTH",
"727 676 OFFCURVE",
"660 726 OFFCURVE",
"559 726 CURVE SMOOTH",
"344 726 OFFCURVE",
"182 527 OFFCURVE",
"182 307 CURVE SMOOTH",
"182 87 OFFCURVE",
"300 -10 OFFCURVE",
"482 -10 CURVE SMOOTH"
);
}
);
width = 764;
},
{
layerId = "75F4F5E0-D5B2-4549-A21B-477AF2945BCD";
paths = (
{
closed = 1;
nodes = (
"574 -10 OFFCURVE",
"655 52 OFFCURVE",
"702 113 CURVE",
"655 170 LINE",
"620 136 OFFCURVE",
"570 84 OFFCURVE",
"481 84 CURVE SMOOTH",
"374 84 OFFCURVE",
"298 163 OFFCURVE",
"298 311 CURVE SMOOTH",
"298 527 OFFCURVE",
"414 635 OFFCURVE",
"523 635 CURVE SMOOTH",
"568 635 OFFCURVE",
"592 617 OFFCURVE",
"592 587 CURVE SMOOTH",
"592 504 OFFCURVE",
"479 472 OFFCURVE",
"386 472 CURVE SMOOTH",
"282 472 OFFCURVE",
"212 540 OFFCURVE",
"156 604 CURVE",
"100 604 LINE",
"75 562 OFFCURVE",
"51 515 OFFCURVE",
"-3 465 CURVE",
"40 413 LINE",
"88 442 OFFCURVE",
"144 504 OFFCURVE",
"147 545 CURVE",
"96 503 LINE",
"155 441 OFFCURVE",
"234 381 OFFCURVE",
"377 381 CURVE SMOOTH",
"500 381 OFFCURVE",
"685 426 OFFCURVE",
"685 589 CURVE SMOOTH",
"685 686 OFFCURVE",
"618 726 OFFCURVE",
"525 726 CURVE SMOOTH",
"333 726 OFFCURVE",
"179 527 OFFCURVE",
"179 307 CURVE SMOOTH",
"179 92 OFFCURVE",
"276 -10 OFFCURVE",
"460 -10 CURVE SMOOTH"
);
}
);
width = 718.96721;
},
{
layerId = "3F80E263-2B21-4BD5-AA74-4B7BB1AD4533";
paths = (
{
closed = 1;
nodes = (
"590 -10 OFFCURVE",
"666 47 OFFCURVE",
"722 115 CURVE",
"664 186 LINE",
"626 147 OFFCURVE",
"580 100 OFFCURVE",
"495 100 CURVE SMOOTH",
"399 100 OFFCURVE",
"323 174 OFFCURVE",
"323 311 CURVE SMOOTH",
"323 527 OFFCURVE",
"439 617 OFFCURVE",
"540 617 CURVE SMOOTH",
"577 617 OFFCURVE",
"595 602 OFFCURVE",
"595 580 CURVE SMOOTH",
"595 509 OFFCURVE",
"488 469 OFFCURVE",
"394 469 CURVE SMOOTH",
"296 469 OFFCURVE",
"217 546 OFFCURVE",
"162 611 CURVE",
"102 611 LINE",
"77 569 OFFCURVE",
"50 515 OFFCURVE",
"-2 465 CURVE",
"52 404 LINE",
"100 433 OFFCURVE",
"152 495 OFFCURVE",
"159 536 CURVE",
"90 497 LINE",
"155 431 OFFCURVE",
"240 360 OFFCURVE",
"390 360 CURVE SMOOTH",
"514 360 OFFCURVE",
"705 419 OFFCURVE",
"705 581 CURVE SMOOTH",
"705 681 OFFCURVE",
"638 726 OFFCURVE",
"542 726 CURVE SMOOTH",
"338 726 OFFCURVE",
"180 527 OFFCURVE",
"180 307 CURVE SMOOTH",
"180 90 OFFCURVE",
"288 -10 OFFCURVE",
"471 -10 CURVE SMOOTH"
);
}
);
width = 740.93443;
}
);
unicode = 10578;
script = vithkuqi;
category = Letter;
subCategory = Uppercase;
},
{
glyphname = "Ei-vit";
lastChange = "2021-11-03 06:54:48 +0000";
layers = (
{
layerId = UUID0;
paths = (
{
closed = 1;
nodes = (
"366 -10 OFFCURVE",
"426 66 OFFCURVE",
"426 272 CURVE SMOOTH",
"426 506 OFFCURVE",
"345 723 OFFCURVE",
"151 723 CURVE SMOOTH",
"102 723 OFFCURVE",
"57 705 OFFCURVE",
"15 668 CURVE",
"47 613 LINE",
"68 625 OFFCURVE",
"93 645 OFFCURVE",
"147 645 CURVE SMOOTH",
"275 645 OFFCURVE",
"331 410 OFFCURVE",
"331 272 CURVE SMOOTH",
"331 128 OFFCURVE",
"299 68 OFFCURVE",
"249 68 CURVE SMOOTH",
"186 68 OFFCURVE",
"168 132 OFFCURVE",
"168 242 CURVE SMOOTH",
"168 514 OFFCURVE",
"299 646 OFFCURVE",
"464 646 CURVE SMOOTH",
"566 646 OFFCURVE",
"626 603 OFFCURVE",
"626 492 CURVE SMOOTH",
"626 176 LINE SMOOTH",
"626 53 OFFCURVE",
"665 -11 OFFCURVE",
"759 -11 CURVE SMOOTH",
"778 -11 OFFCURVE",
"792 -10 OFFCURVE",
"818 -7 CURVE",
"818 53 LINE",
"799 53 LINE SMOOTH",
"727 53 OFFCURVE",
"716 113 OFFCURVE",
"716 193 CURVE SMOOTH",
"716 517 LINE SMOOTH",
"716 673 OFFCURVE",
"633 725 OFFCURVE",
"486 725 CURVE SMOOTH",
"243 725 OFFCURVE",
"91 508 OFFCURVE",
"91 242 CURVE SMOOTH",
"91 47 OFFCURVE",
"154 -10 OFFCURVE",
"249 -10 CURVE SMOOTH"
);
}
);
width = 843;
},
{
layerId = "58AAA307-6DE9-4107-B80A-C255AE991657";
paths = (
{
closed = 1;
nodes = (
"431 -10 OFFCURVE",
"509 88 OFFCURVE",
"509 281 CURVE SMOOTH",
"509 512 OFFCURVE",
"385 721 OFFCURVE",
"165 721 CURVE SMOOTH",
"98 721 OFFCURVE",
"37 699 OFFCURVE",
"-5 667 CURVE",
"42 557 LINE",
"83 582 OFFCURVE",
"123 594 OFFCURVE",
"165 594 CURVE SMOOTH",
"259 594 OFFCURVE",
"350 439 OFFCURVE",
"350 281 CURVE SMOOTH",
"350 171 OFFCURVE",
"341 117 OFFCURVE",
"282 117 CURVE SMOOTH",
"230 117 OFFCURVE",
"212 168 OFFCURVE",
"214 259 CURVE SMOOTH",
"219 466 OFFCURVE",
"309 598 OFFCURVE",
"474 598 CURVE SMOOTH",
"577 598 OFFCURVE",
"624 550 OFFCURVE",
"624 465 CURVE SMOOTH",
"624 157 LINE SMOOTH",
"624 60 OFFCURVE",
"671 -9 OFFCURVE",
"777 -9 CURVE SMOOTH",
"796 -9 OFFCURVE",
"828 -8 OFFCURVE",
"847 -6 CURVE",
"847 109 LINE",
"833 109 LINE SMOOTH",
"794 109 OFFCURVE",
"775 140 OFFCURVE",
"775 175 CURVE SMOOTH",
"775 496 LINE SMOOTH",
"775 662 OFFCURVE",
"677 725 OFFCURVE",
"503 725 CURVE SMOOTH",
"253 725 OFFCURVE",
"91 536 OFFCURVE",
"85 259 CURVE SMOOTH",
"81 103 OFFCURVE",
"140 -10 OFFCURVE",
"282 -10 CURVE SMOOTH"
);
}
);
width = 865;
},
{
layerId = "75F4F5E0-D5B2-4549-A21B-477AF2945BCD";
paths = (
{
closed = 1;
nodes = (
"387 -10 OFFCURVE",
"453 73 OFFCURVE",
"453 275 CURVE SMOOTH",
"453 508 OFFCURVE",
"358 722 OFFCURVE",
"156 722 CURVE SMOOTH",
"101 722 OFFCURVE",
"50 703 OFFCURVE",
"8 668 CURVE",
"45 595 LINE",
"73 611 OFFCURVE",
"103 628 OFFCURVE",
"153 628 CURVE SMOOTH",
"270 628 OFFCURVE",
"337 420 OFFCURVE",
"337 275 CURVE SMOOTH",
"337 142 OFFCURVE",
"313 84 OFFCURVE",
"260 84 CURVE SMOOTH",
"200 84 OFFCURVE",
"182 144 OFFCURVE",
"183 248 CURVE SMOOTH",
"185 498 OFFCURVE",
"302 630 OFFCURVE",
"467 630 CURVE SMOOTH",
"570 630 OFFCURVE",
"625 586 OFFCURVE",
"625 483 CURVE SMOOTH",
"625 170 LINE SMOOTH",
"625 55 OFFCURVE",
"667 -10 OFFCURVE",
"765 -10 CURVE SMOOTH",
"784 -10 OFFCURVE",
"804 -9 OFFCURVE",
"828 -7 CURVE",
"828 71 LINE",
"810 71 LINE SMOOTH",
"749 71 OFFCURVE",
"735 122 OFFCURVE",
"735 187 CURVE SMOOTH",
"735 510 LINE SMOOTH",
"735 669 OFFCURVE",
"647 725 OFFCURVE",
"492 725 CURVE SMOOTH",
"246 725 OFFCURVE",
"91 517 OFFCURVE",
"89 248 CURVE SMOOTH",
"88 65 OFFCURVE",
"149 -10 OFFCURVE",
"260 -10 CURVE SMOOTH"
);
}
);
width = 850.21311;
},
{
layerId = "3F80E263-2B21-4BD5-AA74-4B7BB1AD4533";
paths = (
{
closed = 1;
nodes = (
"408 -10 OFFCURVE",
"480 80 OFFCURVE",
"480 278 CURVE SMOOTH",
"480 510 OFFCURVE",
"371 722 OFFCURVE",
"160 722 CURVE SMOOTH",
"100 722 OFFCURVE",
"44 701 OFFCURVE",
"2 668 CURVE",
"44 576 LINE",
"78 597 OFFCURVE",
"113 611 OFFCURVE",
"159 611 CURVE SMOOTH",
"265 611 OFFCURVE",
"343 429 OFFCURVE",
"343 278 CURVE SMOOTH",
"343 156 OFFCURVE",
"327 100 OFFCURVE",
"271 100 CURVE SMOOTH",
"215 100 OFFCURVE",
"197 156 OFFCURVE",
"198 253 CURVE SMOOTH",
"202 482 OFFCURVE",
"305 614 OFFCURVE",
"470 614 CURVE SMOOTH",
"573 614 OFFCURVE",
"625 568 OFFCURVE",
"625 474 CURVE SMOOTH",
"625 164 LINE SMOOTH",
"625 57 OFFCURVE",
"669 -10 OFFCURVE",
"771 -10 CURVE SMOOTH",
"790 -10 OFFCURVE",
"816 -9 OFFCURVE",
"837 -7 CURVE",
"837 90 LINE",
"821 90 LINE SMOOTH",
"771 90 OFFCURVE",
"755 131 OFFCURVE",
"755 181 CURVE SMOOTH",
"755 503 LINE SMOOTH",
"755 666 OFFCURVE",
"662 725 OFFCURVE",
"497 725 CURVE SMOOTH",
"249 725 OFFCURVE",
"91 526 OFFCURVE",
"87 253 CURVE SMOOTH",
"85 84 OFFCURVE",
"145 -10 OFFCURVE",
"271 -10 CURVE SMOOTH"
);
}
);
width = 857.42623;
}
);
unicode = 10577;
script = vithkuqi;
category = Letter;
subCategory = Uppercase;
},
{
glyphname = "Fe-vit";
lastChange = "2021-11-03 06:54:48 +0000";
layers = (
{
layerId = UUID0;
paths = (
{
closed = 1;
nodes = (
"579 -10 OFFCURVE",
"659 276 OFFCURVE",
"659 470 CURVE SMOOTH",
"659 666 OFFCURVE",
"592 726 OFFCURVE",
"492 726 CURVE SMOOTH",
"379 726 OFFCURVE",
"320 641 OFFCURVE",
"320 550 CURVE SMOOTH",
"320 427 OFFCURVE",
"408 325 OFFCURVE",
"570 325 CURVE SMOOTH",
"641 325 OFFCURVE",
"721 369 OFFCURVE",
"799 453 CURVE",
"798 477 LINE",
"763 425 OFFCURVE",
"704 279 OFFCURVE",
"704 156 CURVE SMOOTH",
"704 30 OFFCURVE",
"778 -9 OFFCURVE",
"869 -9 CURVE SMOOTH",
"909 -9 OFFCURVE",
"931 -2 OFFCURVE",
"948 8 CURVE",
"948 69 LINE",
"931 66 OFFCURVE",
"912 65 OFFCURVE",
"899 65 CURVE SMOOTH",
"828 65 OFFCURVE",
"799 95 OFFCURVE",
"799 156 CURVE SMOOTH",
"799 342 OFFCURVE",
"861 459 OFFCURVE",
"881 505 CURVE",
"815 546 LINE",
"734 453 OFFCURVE",
"652 399 OFFCURVE",
"570 399 CURVE SMOOTH",
"466 399 OFFCURVE",
"415 470 OFFCURVE",
"415 550 CURVE SMOOTH",
"415 613 OFFCURVE",
"442 648 OFFCURVE",
"492 648 CURVE SMOOTH",
"551 648 OFFCURVE",
"582 582 OFFCURVE",
"582 473 CURVE SMOOTH",
"582 256 OFFCURVE",
"495 68 OFFCURVE",
"336 68 CURVE SMOOTH",
"236 68 OFFCURVE",
"209 148 OFFCURVE",
"209 226 CURVE SMOOTH",
"209 605 LINE SMOOTH",
"209 676 OFFCURVE",
"184 726 OFFCURVE",
"116 726 CURVE SMOOTH",
"78 726 OFFCURVE",
"37 706 OFFCURVE",
"5 679 CURVE",
"33 622 LINE",
"49 629 OFFCURVE",
"67 635 OFFCURVE",
"78 635 CURVE SMOOTH",
"107 635 OFFCURVE",
"119 623 OFFCURVE",
"119 587 CURVE SMOOTH",
"119 218 LINE SMOOTH",
"119 72 OFFCURVE",
"178 -10 OFFCURVE",
"332 -10 CURVE SMOOTH"
);
}
);
width = 948;
},
{
layerId = "58AAA307-6DE9-4107-B80A-C255AE991657";
paths = (
{
closed = 1;
nodes = (
"635 -10 OFFCURVE",
"757 276 OFFCURVE",
"757 473 CURVE SMOOTH",
"757 664 OFFCURVE",
"689 726 OFFCURVE",
"570 726 CURVE SMOOTH",
"446 726 OFFCURVE",
"359 660 OFFCURVE",
"359 532 CURVE SMOOTH",
"359 370 OFFCURVE",
"484 289 OFFCURVE",
"663 289 CURVE SMOOTH",
"730 289 OFFCURVE",
"862 340 OFFCURVE",
"910 432 CURVE",
"965 517 LINE",
"800 309 OFFCURVE",
"775 233 OFFCURVE",
"775 154 CURVE SMOOTH",
"775 35 OFFCURVE",
"863 -8 OFFCURVE",
"966 -8 CURVE SMOOTH",
"1009 -8 OFFCURVE",
"1042 -5 OFFCURVE",
"1067 1 CURVE",
"1067 115 LINE",
"1051 110 OFFCURVE",
"1037 109 OFFCURVE",
"1023 109 CURVE SMOOTH",
"976 109 OFFCURVE",
"934 123 OFFCURVE",
"934 190 CURVE SMOOTH",
"934 263 OFFCURVE",
"982 365 OFFCURVE",
"1046 471 CURVE",
"918 544 LINE",
"837 451 OFFCURVE",
"729 416 OFFCURVE",
"670 416 CURVE SMOOTH",
"570 416 OFFCURVE",
"518 470 OFFCURVE",
"518 532 CURVE SMOOTH",
"518 573 OFFCURVE",
"538 599 OFFCURVE",
"570 599 CURVE SMOOTH",
"602 599 OFFCURVE",
"628 563 OFFCURVE",
"628 473 CURVE SMOOTH",
"628 282 OFFCURVE",
"538 117 OFFCURVE",
"382 117 CURVE SMOOTH",
"307 117 OFFCURVE",
"280 168 OFFCURVE",
"280 234 CURVE SMOOTH",
"279 574 LINE SMOOTH",
"279 694 OFFCURVE",
"220 726 OFFCURVE",
"151 726 CURVE SMOOTH",
"98 726 OFFCURVE",
"36 697 OFFCURVE",
"5 670 CURVE",
"45 561 LINE",
"57 565 OFFCURVE",
"68 573 OFFCURVE",
"85 573 CURVE SMOOTH",
"103 573 OFFCURVE",
"121 559 OFFCURVE",
"121 526 CURVE SMOOTH",
"122 214 LINE SMOOTH",
"122 75 OFFCURVE",
"195 -10 OFFCURVE",
"367 -10 CURVE SMOOTH"
);
}
);
width = 1067;
},
{
layerId = "75F4F5E0-D5B2-4549-A21B-477AF2945BCD";
paths = (
{
closed = 1;
nodes = (
"597 -10 OFFCURVE",
"691 276 OFFCURVE",
"691 471 CURVE SMOOTH",
"691 665 OFFCURVE",
"624 726 OFFCURVE",
"518 726 CURVE SMOOTH",
"401 726 OFFCURVE",
"333 647 OFFCURVE",
"333 544 CURVE SMOOTH",
"333 408 OFFCURVE",
"433 313 OFFCURVE",
"600 313 CURVE SMOOTH",
"670 313 OFFCURVE",
"767 359 OFFCURVE",
"835 446 CURVE",
"853 490 LINE",
"775 387 OFFCURVE",
"727 264 OFFCURVE",
"727 155 CURVE SMOOTH",
"727 32 OFFCURVE",
"806 -9 OFFCURVE",
"901 -9 CURVE SMOOTH",
"942 -9 OFFCURVE",
"967 -3 OFFCURVE",
"987 6 CURVE",
"987 84 LINE",
"970 80 OFFCURVE",
"953 79 OFFCURVE",
"940 79 CURVE SMOOTH",
"877 79 OFFCURVE",
"843 104 OFFCURVE",
"843 167 CURVE SMOOTH",
"843 316 OFFCURVE",
"901 428 OFFCURVE",
"935 494 CURVE",
"849 545 LINE",
"768 452 OFFCURVE",
"677 405 OFFCURVE",
"603 405 CURVE SMOOTH",
"500 405 OFFCURVE",
"449 470 OFFCURVE",
"449 544 CURVE SMOOTH",
"449 600 OFFCURVE",
"473 632 OFFCURVE",
"518 632 CURVE SMOOTH",
"568 632 OFFCURVE",
"597 576 OFFCURVE",
"597 473 CURVE SMOOTH",
"597 265 OFFCURVE",
"509 84 OFFCURVE",
"351 84 CURVE SMOOTH",
"259 84 OFFCURVE",
"232 155 OFFCURVE",
"232 229 CURVE SMOOTH",
"232 595 LINE SMOOTH",
"232 682 OFFCURVE",
"196 726 OFFCURVE",
"127 726 CURVE SMOOTH",
"85 726 OFFCURVE",
"37 703 OFFCURVE",
"5 676 CURVE",
"37 602 LINE",
"52 608 OFFCURVE",
"67 615 OFFCURVE",
"80 615 CURVE SMOOTH",
"106 615 OFFCURVE",
"120 602 OFFCURVE",
"120 567 CURVE SMOOTH",
"120 217 LINE SMOOTH",
"120 73 OFFCURVE",
"184 -10 OFFCURVE",
"343 -10 CURVE SMOOTH"
);
}
);
width = 987.01639;
},
{
layerId = "3F80E263-2B21-4BD5-AA74-4B7BB1AD4533";
paths = (
{
closed = 1;
nodes = (
"616 -10 OFFCURVE",
"723 276 OFFCURVE",
"723 472 CURVE SMOOTH",
"723 665 OFFCURVE",
"656 726 OFFCURVE",
"543 726 CURVE SMOOTH",
"423 726 OFFCURVE",
"346 653 OFFCURVE",
"346 538 CURVE SMOOTH",
"346 389 OFFCURVE",
"458 301 OFFCURVE",
"631 301 CURVE SMOOTH",
"699 301 OFFCURVE",
"813 350 OFFCURVE",
"872 439 CURVE",
"908 503 LINE",
"787 349 OFFCURVE",
"750 249 OFFCURVE",
"750 155 CURVE SMOOTH",
"750 33 OFFCURVE",
"834 -9 OFFCURVE",
"933 -9 CURVE SMOOTH",
"975 -9 OFFCURVE",
"1004 -4 OFFCURVE",
"1026 4 CURVE",
"1026 99 LINE",
"1010 95 OFFCURVE",
"994 94 OFFCURVE",
"980 94 CURVE SMOOTH",
"925 94 OFFCURVE",
"887 113 OFFCURVE",
"887 178 CURVE SMOOTH",
"887 290 OFFCURVE",
"941 397 OFFCURVE",
"989 483 CURVE",
"883 545 LINE",
"802 452 OFFCURVE",
"702 410 OFFCURVE",
"636 410 CURVE SMOOTH",
"534 410 OFFCURVE",
"483 470 OFFCURVE",
"483 538 CURVE SMOOTH",
"483 587 OFFCURVE",
"505 616 OFFCURVE",
"543 616 CURVE SMOOTH",
"585 616 OFFCURVE",
"612 570 OFFCURVE",
"612 473 CURVE SMOOTH",
"612 273 OFFCURVE",
"523 100 OFFCURVE",
"366 100 CURVE SMOOTH",
"282 100 OFFCURVE",
"255 161 OFFCURVE",
"255 231 CURVE SMOOTH",
"255 585 LINE SMOOTH",
"255 688 OFFCURVE",
"208 726 OFFCURVE",
"139 726 CURVE SMOOTH",
"91 726 OFFCURVE",
"37 700 OFFCURVE",
"5 673 CURVE",
"41 582 LINE",
"54 587 OFFCURVE",
"67 595 OFFCURVE",
"82 595 CURVE SMOOTH",
"105 595 OFFCURVE",
"120 581 OFFCURVE",
"120 547 CURVE SMOOTH",
"121 216 LINE SMOOTH",
"121 74 OFFCURVE",
"189 -10 OFFCURVE",
"355 -10 CURVE SMOOTH"
);
}
);
width = 1026.03279;
}
);
leftMetricsKey = "Se-vit";
unicode = 10579;
script = vithkuqi;
category = Letter;
subCategory = Uppercase;
},
{
glyphname = "Ga-vit";
lastChange = "2021-11-03 06:54:48 +0000";
layers = (
{
anchors = (
{
name = topright;
position = "{511, 617}";
}
);
layerId = UUID0;
paths = (
{
closed = 1;
nodes = (
"556 -9 OFFCURVE",
"611 60 OFFCURVE",
"612 158 CURVE SMOOTH",
"613 330 OFFCURVE",
"434 411 OFFCURVE",
"341 450 CURVE SMOOTH",
"222 500 OFFCURVE",
"187 536 OFFCURVE",
"187 581 CURVE SMOOTH",
"187 622 OFFCURVE",
"216 647 OFFCURVE",
"252 647 CURVE SMOOTH",
"302 647 OFFCURVE",
"351 627 OFFCURVE",
"351 526 CURVE SMOOTH",
"351 439 OFFCURVE",
"310 366 OFFCURVE",
"207 366 CURVE SMOOTH",
"151 366 OFFCURVE",
"93 394 OFFCURVE",
"74 412 CURVE",
"45 371 LINE",
"73 341 OFFCURVE",
"134 296 OFFCURVE",
"218 296 CURVE SMOOTH",
"352 296 OFFCURVE",
"446 396 OFFCURVE",
"446 526 CURVE SMOOTH",
"446 662 OFFCURVE",
"367 725 OFFCURVE",
"267 725 CURVE SMOOTH",
"160 725 OFFCURVE",
"110 655 OFFCURVE",
"110 581 CURVE SMOOTH",
"110 506 OFFCURVE",
"152 450 OFFCURVE",
"318 382 CURVE SMOOTH",
"446 330 OFFCURVE",
"535 264 OFFCURVE",
"535 158 CURVE SMOOTH",
"535 100 OFFCURVE",
"511 75 OFFCURVE",
"478 75 CURVE SMOOTH",
"423 75 OFFCURVE",
"226 166 OFFCURVE",
"131 166 CURVE SMOOTH",
"57 166 OFFCURVE",
"30 114 OFFCURVE",
"30 65 CURVE SMOOTH",
"30 27 OFFCURVE",
"34 6 OFFCURVE",
"37 0 CURVE",
"89 0 LINE",
"88 47 OFFCURVE",
"94 83 OFFCURVE",
"136 83 CURVE SMOOTH",
"201 83 OFFCURVE",
"382 -9 OFFCURVE",
"469 -9 CURVE SMOOTH"
);
}
);
width = 637;
},
{
anchors = (
{
name = topright;
position = "{586, 583}";
}
);
layerId = "58AAA307-6DE9-4107-B80A-C255AE991657";
paths = (
{
closed = 1;
nodes = (
"581 -9 OFFCURVE",
"656 44 OFFCURVE",
"653 169 CURVE SMOOTH",
"650 330 OFFCURVE",
"485 427 OFFCURVE",
"387 450 CURVE SMOOTH",
"258 480 OFFCURVE",
"225 518 OFFCURVE",
"225 552 CURVE SMOOTH",
"225 584 OFFCURVE",
"244 598 OFFCURVE",
"273 598 CURVE SMOOTH",
"315 598 OFFCURVE",
"349 565 OFFCURVE",
"349 483 CURVE SMOOTH",
"349 425 OFFCURVE",
"325 371 OFFCURVE",
"235 371 CURVE SMOOTH",
"174 371 OFFCURVE",
"103 409 OFFCURVE",
"84 427 CURVE",
"30 330 LINE",
"75 289 OFFCURVE",
"162 248 OFFCURVE",
"254 248 CURVE SMOOTH",
"419 248 OFFCURVE",
"508 357 OFFCURVE",
"508 483 CURVE SMOOTH",
"508 633 OFFCURVE",
"423 725 OFFCURVE",
"282 725 CURVE SMOOTH",
"162 725 OFFCURVE",
"97 647 OFFCURVE",
"97 557 CURVE SMOOTH",
"97 460 OFFCURVE",
"159 409 OFFCURVE",
"344 357 CURVE SMOOTH",
"452 327 OFFCURVE",
"526 266 OFFCURVE",
"526 191 CURVE SMOOTH",
"526 154 OFFCURVE",
"503 137 OFFCURVE",
"471 137 CURVE SMOOTH",
"413 137 OFFCURVE",
"247 230 OFFCURVE",
"138 230 CURVE SMOOTH",
"51 230 OFFCURVE",
"10 164 OFFCURVE",
"10 76 CURVE SMOOTH",
"10 47 OFFCURVE",
"17 13 OFFCURVE",
"23 0 CURVE",
"133 0 LINE",
"126 60 OFFCURVE",
"133 83 OFFCURVE",
"175 83 CURVE SMOOTH",
"240 83 OFFCURVE",
"367 -9 OFFCURVE",
"462 -9 CURVE SMOOTH"
);
}
);
width = 683;
},
{
anchors = (
{
name = topright;
position = "{536, 606}";
}
);
layerId = "75F4F5E0-D5B2-4549-A21B-477AF2945BCD";
paths = (
{
closed = 1;
nodes = (
"564 -9 OFFCURVE",
"626 55 OFFCURVE",
"625 162 CURVE SMOOTH",
"625 330 OFFCURVE",
"451 416 OFFCURVE",
"356 450 CURVE SMOOTH",
"234 493 OFFCURVE",
"199 530 OFFCURVE",
"199 571 CURVE SMOOTH",
"199 610 OFFCURVE",
"225 631 OFFCURVE",
"259 631 CURVE SMOOTH",
"306 631 OFFCURVE",
"350 607 OFFCURVE",
"350 512 CURVE SMOOTH",
"350 434 OFFCURVE",
"315 368 OFFCURVE",
"216 368 CURVE SMOOTH",
"159 368 OFFCURVE",
"96 399 OFFCURVE",
"77 417 CURVE",
"40 358 LINE",
"74 324 OFFCURVE",
"143 280 OFFCURVE",
"230 280 CURVE SMOOTH",
"374 280 OFFCURVE",
"466 383 OFFCURVE",
"466 512 CURVE SMOOTH",
"466 652 OFFCURVE",
"385 725 OFFCURVE",
"272 725 CURVE SMOOTH",
"161 725 OFFCURVE",
"106 652 OFFCURVE",
"106 573 CURVE SMOOTH",
"106 491 OFFCURVE",
"154 437 OFFCURVE",
"327 374 CURVE SMOOTH",
"448 329 OFFCURVE",
"532 265 OFFCURVE",
"532 169 CURVE SMOOTH",
"532 118 OFFCURVE",
"508 95 OFFCURVE",
"476 95 CURVE SMOOTH",
"420 95 OFFCURVE",
"233 187 OFFCURVE",
"133 187 CURVE SMOOTH",
"55 187 OFFCURVE",
"23 130 OFFCURVE",
"23 69 CURVE SMOOTH",
"23 34 OFFCURVE",
"28 8 OFFCURVE",
"32 0 CURVE",
"103 0 LINE",
"100 51 OFFCURVE",
"107 83 OFFCURVE",
"149 83 CURVE SMOOTH",
"214 83 OFFCURVE",
"377 -9 OFFCURVE",
"467 -9 CURVE SMOOTH"
);
}
);
width = 652.08197;
},
{
anchors = (
{
name = topright;
position = "{560, 595}";
}
);
layerId = "3F80E263-2B21-4BD5-AA74-4B7BB1AD4533";
paths = (
{
closed = 1;
nodes = (
"572 -9 OFFCURVE",
"641 50 OFFCURVE",
"639 165 CURVE SMOOTH",
"637 330 OFFCURVE",
"468 421 OFFCURVE",
"371 450 CURVE SMOOTH",
"246 487 OFFCURVE",
"212 524 OFFCURVE",
"212 562 CURVE SMOOTH",
"212 597 OFFCURVE",
"234 615 OFFCURVE",
"266 615 CURVE SMOOTH",
"310 615 OFFCURVE",
"350 587 OFFCURVE",
"350 498 CURVE SMOOTH",
"350 430 OFFCURVE",
"320 369 OFFCURVE",
"225 369 CURVE SMOOTH",
"166 369 OFFCURVE",
"99 404 OFFCURVE",
"80 422 CURVE",
"35 344 LINE",
"74 307 OFFCURVE",
"152 264 OFFCURVE",
"242 264 CURVE SMOOTH",
"396 264 OFFCURVE",
"486 370 OFFCURVE",
"486 498 CURVE SMOOTH",
"486 643 OFFCURVE",
"404 725 OFFCURVE",
"277 725 CURVE SMOOTH",
"161 725 OFFCURVE",
"102 650 OFFCURVE",
"102 565 CURVE SMOOTH",
"102 476 OFFCURVE",
"156 423 OFFCURVE",
"335 366 CURVE SMOOTH",
"450 328 OFFCURVE",
"529 265 OFFCURVE",
"529 180 CURVE SMOOTH",
"529 136 OFFCURVE",
"506 115 OFFCURVE",
"474 115 CURVE SMOOTH",
"417 115 OFFCURVE",
"240 208 OFFCURVE",
"135 208 CURVE SMOOTH",
"53 208 OFFCURVE",
"17 147 OFFCURVE",
"17 72 CURVE SMOOTH",
"17 40 OFFCURVE",
"23 10 OFFCURVE",
"28 0 CURVE",
"118 0 LINE",
"113 55 OFFCURVE",
"120 83 OFFCURVE",
"162 83 CURVE SMOOTH",
"227 83 OFFCURVE",
"372 -9 OFFCURVE",
"465 -9 CURVE SMOOTH"
);
}
);
width = 667.16393;
}
);
unicode = 1057A;
script = vithkuqi;
category = Letter;
subCategory = Uppercase;
},
{
glyphname = "Ha-vit";
lastChange = "2021-11-03 06:54:48 +0000";
layers = (
{
layerId = UUID0;
paths = (
{
closed = 1;
nodes = (
"260 33 CURVE",
"302 -16 LINE",
"368 13 OFFCURVE",
"408 58 OFFCURVE",
"408 120 CURVE SMOOTH",
"408 279 OFFCURVE",
"183 391 OFFCURVE",
"183 553 CURVE SMOOTH",
"183 611 OFFCURVE",
"213 648 OFFCURVE",
"261 648 CURVE SMOOTH",
"307 648 OFFCURVE",
"335 620 OFFCURVE",
"335 551 CURVE SMOOTH",
"335 370 OFFCURVE",
"172 176 OFFCURVE",
"12 34 CURVE",
"66 -9 LINE",
"294 209 OFFCURVE",
"412 381 OFFCURVE",
"412 564 CURVE SMOOTH",
"412 689 OFFCURVE",
"341 726 OFFCURVE",
"259 726 CURVE SMOOTH",
"149 726 OFFCURVE",
"89 654 OFFCURVE",
"89 561 CURVE SMOOTH",
"89 361 OFFCURVE",
"318 234 OFFCURVE",
"318 120 CURVE SMOOTH",
"318 68 OFFCURVE",
"292 49 OFFCURVE"
);
}
);
width = 473;
},
{
layerId = "58AAA307-6DE9-4107-B80A-C255AE991657";
paths = (
{
closed = 1;
nodes = (
"237 64 CURVE",
"308 -15 LINE",
"410 8 OFFCURVE",
"467 69 OFFCURVE",
"467 153 CURVE SMOOTH",
"467 357 OFFCURVE",
"232 395 OFFCURVE",
"232 534 CURVE SMOOTH",
"232 574 OFFCURVE",
"252 599 OFFCURVE",
"288 599 CURVE SMOOTH",
"323 599 OFFCURVE",
"340 574 OFFCURVE",
"340 533 CURVE SMOOTH",
"340 382 OFFCURVE",
"144 195 OFFCURVE",
"7 80 CURVE",
"77 -9 LINE",
"252 118 OFFCURVE",
"468 329 OFFCURVE",
"468 539 CURVE SMOOTH",
"468 665 OFFCURVE",
"395 726 OFFCURVE",
"276 726 CURVE SMOOTH",
"149 726 OFFCURVE",
"73 641 OFFCURVE",
"73 534 CURVE SMOOTH",
"73 307 OFFCURVE",
"308 267 OFFCURVE",
"308 152 CURVE SMOOTH",
"308 100 OFFCURVE",
"268 75 OFFCURVE"
);
}
);
width = 533;
},
{
layerId = "75F4F5E0-D5B2-4549-A21B-477AF2945BCD";
paths = (
{
closed = 1;
nodes = (
"252 43 CURVE",
"304 -16 LINE",
"382 11 OFFCURVE",
"427 62 OFFCURVE",
"427 131 CURVE SMOOTH",
"427 305 OFFCURVE",
"199 392 OFFCURVE",
"199 547 CURVE SMOOTH",
"199 599 OFFCURVE",
"226 632 OFFCURVE",
"270 632 CURVE SMOOTH",
"312 632 OFFCURVE",
"337 605 OFFCURVE",
"337 545 CURVE SMOOTH",
"337 374 OFFCURVE",
"163 182 OFFCURVE",
"10 49 CURVE",
"70 -9 LINE",
"280 179 OFFCURVE",
"430 364 OFFCURVE",
"430 556 CURVE SMOOTH",
"430 681 OFFCURVE",
"359 726 OFFCURVE",
"265 726 CURVE SMOOTH",
"149 726 OFFCURVE",
"84 650 OFFCURVE",
"84 552 CURVE SMOOTH",
"84 343 OFFCURVE",
"315 245 OFFCURVE",
"315 130 CURVE SMOOTH",
"315 78 OFFCURVE",
"284 58 OFFCURVE"
);
}
);
width = 492.67213;
},
{
layerId = "3F80E263-2B21-4BD5-AA74-4B7BB1AD4533";
paths = (
{
closed = 1;
nodes = (
"245 53 CURVE",
"306 -16 LINE",
"396 10 OFFCURVE",
"447 65 OFFCURVE",
"447 142 CURVE SMOOTH",
"447 330 OFFCURVE",
"215 393 OFFCURVE",
"215 541 CURVE SMOOTH",
"215 587 OFFCURVE",
"239 616 OFFCURVE",
"279 616 CURVE SMOOTH",
"317 616 OFFCURVE",
"338 590 OFFCURVE",
"338 539 CURVE SMOOTH",
"338 378 OFFCURVE",
"154 188 OFFCURVE",
"9 64 CURVE",
"73 -9 LINE",
"266 149 OFFCURVE",
"449 347 OFFCURVE",
"449 548 CURVE SMOOTH",
"449 673 OFFCURVE",
"377 726 OFFCURVE",
"270 726 CURVE SMOOTH",
"149 726 OFFCURVE",
"79 646 OFFCURVE",
"79 543 CURVE SMOOTH",
"79 325 OFFCURVE",
"312 256 OFFCURVE",
"312 141 CURVE SMOOTH",
"312 89 OFFCURVE",
"276 66 OFFCURVE"
);
}
);
width = 512.34426;
}
);
unicode = 1057C;
script = vithkuqi;
category = Letter;
subCategory = Uppercase;
},
{
glyphname = "Hha-vit";
lastChange = "2021-11-03 06:54:48 +0000";
layers = (
{
layerId = UUID0;
paths = (
{
closed = 1;
nodes = (
"383 -11 OFFCURVE",
"448 20 OFFCURVE",
"485 94 CURVE",
"521 94 LINE",
"490 293 LINE",
"490 197 OFFCURVE",
"455 66 OFFCURVE",
"322 66 CURVE SMOOTH",
"212 66 OFFCURVE",
"160 162 OFFCURVE",
"160 357 CURVE SMOOTH",
"160 562 OFFCURVE",
"212 645 OFFCURVE",
"305 645 CURVE SMOOTH",
"351 645 OFFCURVE",
"381 622 OFFCURVE",
"381 575 CURVE SMOOTH",
"381 512 OFFCURVE",
"340 486 OFFCURVE",
"295 463 CURVE",
"340 408 LINE",
"423 455 OFFCURVE",
"458 509 OFFCURVE",
"458 575 CURVE SMOOTH",
"458 676 OFFCURVE",
"398 723 OFFCURVE",
"305 723 CURVE SMOOTH",
"169 723 OFFCURVE",
"65 603 OFFCURVE",
"65 357 CURVE SMOOTH",
"65 73 OFFCURVE",
"169 -11 OFFCURVE",
"311 -11 CURVE SMOOTH"
);
},
{
closed = 1;
nodes = (
"580 -240 LINE",
"585 -22 OFFCURVE",
"629 91 OFFCURVE",
"675 188 CURVE",
"658 254 LINE",
"640 237 OFFCURVE",
"616 186 OFFCURVE",
"593 126 CURVE",
"585 126 LINE",
"585 714 LINE",
"490 714 LINE",
"490 148 LINE",
"497 101 LINE",
"493 81 OFFCURVE",
"490 46 OFFCURVE",
"490 -6 CURVE SMOOTH",
"490 -240 LINE"
);
},
{
closed = 1;
nodes = (
"977 -10 OFFCURVE",
"1024 52 OFFCURVE",
"1059 109 CURVE",
"1009 154 LINE",
"977 108 OFFCURVE",
"942 68 OFFCURVE",
"874 68 CURVE SMOOTH",
"761 68 OFFCURVE",
"737 179 OFFCURVE",
"737 358 CURVE SMOOTH",
"737 558 OFFCURVE",
"775 646 OFFCURVE",
"864 646 CURVE SMOOTH",
"905 646 OFFCURVE",
"944 619 OFFCURVE",
"982 560 CURVE",
"1038 609 LINE",
"1006 667 OFFCURVE",
"960 724 OFFCURVE",
"865 724 CURVE SMOOTH",
"700 724 OFFCURVE",
"642 583 OFFCURVE",
"642 358 CURVE SMOOTH",
"642 111 OFFCURVE",
"690 -10 OFFCURVE",
"863 -10 CURVE SMOOTH"
);
}
);
width = 1069;
},
{
layerId = "58AAA307-6DE9-4107-B80A-C255AE991657";
paths = (
{
closed = 1;
nodes = (
"432 -10 OFFCURVE",
"476 37 OFFCURVE",
"514 106 CURVE",
"524 106 LINE",
"515 321 LINE",
"515 170 OFFCURVE",
"446 117 OFFCURVE",
"365 117 CURVE SMOOTH",
"272 117 OFFCURVE",
"217 188 OFFCURVE",
"217 356 CURVE SMOOTH",
"217 546 OFFCURVE",
"254 597 OFFCURVE",
"314 597 CURVE SMOOTH",
"340 597 OFFCURVE",
"356 581 OFFCURVE",
"356 556 CURVE SMOOTH",
"356 523 OFFCURVE",
"336 510 OFFCURVE",
"307 493 CURVE",
"372 409 LINE",
"434 439 OFFCURVE",
"484 497 OFFCURVE",
"484 574 CURVE SMOOTH",
"484 684 OFFCURVE",
"420 724 OFFCURVE",
"314 724 CURVE SMOOTH",
"174 724 OFFCURVE",
"58 614 OFFCURVE",
"58 359 CURVE SMOOTH",
"58 123 OFFCURVE",
"156 -10 OFFCURVE",
"328 -10 CURVE SMOOTH"
);
},
{
closed = 1;
nodes = (
"661 -240 LINE",
"666 -22 OFFCURVE",
"702 63 OFFCURVE",
"769 160 CURVE",
"744 260 LINE",
"726 243 OFFCURVE",
"697 192 OFFCURVE",
"674 132 CURVE",
"666 132 LINE",
"666 714 LINE",
"515 714 LINE",
"515 151 LINE",
"522 104 LINE",
"518 84 OFFCURVE",
"515 49 OFFCURVE",
"515 -3 CURVE SMOOTH",
"515 -240 LINE"
);
},
{
closed = 1;
nodes = (
"1040 -10 OFFCURVE",
"1111 28 OFFCURVE",
"1154 119 CURVE",
"1054 193 LINE",
"1038 152 OFFCURVE",
"1009 119 OFFCURVE",
"966 119 CURVE SMOOTH",
"890 119 OFFCURVE",
"861 179 OFFCURVE",
"861 370 CURVE SMOOTH",
"861 546 OFFCURVE",
"895 597 OFFCURVE",
"953 597 CURVE SMOOTH",
"994 597 OFFCURVE",
"1013 566 OFFCURVE",
"1033 532 CURVE",
"1133 610 LINE",
"1095 688 OFFCURVE",
"1038 724 OFFCURVE",
"953 724 CURVE SMOOTH",
"808 724 OFFCURVE",
"702 624 OFFCURVE",
"702 370 CURVE SMOOTH",
"702 75 OFFCURVE",
"815 -10 OFFCURVE",
"956 -10 CURVE SMOOTH"
);
}
);
width = 1154;
},
{
layerId = "75F4F5E0-D5B2-4549-A21B-477AF2945BCD";
paths = (
{
closed = 1;
nodes = (
"399 -11 OFFCURVE",
"457 26 OFFCURVE",
"495 98 CURVE",
"522 98 LINE",
"498 302 LINE",
"498 188 OFFCURVE",
"452 83 OFFCURVE",
"336 83 CURVE SMOOTH",
"232 83 OFFCURVE",
"179 171 OFFCURVE",
"179 357 CURVE SMOOTH",
"179 557 OFFCURVE",
"226 629 OFFCURVE",
"308 629 CURVE SMOOTH",
"347 629 OFFCURVE",
"373 609 OFFCURVE",
"373 569 CURVE SMOOTH",
"373 516 OFFCURVE",
"339 494 OFFCURVE",
"299 473 CURVE",
"350 408 LINE",
"427 450 OFFCURVE",
"467 505 OFFCURVE",
"467 575 CURVE SMOOTH",
"467 679 OFFCURVE",
"405 723 OFFCURVE",
"308 723 CURVE SMOOTH",
"171 723 OFFCURVE",
"63 607 OFFCURVE",
"63 358 CURVE SMOOTH",
"63 89 OFFCURVE",
"165 -11 OFFCURVE",
"317 -11 CURVE SMOOTH"
);
},
{
closed = 1;
nodes = (
"607 -240 LINE",
"612 -22 OFFCURVE",
"653 82 OFFCURVE",
"706 179 CURVE",
"686 256 LINE",
"668 239 OFFCURVE",
"643 188 OFFCURVE",
"620 128 CURVE",
"612 128 LINE",
"612 714 LINE",
"498 714 LINE",
"498 149 LINE",
"505 102 LINE",
"501 82 OFFCURVE",
"498 47 OFFCURVE",
"498 -5 CURVE SMOOTH",
"498 -240 LINE"
);
},
{
closed = 1;
nodes = (
"998 -10 OFFCURVE",
"1053 44 OFFCURVE",
"1090 112 CURVE",
"1024 167 LINE",
"997 122 OFFCURVE",
"964 85 OFFCURVE",
"904 85 CURVE SMOOTH",
"803 85 OFFCURVE",
"778 179 OFFCURVE",
"778 362 CURVE SMOOTH",
"778 554 OFFCURVE",
"814 630 OFFCURVE",
"893 630 CURVE SMOOTH",
"934 630 OFFCURVE",
"967 602 OFFCURVE",
"999 551 CURVE",
"1069 609 LINE",
"1035 674 OFFCURVE",
"986 724 OFFCURVE",
"894 724 CURVE SMOOTH",
"735 724 OFFCURVE",
"662 596 OFFCURVE",
"662 362 CURVE SMOOTH",
"662 99 OFFCURVE",
"731 -10 OFFCURVE",
"893 -10 CURVE SMOOTH"
);
}
);
width = 1096.86885;
},
{
layerId = "3F80E263-2B21-4BD5-AA74-4B7BB1AD4533";
paths = (
{
closed = 1;
nodes = (
"415 -11 OFFCURVE",
"466 31 OFFCURVE",
"504 102 CURVE",
"523 102 LINE",
"506 311 LINE",
"506 179 OFFCURVE",
"449 100 OFFCURVE",
"350 100 CURVE SMOOTH",
"252 100 OFFCURVE",
"198 179 OFFCURVE",
"198 357 CURVE SMOOTH",
"198 552 OFFCURVE",
"240 613 OFFCURVE",
"311 613 CURVE SMOOTH",
"344 613 OFFCURVE",
"365 595 OFFCURVE",
"365 563 CURVE SMOOTH",
"365 519 OFFCURVE",
"338 502 OFFCURVE",
"303 483 CURVE",
"361 408 LINE",
"430 445 OFFCURVE",
"475 501 OFFCURVE",
"475 575 CURVE SMOOTH",
"475 681 OFFCURVE",
"412 723 OFFCURVE",
"311 723 CURVE SMOOTH",
"172 723 OFFCURVE",
"61 610 OFFCURVE",
"61 358 CURVE SMOOTH",
"61 106 OFFCURVE",
"161 -11 OFFCURVE",
"322 -11 CURVE SMOOTH"
);
},
{
closed = 1;
nodes = (
"633 -240 LINE",
"638 -22 OFFCURVE",
"677 73 OFFCURVE",
"737 170 CURVE",
"714 258 LINE",
"696 241 OFFCURVE",
"669 190 OFFCURVE",
"646 130 CURVE",
"638 130 LINE",
"638 714 LINE",
"506 714 LINE",
"506 150 LINE",
"513 103 LINE",
"509 83 OFFCURVE",
"506 48 OFFCURVE",
"506 -4 CURVE SMOOTH",
"506 -240 LINE"
);
},
{
closed = 1;
nodes = (
"1018 -10 OFFCURVE",
"1081 36 OFFCURVE",
"1121 115 CURVE",
"1039 180 LINE",
"1017 137 OFFCURVE",
"986 102 OFFCURVE",
"934 102 CURVE SMOOTH",
"845 102 OFFCURVE",
"818 179 OFFCURVE",
"818 366 CURVE SMOOTH",
"818 550 OFFCURVE",
"854 614 OFFCURVE",
"922 614 CURVE SMOOTH",
"963 614 OFFCURVE",
"989 584 OFFCURVE",
"1016 542 CURVE",
"1100 609 LINE",
"1064 681 OFFCURVE",
"1011 724 OFFCURVE",
"923 724 CURVE SMOOTH",
"771 724 OFFCURVE",
"682 610 OFFCURVE",
"682 366 CURVE SMOOTH",
"682 87 OFFCURVE",
"772 -10 OFFCURVE",
"924 -10 CURVE SMOOTH"
);
}
);
width = 1124.7377;
}
);
leftKerningGroup = "Ka-vit";
unicode = 1057D;
script = vithkuqi;
category = Letter;
subCategory = Uppercase;
},
{
glyphname = "I-vit";
lastChange = "2021-11-03 06:54:48 +0000";
layers = (
{
anchors = (
{
name = top;
position = "{290, 714}";
}
);
layerId = UUID0;
paths = (
{
closed = 1;
nodes = (
"434 -10 OFFCURVE",
"542 73 OFFCURVE",
"542 216 CURVE SMOOTH",
"542 437 OFFCURVE",
"346 467 OFFCURVE",
"317 714 CURVE",
"252 714 LINE",
"237 530 OFFCURVE",
"125 443 OFFCURVE",
"10 395 CURVE",
"39 333 LINE",
"138 372 OFFCURVE",
"251 441 OFFCURVE",
"290 585 CURVE",
"268 591 LINE",
"308 424 OFFCURVE",
"447 385 OFFCURVE",
"447 216 CURVE SMOOTH",
"447 108 OFFCURVE",
"384 68 OFFCURVE",
"291 68 CURVE SMOOTH",
"210 68 OFFCURVE",
"157 101 OFFCURVE",
"115 157 CURVE",
"50 102 LINE",
"92 38 OFFCURVE",
"164 -10 OFFCURVE",
"291 -10 CURVE SMOOTH"
);
}
);
width = 592;
},
{
anchors = (
{
name = top;
position = "{340, 714}";
}
);
layerId = "58AAA307-6DE9-4107-B80A-C255AE991657";
paths = (
{
closed = 1;
nodes = (
"514 -10 OFFCURVE",
"626 64 OFFCURVE",
"626 228 CURVE SMOOTH",
"626 459 OFFCURVE",
"418 485 OFFCURVE",
"399 714 CURVE",
"287 714 LINE",
"273 550 OFFCURVE",
"149 458 OFFCURVE",
"15 408 CURVE",
"66 299 LINE",
"165 338 OFFCURVE",
"316 412 OFFCURVE",
"355 556 CURVE",
"295 536 LINE",
"335 375 OFFCURVE",
"467 367 OFFCURVE",
"467 228 CURVE SMOOTH",
"467 159 OFFCURVE",
"432 117 OFFCURVE",
"328 117 CURVE SMOOTH",
"245 117 OFFCURVE",
"184 143 OFFCURVE",
"145 199 CURVE",
"45 116 LINE",
"92 40 OFFCURVE",
"170 -10 OFFCURVE",
"326 -10 CURVE SMOOTH"
);
}
);
width = 671;
},
{
anchors = (
{
name = top;
position = "{306, 714}";
}
);
layerId = "75F4F5E0-D5B2-4549-A21B-477AF2945BCD";
paths = (
{
closed = 1;
nodes = (
"460 -10 OFFCURVE",
"570 70 OFFCURVE",
"570 220 CURVE SMOOTH",
"570 444 OFFCURVE",
"370 473 OFFCURVE",
"344 714 CURVE",
"263 714 LINE",
"249 537 OFFCURVE",
"133 448 OFFCURVE",
"12 399 CURVE",
"48 322 LINE",
"147 361 OFFCURVE",
"272 431 OFFCURVE",
"311 575 CURVE",
"277 573 LINE",
"317 408 OFFCURVE",
"454 379 OFFCURVE",
"454 220 CURVE SMOOTH",
"454 125 OFFCURVE",
"400 84 OFFCURVE",
"303 84 CURVE SMOOTH",
"221 84 OFFCURVE",
"166 115 OFFCURVE",
"125 171 CURVE",
"48 107 LINE",
"92 39 OFFCURVE",
"166 -10 OFFCURVE",
"302 -10 CURVE SMOOTH"
);
}
);
width = 617.90164;
},
{
anchors = (
{
name = top;
position = "{323, 714}";
}
);
layerId = "3F80E263-2B21-4BD5-AA74-4B7BB1AD4533";
paths = (
{
closed = 1;
nodes = (
"486 -10 OFFCURVE",
"597 67 OFFCURVE",
"597 224 CURVE SMOOTH",
"597 451 OFFCURVE",
"393 479 OFFCURVE",
"371 714 CURVE",
"275 714 LINE",
"261 543 OFFCURVE",
"141 453 OFFCURVE",
"13 403 CURVE",
"57 311 LINE",
"156 350 OFFCURVE",
"293 422 OFFCURVE",
"332 566 CURVE",
"286 555 LINE",
"326 392 OFFCURVE",
"460 373 OFFCURVE",
"460 224 CURVE SMOOTH",
"460 142 OFFCURVE",
"416 100 OFFCURVE",
"315 100 CURVE SMOOTH",
"233 100 OFFCURVE",
"175 129 OFFCURVE",
"135 185 CURVE",
"47 111 LINE",
"92 39 OFFCURVE",
"168 -10 OFFCURVE",
"314 -10 CURVE SMOOTH"
);
}
);
width = 643.80328;
}
);
rightKerningGroup = "I-vit";
unicode = 1057E;
script = vithkuqi;
category = Letter;
subCategory = Uppercase;
},
{
glyphname = "Ije-vit";
lastChange = "2021-11-03 06:54:48 +0000";
layers = (
{
anchors = (
{
name = _top;
position = "{284, 714}";
},
{
name = top;
position = "{284, 1029}";
}
);
components = (
{
name = "I-vit";
}
);
layerId = UUID0;
paths = (
{
closed = 1;
nodes = (
"339 744 OFFCURVE",
"371 771 OFFCURVE",
"371 813 CURVE SMOOTH",
"371 863 OFFCURVE",
"334 877 OFFCURVE",
"288 886 CURVE SMOOTH",
"265 891 OFFCURVE",
"256 894 OFFCURVE",
"256 905 CURVE SMOOTH",
"256 915 OFFCURVE",
"265 922 OFFCURVE",
"288 922 CURVE SMOOTH",
"308 922 OFFCURVE",
"335 916 OFFCURVE",
"354 910 CURVE",
"354 963 LINE",
"344 966 OFFCURVE",
"319 972 OFFCURVE",
"288 972 CURVE SMOOTH",
"238 972 OFFCURVE",
"201 946 OFFCURVE",
"201 902 CURVE SMOOTH",
"201 863 OFFCURVE",
"228 841 OFFCURVE",
"284 831 CURVE SMOOTH",
"304 827 OFFCURVE",
"315 825 OFFCURVE",
"315 810 CURVE SMOOTH",
"315 797 OFFCURVE",
"302 794 OFFCURVE",
"282 794 CURVE SMOOTH",
"260 794 OFFCURVE",
"224 803 OFFCURVE",
"204 813 CURVE",
"203 759 LINE",
"219 754 OFFCURVE",
"244 744 OFFCURVE",
"282 744 CURVE SMOOTH"
);
}
);
width = 592;
},
{
anchors = (
{
name = _top;
position = "{310, 714}";
},
{
name = top;
position = "{310, 1031}";
}
);
components = (
{
name = "I-vit";
}
);
layerId = "58AAA307-6DE9-4107-B80A-C255AE991657";
paths = (
{
closed = 1;
nodes = (
"376 744 OFFCURVE",
"414 768 OFFCURVE",
"414 816 CURVE SMOOTH",
"414 865 OFFCURVE",
"387 881 OFFCURVE",
"337 888 CURVE SMOOTH",
"299 893 OFFCURVE",
"295 894 OFFCURVE",
"295 902 CURVE SMOOTH",
"295 909 OFFCURVE",
"302 912 OFFCURVE",
"322 912 CURVE SMOOTH",
"350 912 OFFCURVE",
"368 910 OFFCURVE",
"399 903 CURVE",
"399 964 LINE",
"384 968 OFFCURVE",
"359 972 OFFCURVE",
"329 972 CURVE SMOOTH",
"259 972 OFFCURVE",
"231 943 OFFCURVE",
"231 899 CURVE SMOOTH",
"231 863 OFFCURVE",
"252 836 OFFCURVE",
"310 829 CURVE SMOOTH",
"340 825 OFFCURVE",
"350 824 OFFCURVE",
"350 815 CURVE SMOOTH",
"350 807 OFFCURVE",
"337 804 OFFCURVE",
"322 804 CURVE SMOOTH",
"288 804 OFFCURVE",
"256 813 OFFCURVE",
"235 822 CURVE",
"235 757 LINE",
"254 750 OFFCURVE",
"289 744 OFFCURVE",
"319 744 CURVE SMOOTH"
);
}
);
width = 671;
},
{
anchors = (
{
name = _top;
position = "{293, 714}";
},
{
name = top;
position = "{293, 1030}";
}
);
components = (
{
alignment = -1;
name = "I-vit";
}
);
layerId = "75F4F5E0-D5B2-4549-A21B-477AF2945BCD";
paths = (
{
closed = 1;
nodes = (
"351 744 OFFCURVE",
"385 770 OFFCURVE",
"385 814 CURVE SMOOTH",
"385 864 OFFCURVE",
"351 878 OFFCURVE",
"304 887 CURVE SMOOTH",
"276 892 OFFCURVE",
"269 894 OFFCURVE",
"269 904 CURVE SMOOTH",
"269 913 OFFCURVE",
"277 919 OFFCURVE",
"299 919 CURVE SMOOTH",
"322 919 OFFCURVE",
"346 914 OFFCURVE",
"369 908 CURVE",
"369 963 LINE",
"357 967 OFFCURVE",
"332 972 OFFCURVE",
"301 972 CURVE SMOOTH",
"245 972 OFFCURVE",
"211 945 OFFCURVE",
"211 901 CURVE SMOOTH",
"211 863 OFFCURVE",
"236 839 OFFCURVE",
"293 830 CURVE SMOOTH",
"316 826 OFFCURVE",
"326 825 OFFCURVE",
"326 812 CURVE SMOOTH",
"326 800 OFFCURVE",
"313 797 OFFCURVE",
"295 797 CURVE SMOOTH",
"269 797 OFFCURVE",
"234 806 OFFCURVE",
"214 816 CURVE",
"213 758 LINE",
"230 753 OFFCURVE",
"259 744 OFFCURVE",
"294 744 CURVE SMOOTH"
);
}
);
width = 617.90164;
},
{
anchors = (
{
name = _top;
position = "{301, 714}";
},
{
name = top;
position = "{301, 1030}";
}
);
components = (
{
alignment = -1;
name = "I-vit";
}
);
layerId = "3F80E263-2B21-4BD5-AA74-4B7BB1AD4533";
paths = (
{
closed = 1;
nodes = (
"363 744 OFFCURVE",
"399 769 OFFCURVE",
"399 815 CURVE SMOOTH",
"399 864 OFFCURVE",
"369 879 OFFCURVE",
"320 887 CURVE SMOOTH",
"287 892 OFFCURVE",
"282 894 OFFCURVE",
"282 903 CURVE SMOOTH",
"282 911 OFFCURVE",
"289 916 OFFCURVE",
"310 916 CURVE SMOOTH",
"336 916 OFFCURVE",
"357 912 OFFCURVE",
"384 906 CURVE",
"384 963 LINE",
"370 967 OFFCURVE",
"345 972 OFFCURVE",
"315 972 CURVE SMOOTH",
"252 972 OFFCURVE",
"221 944 OFFCURVE",
"221 900 CURVE SMOOTH",
"221 863 OFFCURVE",
"244 838 OFFCURVE",
"301 830 CURVE SMOOTH",
"328 826 OFFCURVE",
"338 825 OFFCURVE",
"338 813 CURVE SMOOTH",
"338 803 OFFCURVE",
"325 800 OFFCURVE",
"308 800 CURVE SMOOTH",
"278 800 OFFCURVE",
"245 809 OFFCURVE",
"224 819 CURVE",
"224 758 LINE",
"242 752 OFFCURVE",
"274 744 OFFCURVE",
"306 744 CURVE SMOOTH"
);
}
);
width = 643.80328;
}
);
leftMetricsKey = "I-vit";
rightKerningGroup = "I-vit";
rightMetricsKey = "I-vit";
unicode = 1057F;
script = vithkuqi;
category = Letter;
subCategory = Uppercase;
},
{
glyphname = "Je-vit";
lastChange = "2021-11-03 06:54:48 +0000";
layers = (
{
layerId = UUID0;
paths = (
{
closed = 1;
nodes = (
"636 -251 OFFCURVE",
"650 -250 OFFCURVE",
"676 -247 CURVE",
"676 -187 LINE",
"657 -187 LINE SMOOTH",
"585 -187 OFFCURVE",
"574 -127 OFFCURVE",
"574 -47 CURVE SMOOTH",
"574 226 LINE SMOOTH",
"574 389 OFFCURVE",
"467 450 OFFCURVE",
"316 450 CURVE SMOOTH",
"133 450 OFFCURVE",
"20 330 OFFCURVE",
"20 184 CURVE SMOOTH",
"20 91 OFFCURVE",
"65 45 OFFCURVE",
"138 45 CURVE SMOOTH",
"201 45 OFFCURVE",
"248 93 OFFCURVE",
"248 159 CURVE SMOOTH",
"248 565 LINE SMOOTH",
"248 615 OFFCURVE",
"271 647 OFFCURVE",
"336 647 CURVE SMOOTH",
"370 647 OFFCURVE",
"394 630 OFFCURVE",
"423 594 CURVE",
"480 651 LINE",
"458 681 OFFCURVE",
"421 725 OFFCURVE",
"336 725 CURVE SMOOTH",
"234 725 OFFCURVE",
"171 673 OFFCURVE",
"171 573 CURVE SMOOTH",
"171 161 LINE SMOOTH",
"171 138 OFFCURVE",
"160 123 OFFCURVE",
"138 123 CURVE SMOOTH",
"114 123 OFFCURVE",
"98 146 OFFCURVE",
"98 184 CURVE SMOOTH",
"98 307 OFFCURVE",
"172 372 OFFCURVE",
"316 372 CURVE SMOOTH",
"428 372 OFFCURVE",
"484 316 OFFCURVE",
"484 232 CURVE SMOOTH",
"484 -64 LINE SMOOTH",
"484 -187 OFFCURVE",
"523 -251 OFFCURVE",
"617 -251 CURVE SMOOTH"
);
},
{
closed = 1;
nodes = (
"387 476 LINE",
"387 555 LINE",
"64 555 LINE",
"64 476 LINE"
);
}
);
width = 681;
},
{
layerId = "58AAA307-6DE9-4107-B80A-C255AE991657";
paths = (
{
closed = 1;
nodes = (
"681 -256 OFFCURVE",
"713 -255 OFFCURVE",
"732 -253 CURVE",
"732 -138 LINE",
"718 -138 LINE SMOOTH",
"679 -138 OFFCURVE",
"660 -107 OFFCURVE",
"660 -72 CURVE SMOOTH",
"661 142 LINE SMOOTH",
"662 292 OFFCURVE",
"579 397 OFFCURVE",
"351 397 CURVE SMOOTH",
"160 397 OFFCURVE",
"20 295 OFFCURVE",
"20 148 CURVE SMOOTH",
"20 55 OFFCURVE",
"65 -25 OFFCURVE",
"186 -25 CURVE SMOOTH",
"303 -25 OFFCURVE",
"352 59 OFFCURVE",
"352 161 CURVE SMOOTH",
"352 518 LINE SMOOTH",
"352 578 OFFCURVE",
"377 598 OFFCURVE",
"418 598 CURVE SMOOTH",
"457 598 OFFCURVE",
"481 578 OFFCURVE",
"509 533 CURVE",
"606 620 LINE",
"565 680 OFFCURVE",
"517 725 OFFCURVE",
"418 725 CURVE SMOOTH",
"322 725 OFFCURVE",
"226 671 OFFCURVE",
"226 534 CURVE SMOOTH",
"226 165 LINE SMOOTH",
"226 117 OFFCURVE",
"211 102 OFFCURVE",
"186 102 CURVE SMOOTH",
"165 102 OFFCURVE",
"147 116 OFFCURVE",
"147 148 CURVE SMOOTH",
"147 203 OFFCURVE",
"192 270 OFFCURVE",
"351 270 CURVE SMOOTH",
"465 270 OFFCURVE",
"508 208 OFFCURVE",
"508 135 CURVE SMOOTH",
"509 -90 LINE SMOOTH",
"509 -187 OFFCURVE",
"556 -256 OFFCURVE",
"662 -256 CURVE SMOOTH"
);
},
{
closed = 1;
nodes = (
"463 420 LINE",
"463 546 LINE",
"120 546 LINE",
"120 420 LINE"
);
}
);
width = 732;
},
{
layerId = "75F4F5E0-D5B2-4549-A21B-477AF2945BCD";
paths = (
{
closed = 1;
nodes = (
"651 -253 OFFCURVE",
"671 -252 OFFCURVE",
"694 -249 CURVE",
"694 -171 LINE",
"677 -171 LINE SMOOTH",
"616 -171 OFFCURVE",
"602 -120 OFFCURVE",
"602 -55 CURVE SMOOTH",
"603 198 LINE SMOOTH",
"603 357 OFFCURVE",
"504 433 OFFCURVE",
"327 433 CURVE SMOOTH",
"142 433 OFFCURVE",
"20 319 OFFCURVE",
"20 172 CURVE SMOOTH",
"20 79 OFFCURVE",
"65 22 OFFCURVE",
"154 22 CURVE SMOOTH",
"234 22 OFFCURVE",
"282 82 OFFCURVE",
"282 160 CURVE SMOOTH",
"282 550 LINE SMOOTH",
"282 603 OFFCURVE",
"306 631 OFFCURVE",
"363 631 CURVE SMOOTH",
"399 631 OFFCURVE",
"423 613 OFFCURVE",
"451 574 CURVE",
"521 641 LINE",
"493 681 OFFCURVE",
"452 725 OFFCURVE",
"363 725 CURVE SMOOTH",
"263 725 OFFCURVE",
"189 672 OFFCURVE",
"189 560 CURVE SMOOTH",
"189 162 LINE SMOOTH",
"189 131 OFFCURVE",
"177 116 OFFCURVE",
"154 116 CURVE SMOOTH",
"131 116 OFFCURVE",
"114 136 OFFCURVE",
"114 172 CURVE SMOOTH",
"114 273 OFFCURVE",
"179 339 OFFCURVE",
"327 339 CURVE SMOOTH",
"440 339 OFFCURVE",
"492 281 OFFCURVE",
"492 200 CURVE SMOOTH",
"492 -73 LINE SMOOTH",
"492 -187 OFFCURVE",
"534 -253 OFFCURVE",
"632 -253 CURVE SMOOTH"
);
},
{
closed = 1;
nodes = (
"412 458 LINE",
"412 552 LINE",
"82 552 LINE",
"82 458 LINE"
);
}
);
width = 697.72131;
},
{
layerId = "3F80E263-2B21-4BD5-AA74-4B7BB1AD4533";
paths = (
{
closed = 1;
nodes = (
"666 -254 OFFCURVE",
"691 -253 OFFCURVE",
"713 -251 CURVE",
"713 -155 LINE",
"697 -155 LINE SMOOTH",
"647 -155 OFFCURVE",
"630 -114 OFFCURVE",
"630 -63 CURVE SMOOTH",
"631 171 LINE SMOOTH",
"632 325 OFFCURVE",
"541 415 OFFCURVE",
"339 415 CURVE SMOOTH",
"151 415 OFFCURVE",
"20 307 OFFCURVE",
"20 160 CURVE SMOOTH",
"20 67 OFFCURVE",
"65 -1 OFFCURVE",
"170 -1 CURVE SMOOTH",
"268 -1 OFFCURVE",
"316 71 OFFCURVE",
"316 160 CURVE SMOOTH",
"316 534 LINE SMOOTH",
"316 591 OFFCURVE",
"341 615 OFFCURVE",
"390 615 CURVE SMOOTH",
"427 615 OFFCURVE",
"451 596 OFFCURVE",
"479 554 CURVE",
"562 631 LINE",
"528 681 OFFCURVE",
"484 725 OFFCURVE",
"390 725 CURVE SMOOTH",
"292 725 OFFCURVE",
"207 672 OFFCURVE",
"207 547 CURVE SMOOTH",
"207 163 LINE SMOOTH",
"207 124 OFFCURVE",
"194 109 OFFCURVE",
"170 109 CURVE SMOOTH",
"148 109 OFFCURVE",
"130 126 OFFCURVE",
"130 160 CURVE SMOOTH",
"130 239 OFFCURVE",
"185 305 OFFCURVE",
"339 305 CURVE SMOOTH",
"452 305 OFFCURVE",
"500 245 OFFCURVE",
"500 168 CURVE SMOOTH",
"500 -81 LINE SMOOTH",
"500 -187 OFFCURVE",
"545 -254 OFFCURVE",
"647 -254 CURVE SMOOTH"
);
},
{
closed = 1;
nodes = (
"437 439 LINE",
"437 549 LINE",
"101 549 LINE",
"101 439 LINE"
);
}
);
width = 714.44262;
}
);
leftKerningGroup = "Bbe-vit";
leftMetricsKey = "Bbe-vit";
rightKerningGroup = "Bbe-vit";
rightMetricsKey = "Bbe-vit";
unicode = 10580;
script = vithkuqi;
category = Letter;
subCategory = Uppercase;
},
{
glyphname = "Ka-vit";
lastChange = "2021-11-03 06:54:48 +0000";
layers = (
{
anchors = (
{
name = topright;
position = "{769, 714}";
}
);
layerId = UUID0;
paths = (
{
closed = 1;
nodes = (
"470 -9 OFFCURVE",
"544 13 OFFCURVE",
"598 50 CURVE",
"677 102 OFFCURVE",
"716 185 OFFCURVE",
"716 276 CURVE SMOOTH",
"716 394 OFFCURVE",
"660 429 OFFCURVE",
"581 429 CURVE SMOOTH",
"466 429 OFFCURVE",
"425 351 OFFCURVE",
"425 253 CURVE SMOOTH",
"425 176 OFFCURVE",
"460 98 OFFCURVE",
"528 48 CURVE",
"571 14 OFFCURVE",
"630 -7 OFFCURVE",
"701 -7 CURVE SMOOTH",
"741 -7 OFFCURVE",
"778 2 OFFCURVE",
"800 9 CURVE",
"800 74 LINE",
"779 71 OFFCURVE",
"738 68 OFFCURVE",
"701 68 CURVE SMOOTH",
"663 68 OFFCURVE",
"631 78 OFFCURVE",
"605 95 CURVE",
"547 132 OFFCURVE",
"520 202 OFFCURVE",
"520 253 CURVE SMOOTH",
"520 324 OFFCURVE",
"546 351 OFFCURVE",
"581 351 CURVE SMOOTH",
"611 351 OFFCURVE",
"639 336 OFFCURVE",
"639 276 CURVE SMOOTH",
"639 194 OFFCURVE",
"609 128 OFFCURVE",
"534 93 CURVE",
"497 76 OFFCURVE",
"450 67 OFFCURVE",
"390 67 CURVE SMOOTH",
"224 67 OFFCURVE",
"155 154 OFFCURVE",
"155 355 CURVE SMOOTH",
"155 539 OFFCURVE",
"223 648 OFFCURVE",
"363 648 CURVE SMOOTH",
"417 648 OFFCURVE",
"482 629 OFFCURVE",
"482 567 CURVE SMOOTH",
"482 523 OFFCURVE",
"454 488 OFFCURVE",
"392 488 CURVE SMOOTH",
"346 488 OFFCURVE",
"310 513 OFFCURVE",
"288 535 CURVE",
"253 474 LINE",
"279 444 OFFCURVE",
"333 416 OFFCURVE",
"392 416 CURVE SMOOTH",
"492 416 OFFCURVE",
"559 463 OFFCURVE",
"559 567 CURVE SMOOTH",
"559 680 OFFCURVE",
"469 726 OFFCURVE",
"363 726 CURVE SMOOTH",
"193 726 OFFCURVE",
"60 600 OFFCURVE",
"60 357 CURVE SMOOTH",
"60 97 OFFCURVE",
"165 -11 OFFCURVE",
"376 -10 CURVE SMOOTH"
);
}
);
width = 800;
},
{
anchors = (
{
name = topright;
position = "{745, 714}";
}
);
layerId = "58AAA307-6DE9-4107-B80A-C255AE991657";
paths = (
{
closed = 1;
nodes = (
"517 -10 OFFCURVE",
"621 12 OFFCURVE",
"681 79 CURVE",
"738 109 OFFCURVE",
"794 170 OFFCURVE",
"794 253 CURVE SMOOTH",
"794 371 OFFCURVE",
"726 429 OFFCURVE",
"622 429 CURVE SMOOTH",
"498 429 OFFCURVE",
"421 364 OFFCURVE",
"421 248 CURVE SMOOTH",
"421 161 OFFCURVE",
"469 93 OFFCURVE",
"569 68 CURVE",
"621 15 OFFCURVE",
"705 -7 OFFCURVE",
"772 -7 CURVE SMOOTH",
"809 -7 OFFCURVE",
"871 0 OFFCURVE",
"894 9 CURVE",
"894 126 LINE",
"878 123 OFFCURVE",
"828 120 OFFCURVE",
"772 120 CURVE SMOOTH",
"732 120 OFFCURVE",
"699 125 OFFCURVE",
"663 128 CURVE",
"607 154 OFFCURVE",
"577 196 OFFCURVE",
"577 248 CURVE SMOOTH",
"577 283 OFFCURVE",
"592 302 OFFCURVE",
"622 302 CURVE SMOOTH",
"647 302 OFFCURVE",
"665 288 OFFCURVE",
"665 253 CURVE SMOOTH",
"665 208 OFFCURVE",
"650 168 OFFCURVE",
"597 137 CURVE",
"555 129 OFFCURVE",
"495 120 OFFCURVE",
"418 120 CURVE SMOOTH",
"268 120 OFFCURVE",
"217 204 OFFCURVE",
"217 355 CURVE SMOOTH",
"217 540 OFFCURVE",
"290 607 OFFCURVE",
"398 607 CURVE SMOOTH",
"446 607 OFFCURVE",
"485 590 OFFCURVE",
"485 563 CURVE SMOOTH",
"485 536 OFFCURVE",
"458 518 OFFCURVE",
"415 518 CURVE SMOOTH",
"371 518 OFFCURVE",
"332 536 OFFCURVE",
"310 554 CURVE",
"254 461 LINE",
"289 429 OFFCURVE",
"342 406 OFFCURVE",
"415 406 CURVE SMOOTH",
"522 406 OFFCURVE",
"613 461 OFFCURVE",
"613 563 CURVE SMOOTH",
"613 671 OFFCURVE",
"539 726 OFFCURVE",
"387 726 CURVE SMOOTH",
"160 726 OFFCURVE",
"58 576 OFFCURVE",
"58 357 CURVE SMOOTH",
"58 137 OFFCURVE",
"155 -10 OFFCURVE",
"395 -10 CURVE SMOOTH"
);
}
);
width = 899;
},
{
anchors = (
{
name = topright;
position = "{761, 714}";
}
);
layerId = "75F4F5E0-D5B2-4549-A21B-477AF2945BCD";
paths = (
{
closed = 1;
nodes = (
"485 -9 OFFCURVE",
"569 13 OFFCURVE",
"625 60 CURVE",
"697 104 OFFCURVE",
"742 180 OFFCURVE",
"742 268 CURVE SMOOTH",
"742 386 OFFCURVE",
"682 429 OFFCURVE",
"594 429 CURVE SMOOTH",
"476 429 OFFCURVE",
"424 355 OFFCURVE",
"424 251 CURVE SMOOTH",
"424 171 OFFCURVE",
"463 96 OFFCURVE",
"541 55 CURVE",
"587 14 OFFCURVE",
"655 -7 OFFCURVE",
"724 -7 CURVE SMOOTH",
"763 -7 OFFCURVE",
"808 1 OFFCURVE",
"831 9 CURVE",
"831 91 LINE",
"811 88 OFFCURVE",
"768 85 OFFCURVE",
"724 85 CURVE SMOOTH",
"686 85 OFFCURVE",
"653 93 OFFCURVE",
"624 106 CURVE",
"567 139 OFFCURVE",
"539 200 OFFCURVE",
"539 251 CURVE SMOOTH",
"539 311 OFFCURVE",
"561 335 OFFCURVE",
"594 335 CURVE SMOOTH",
"623 335 OFFCURVE",
"648 320 OFFCURVE",
"648 268 CURVE SMOOTH",
"648 199 OFFCURVE",
"622 141 OFFCURVE",
"555 107 CURVE",
"516 93 OFFCURVE",
"465 84 OFFCURVE",
"399 84 CURVE SMOOTH",
"238 84 OFFCURVE",
"175 170 OFFCURVE",
"175 355 CURVE SMOOTH",
"175 539 OFFCURVE",
"245 635 OFFCURVE",
"374 635 CURVE SMOOTH",
"427 635 OFFCURVE",
"483 616 OFFCURVE",
"483 566 CURVE SMOOTH",
"483 527 OFFCURVE",
"455 498 OFFCURVE",
"400 498 CURVE SMOOTH",
"354 498 OFFCURVE",
"317 521 OFFCURVE",
"295 541 CURVE",
"253 470 LINE",
"282 439 OFFCURVE",
"336 413 OFFCURVE",
"400 413 CURVE SMOOTH",
"502 413 OFFCURVE",
"577 462 OFFCURVE",
"577 566 CURVE SMOOTH",
"577 677 OFFCURVE",
"492 726 OFFCURVE",
"371 726 CURVE SMOOTH",
"182 726 OFFCURVE",
"59 592 OFFCURVE",
"59 357 CURVE SMOOTH",
"59 110 OFFCURVE",
"162 -11 OFFCURVE",
"382 -10 CURVE SMOOTH"
);
}
);
width = 832.45902;
},
{
anchors = (
{
name = topright;
position = "{753, 714}";
}
);
layerId = "3F80E263-2B21-4BD5-AA74-4B7BB1AD4533";
paths = (
{
closed = 1;
nodes = (
"501 -9 OFFCURVE",
"594 13 OFFCURVE",
"652 69 CURVE",
"717 106 OFFCURVE",
"767 175 OFFCURVE",
"767 261 CURVE SMOOTH",
"767 379 OFFCURVE",
"703 429 OFFCURVE",
"608 429 CURVE SMOOTH",
"487 429 OFFCURVE",
"423 359 OFFCURVE",
"423 250 CURVE SMOOTH",
"423 166 OFFCURVE",
"466 95 OFFCURVE",
"555 61 CURVE",
"604 14 OFFCURVE",
"679 -7 OFFCURVE",
"747 -7 CURVE SMOOTH",
"785 -7 OFFCURVE",
"839 1 OFFCURVE",
"862 9 CURVE",
"862 108 LINE",
"844 105 OFFCURVE",
"797 102 OFFCURVE",
"747 102 CURVE SMOOTH",
"708 102 OFFCURVE",
"675 109 OFFCURVE",
"643 117 CURVE",
"587 146 OFFCURVE",
"558 198 OFFCURVE",
"558 250 CURVE SMOOTH",
"558 297 OFFCURVE",
"576 319 OFFCURVE",
"608 319 CURVE SMOOTH",
"635 319 OFFCURVE",
"656 304 OFFCURVE",
"656 261 CURVE SMOOTH",
"656 203 OFFCURVE",
"636 154 OFFCURVE",
"575 122 CURVE",
"535 111 OFFCURVE",
"480 102 OFFCURVE",
"408 102 CURVE SMOOTH",
"253 102 OFFCURVE",
"195 187 OFFCURVE",
"195 355 CURVE SMOOTH",
"195 539 OFFCURVE",
"267 621 OFFCURVE",
"386 621 CURVE SMOOTH",
"436 621 OFFCURVE",
"484 603 OFFCURVE",
"484 565 CURVE SMOOTH",
"484 531 OFFCURVE",
"456 508 OFFCURVE",
"407 508 CURVE SMOOTH",
"362 508 OFFCURVE",
"324 528 OFFCURVE",
"302 547 CURVE",
"253 466 LINE",
"285 434 OFFCURVE",
"339 410 OFFCURVE",
"407 410 CURVE SMOOTH",
"512 410 OFFCURVE",
"595 462 OFFCURVE",
"595 565 CURVE SMOOTH",
"595 674 OFFCURVE",
"515 726 OFFCURVE",
"379 726 CURVE SMOOTH",
"171 726 OFFCURVE",
"59 584 OFFCURVE",
"59 357 CURVE SMOOTH",
"59 123 OFFCURVE",
"159 -11 OFFCURVE",
"388 -10 CURVE SMOOTH"
);
}
);
width = 864.91803;
}
);
leftKerningGroup = "Ka-vit";
rightKerningGroup = "Ka-vit";
unicode = 10581;
script = vithkuqi;
category = Letter;
subCategory = Uppercase;
},
{
glyphname = "La-vit";
lastChange = "2021-11-03 06:54:48 +0000";
layers = (
{
layerId = UUID0;
paths = (
{
closed = 1;
nodes = (
"297 0 LINE",
"402 115 OFFCURVE",
"487 197 OFFCURVE",
"487 451 CURVE SMOOTH",
"487 542 OFFCURVE",
"471 630 OFFCURVE",
"473 724 CURVE SMOOTH",
"473 760 OFFCURVE",
"490 790 OFFCURVE",
"521 790 CURVE SMOOTH",
"544 790 OFFCURVE",
"553 777 OFFCURVE",
"553 759 CURVE SMOOTH",
"553 731 OFFCURVE",
"533 700 OFFCURVE",
"485 700 CURVE SMOOTH",
"411 700 OFFCURVE",
"290 862 OFFCURVE",
"159 862 CURVE SMOOTH",
"108 862 OFFCURVE",
"71 840 OFFCURVE",
"47 811 CURVE",
"82 758 LINE",
"108 776 OFFCURVE",
"133 781 OFFCURVE",
"156 781 CURVE SMOOTH",
"254 781 OFFCURVE",
"369 637 OFFCURVE",
"472 637 CURVE SMOOTH",
"571 637 OFFCURVE",
"629 690 OFFCURVE",
"630 763 CURVE SMOOTH",
"631 826 OFFCURVE",
"588 863 OFFCURVE",
"521 863 CURVE SMOOTH",
"449 863 OFFCURVE",
"396 806 OFFCURVE",
"396 732 CURVE SMOOTH",
"394 643 OFFCURVE",
"410 532 OFFCURVE",
"410 451 CURVE SMOOTH",
"410 260 OFFCURVE",
"380 197 OFFCURVE",
"283 82 CURVE",
"299 76 LINE",
"312 517 OFFCURVE",
"294 726 OFFCURVE",
"125 726 CURVE SMOOTH",
"74 726 OFFCURVE",
"35 702 OFFCURVE",
"4 663 CURVE",
"36 622 LINE",
"53 639 OFFCURVE",
"72 649 OFFCURVE",
"91 649 CURVE SMOOTH",
"196 649 OFFCURVE",
"220 466 OFFCURVE",
"209 0 CURVE"
);
}
);
width = 634;
},
{
layerId = "58AAA307-6DE9-4107-B80A-C255AE991657";
paths = (
{
closed = 1;
nodes = (
"376 0 LINE",
"470 115 OFFCURVE",
"548 197 OFFCURVE",
"546 381 CURVE",
"546 472 OFFCURVE",
"495 552 OFFCURVE",
"495 638 CURVE SMOOTH",
"495 697 OFFCURVE",
"521 728 OFFCURVE",
"554 728 CURVE SMOOTH",
"573 728 OFFCURVE",
"585 716 OFFCURVE",
"585 698 CURVE SMOOTH",
"585 676 OFFCURVE",
"558 664 OFFCURVE",
"528 665 CURVE SMOOTH",
"435 669 OFFCURVE",
"308 855 OFFCURVE",
"142 855 CURVE SMOOTH",
"92 855 OFFCURVE",
"49 829 OFFCURVE",
"31 796 CURVE",
"93 688 LINE",
"110 701 OFFCURVE",
"125 712 OFFCURVE",
"150 712 CURVE SMOOTH",
"274 712 OFFCURVE",
"352 556 OFFCURVE",
"528 554 CURVE SMOOTH",
"632 553 OFFCURVE",
"703 625 OFFCURVE",
"705 707 CURVE SMOOTH",
"707 780 OFFCURVE",
"670 855 OFFCURVE",
"555 855 CURVE SMOOTH",
"472 855 OFFCURVE",
"376 786 OFFCURVE",
"376 667 CURVE SMOOTH",
"376 614 OFFCURVE",
"428 462 OFFCURVE",
"428 381 CURVE SMOOTH",
"428 253 OFFCURVE",
"409 183 OFFCURVE",
"313 79 CURVE",
"354 24 LINE",
"348 429 OFFCURVE",
"313 678 OFFCURVE",
"147 678 CURVE SMOOTH",
"94 678 OFFCURVE",
"41 650 OFFCURVE",
"10 623 CURVE",
"51 513 LINE",
"64 522 OFFCURVE",
"74 525 OFFCURVE",
"91 525 CURVE SMOOTH",
"150 525 OFFCURVE",
"195 442 OFFCURVE",
"211 0 CURVE"
);
}
);
width = 640;
},
{
layerId = "75F4F5E0-D5B2-4549-A21B-477AF2945BCD";
paths = (
{
closed = 1;
nodes = (
"323 0 LINE",
"424 115 OFFCURVE",
"507 197 OFFCURVE",
"506 428 CURVE SMOOTH",
"506 519 OFFCURVE",
"479 604 OFFCURVE",
"480 696 CURVE SMOOTH",
"480 739 OFFCURVE",
"500 770 OFFCURVE",
"532 770 CURVE SMOOTH",
"554 770 OFFCURVE",
"563 757 OFFCURVE",
"563 739 CURVE SMOOTH",
"563 713 OFFCURVE",
"541 688 OFFCURVE",
"499 689 CURVE SMOOTH",
"419 690 OFFCURVE",
"296 860 OFFCURVE",
"153 860 CURVE SMOOTH",
"103 860 OFFCURVE",
"64 836 OFFCURVE",
"42 806 CURVE",
"86 735 LINE",
"109 751 OFFCURVE",
"130 758 OFFCURVE",
"154 758 CURVE SMOOTH",
"261 758 OFFCURVE",
"363 610 OFFCURVE",
"490 610 CURVE SMOOTH",
"591 609 OFFCURVE",
"653 669 OFFCURVE",
"655 745 CURVE SMOOTH",
"656 811 OFFCURVE",
"615 860 OFFCURVE",
"532 860 CURVE SMOOTH",
"457 860 OFFCURVE",
"389 799 OFFCURVE",
"389 711 CURVE SMOOTH",
"388 633 OFFCURVE",
"416 509 OFFCURVE",
"416 428 CURVE SMOOTH",
"416 258 OFFCURVE",
"390 192 OFFCURVE",
"293 81 CURVE",
"317 59 LINE",
"324 488 OFFCURVE",
"300 710 OFFCURVE",
"132 710 CURVE SMOOTH",
"81 710 OFFCURVE",
"37 685 OFFCURVE",
"6 650 CURVE",
"41 586 LINE",
"57 601 OFFCURVE",
"73 608 OFFCURVE",
"91 608 CURVE SMOOTH",
"181 608 OFFCURVE",
"212 458 OFFCURVE",
"210 0 CURVE"
);
}
);
width = 635.96721;
},
{
layerId = "3F80E263-2B21-4BD5-AA74-4B7BB1AD4533";
paths = (
{
closed = 1;
nodes = (
"349 0 LINE",
"446 115 OFFCURVE",
"527 197 OFFCURVE",
"526 405 CURVE",
"526 496 OFFCURVE",
"487 579 OFFCURVE",
"487 668 CURVE SMOOTH",
"487 719 OFFCURVE",
"510 750 OFFCURVE",
"543 750 CURVE SMOOTH",
"563 750 OFFCURVE",
"574 737 OFFCURVE",
"574 719 CURVE SMOOTH",
"574 695 OFFCURVE",
"549 676 OFFCURVE",
"513 677 CURVE SMOOTH",
"427 680 OFFCURVE",
"302 858 OFFCURVE",
"148 858 CURVE SMOOTH",
"98 858 OFFCURVE",
"57 833 OFFCURVE",
"37 801 CURVE",
"89 712 LINE",
"109 727 OFFCURVE",
"128 736 OFFCURVE",
"152 736 CURVE SMOOTH",
"267 736 OFFCURVE",
"358 584 OFFCURVE",
"509 583 CURVE SMOOTH",
"611 582 OFFCURVE",
"677 648 OFFCURVE",
"679 726 CURVE SMOOTH",
"681 796 OFFCURVE",
"642 858 OFFCURVE",
"543 858 CURVE SMOOTH",
"464 858 OFFCURVE",
"383 793 OFFCURVE",
"383 690 CURVE SMOOTH",
"382 624 OFFCURVE",
"422 486 OFFCURVE",
"422 405 CURVE SMOOTH",
"422 256 OFFCURVE",
"399 188 OFFCURVE",
"303 80 CURVE",
"335 42 LINE",
"336 459 OFFCURVE",
"306 694 OFFCURVE",
"139 694 CURVE SMOOTH",
"87 694 OFFCURVE",
"39 668 OFFCURVE",
"8 637 CURVE",
"46 550 LINE",
"60 562 OFFCURVE",
"73 568 OFFCURVE",
"91 568 CURVE SMOOTH",
"166 568 OFFCURVE",
"204 450 OFFCURVE",
"210 0 CURVE"
);
}
);
width = 637.93443;
}
);
leftKerningGroup = "Lla-vit";
unicode = 10582;
script = vithkuqi;
category = Letter;
subCategory = Uppercase;
},
{
glyphname = "Lla-vit";
lastChange = "2021-11-03 06:54:48 +0000";
layers = (
{
layerId = UUID0;
paths = (
{
closed = 1;
nodes = (
"297 0 LINE",
"402 115 OFFCURVE",
"487 197 OFFCURVE",
"487 451 CURVE SMOOTH",
"487 542 OFFCURVE",
"471 630 OFFCURVE",
"471 706 CURVE SMOOTH",
"471 749 OFFCURVE",
"492 774 OFFCURVE",
"528 774 CURVE SMOOTH",
"562 774 OFFCURVE",
"587 761 OFFCURVE",
"618 735 CURVE",
"656 795 LINE",
"634 817 OFFCURVE",
"605 854 OFFCURVE",
"531 854 CURVE SMOOTH",
"456 854 OFFCURVE",
"394 802 OFFCURVE",
"394 706 CURVE SMOOTH",
"394 643 OFFCURVE",
"410 532 OFFCURVE",
"410 451 CURVE SMOOTH",
"410 260 OFFCURVE",
"380 197 OFFCURVE",
"283 82 CURVE",
"299 76 LINE",
"312 517 OFFCURVE",
"294 726 OFFCURVE",
"124 726 CURVE SMOOTH",
"73 726 OFFCURVE",
"37 700 OFFCURVE",
"4 663 CURVE",
"36 622 LINE",
"54 640 OFFCURVE",
"72 649 OFFCURVE",
"91 649 CURVE SMOOTH",
"196 649 OFFCURVE",
"220 466 OFFCURVE",
"209 0 CURVE"
);
}
);
width = 636;
},
{
layerId = "58AAA307-6DE9-4107-B80A-C255AE991657";
paths = (
{
closed = 1;
nodes = (
"379 0 LINE",
"470 115 OFFCURVE",
"548 197 OFFCURVE",
"548 451 CURVE SMOOTH",
"548 542 OFFCURVE",
"536 614 OFFCURVE",
"536 684 CURVE SMOOTH",
"536 717 OFFCURVE",
"554 733 OFFCURVE",
"575 733 CURVE SMOOTH",
"601 733 OFFCURVE",
"615 719 OFFCURVE",
"626 707 CURVE",
"698 793 LINE",
"684 813 OFFCURVE",
"637 853 OFFCURVE",
"570 853 CURVE SMOOTH",
"476 853 OFFCURVE",
"413 794 OFFCURVE",
"413 685 CURVE SMOOTH",
"413 628 OFFCURVE",
"429 532 OFFCURVE",
"429 451 CURVE SMOOTH",
"429 253 OFFCURVE",
"409 183 OFFCURVE",
"313 79 CURVE",
"354 24 LINE",
"348 494 OFFCURVE",
"313 726 OFFCURVE",
"147 726 CURVE SMOOTH",
"94 726 OFFCURVE",
"41 698 OFFCURVE",
"10 671 CURVE",
"51 561 LINE",
"64 570 OFFCURVE",
"74 573 OFFCURVE",
"91 573 CURVE SMOOTH",
"150 573 OFFCURVE",
"193 488 OFFCURVE",
"210 0 CURVE"
);
}
);
width = 672;
},
{
layerId = "75F4F5E0-D5B2-4549-A21B-477AF2945BCD";
paths = (
{
closed = 1;
nodes = (
"324 0 LINE",
"424 115 OFFCURVE",
"507 197 OFFCURVE",
"507 451 CURVE SMOOTH",
"507 542 OFFCURVE",
"492 625 OFFCURVE",
"492 699 CURVE SMOOTH",
"492 739 OFFCURVE",
"512 761 OFFCURVE",
"543 761 CURVE SMOOTH",
"575 761 OFFCURVE",
"596 747 OFFCURVE",
"621 726 CURVE",
"670 794 LINE",
"650 816 OFFCURVE",
"615 854 OFFCURVE",
"544 854 CURVE SMOOTH",
"463 854 OFFCURVE",
"400 799 OFFCURVE",
"400 699 CURVE SMOOTH",
"400 638 OFFCURVE",
"416 532 OFFCURVE",
"416 451 CURVE SMOOTH",
"416 258 OFFCURVE",
"390 192 OFFCURVE",
"293 81 CURVE",
"317 59 LINE",
"324 509 OFFCURVE",
"300 726 OFFCURVE",
"132 726 CURVE SMOOTH",
"80 726 OFFCURVE",
"38 699 OFFCURVE",
"6 666 CURVE",
"41 602 LINE",
"57 617 OFFCURVE",
"73 624 OFFCURVE",
"91 624 CURVE SMOOTH",
"181 624 OFFCURVE",
"211 473 OFFCURVE",
"209 0 CURVE"
);
}
);
width = 647.80328;
},
{
layerId = "3F80E263-2B21-4BD5-AA74-4B7BB1AD4533";
paths = (
{
closed = 1;
nodes = (
"351 0 LINE",
"446 115 OFFCURVE",
"527 197 OFFCURVE",
"527 451 CURVE SMOOTH",
"527 542 OFFCURVE",
"513 620 OFFCURVE",
"513 692 CURVE SMOOTH",
"513 728 OFFCURVE",
"532 747 OFFCURVE",
"559 747 CURVE SMOOTH",
"588 747 OFFCURVE",
"605 733 OFFCURVE",
"623 717 CURVE",
"684 794 LINE",
"667 815 OFFCURVE",
"626 854 OFFCURVE",
"557 854 CURVE SMOOTH",
"469 854 OFFCURVE",
"406 797 OFFCURVE",
"406 692 CURVE SMOOTH",
"406 633 OFFCURVE",
"422 532 OFFCURVE",
"422 451 CURVE SMOOTH",
"422 256 OFFCURVE",
"399 188 OFFCURVE",
"303 80 CURVE",
"335 42 LINE",
"336 502 OFFCURVE",
"306 726 OFFCURVE",
"139 726 CURVE SMOOTH",
"87 726 OFFCURVE",
"39 699 OFFCURVE",
"8 668 CURVE",
"46 582 LINE",
"60 594 OFFCURVE",
"73 599 OFFCURVE",
"91 599 CURVE SMOOTH",
"166 599 OFFCURVE",
"202 480 OFFCURVE",
"209 0 CURVE"
);
}
);
width = 659.60656;
}
);
leftKerningGroup = "Lla-vit";
leftMetricsKey = "La-vit";
rightKerningGroup = "Lla-vit";
unicode = 10583;
script = vithkuqi;
category = Letter;
subCategory = Uppercase;
},
{
glyphname = "Me-vit";
lastChange = "2021-11-03 06:54:48 +0000";
layers = (
{
layerId = UUID0;
paths = (
{
closed = 1;
nodes = (
"460 -10 OFFCURVE",
"612 95 OFFCURVE",
"612 359 CURVE SMOOTH",
"612 624 OFFCURVE",
"483 719 OFFCURVE",
"322 719 CURVE SMOOTH",
"178 719 OFFCURVE",
"50 639 OFFCURVE",
"50 484 CURVE SMOOTH",
"50 411 OFFCURVE",
"89 355 OFFCURVE",
"168 355 CURVE SMOOTH",
"242 355 OFFCURVE",
"277 415 OFFCURVE",
"277 476 CURVE SMOOTH",
"277 696 LINE SMOOTH",
"277 746 OFFCURVE",
"298 778 OFFCURVE",
"345 778 CURVE SMOOTH",
"379 778 OFFCURVE",
"403 761 OFFCURVE",
"432 725 CURVE",
"489 782 LINE",
"467 812 OFFCURVE",
"430 856 OFFCURVE",
"345 856 CURVE SMOOTH",
"263 856 OFFCURVE",
"201 799 OFFCURVE",
"201 704 CURVE SMOOTH",
"201 476 LINE SMOOTH",
"201 457 OFFCURVE",
"192 432 OFFCURVE",
"168 432 CURVE SMOOTH",
"142 432 OFFCURVE",
"130 450 OFFCURVE",
"130 484 CURVE SMOOTH",
"130 606 OFFCURVE",
"212 643 OFFCURVE",
"323 643 CURVE SMOOTH",
"437 643 OFFCURVE",
"517 562 OFFCURVE",
"517 358 CURVE SMOOTH",
"517 154 OFFCURVE",
"431 67 OFFCURVE",
"321 67 CURVE SMOOTH",
"225 67 OFFCURVE",
"176 96 OFFCURVE",
"129 157 CURVE",
"76 107 LINE",
"122 35 OFFCURVE",
"190 -10 OFFCURVE",
"319 -10 CURVE SMOOTH"
);
}
);
width = 672;
},
{
layerId = "58AAA307-6DE9-4107-B80A-C255AE991657";
paths = (
{
closed = 1;
nodes = (
"555 -10 OFFCURVE",
"652 137 OFFCURVE",
"652 343 CURVE SMOOTH",
"652 552 OFFCURVE",
"547 688 OFFCURVE",
"341 688 CURVE SMOOTH",
"158 688 OFFCURVE",
"30 580 OFFCURVE",
"30 446 CURVE SMOOTH",
"30 359 OFFCURVE",
"75 280 OFFCURVE",
"186 280 CURVE SMOOTH",
"303 280 OFFCURVE",
"352 364 OFFCURVE",
"352 466 CURVE SMOOTH",
"352 648 LINE SMOOTH",
"352 708 OFFCURVE",
"377 728 OFFCURVE",
"418 728 CURVE SMOOTH",
"457 728 OFFCURVE",
"481 708 OFFCURVE",
"509 680 CURVE",
"606 767 LINE",
"565 810 OFFCURVE",
"517 855 OFFCURVE",
"418 855 CURVE SMOOTH",
"322 855 OFFCURVE",
"226 801 OFFCURVE",
"226 664 CURVE SMOOTH",
"226 470 LINE SMOOTH",
"226 422 OFFCURVE",
"211 407 OFFCURVE",
"186 407 CURVE SMOOTH",
"169 407 OFFCURVE",
"157 420 OFFCURVE",
"157 446 CURVE SMOOTH",
"157 493 OFFCURVE",
"182 558 OFFCURVE",
"332 559 CURVE SMOOTH",
"428 559 OFFCURVE",
"493 495 OFFCURVE",
"493 344 CURVE SMOOTH",
"493 190 OFFCURVE",
"422 117 OFFCURVE",
"323 117 CURVE SMOOTH",
"263 117 OFFCURVE",
"222 154 OFFCURVE",
"187 194 CURVE",
"89 105 LINE",
"134 40 OFFCURVE",
"214 -10 OFFCURVE",
"322 -10 CURVE SMOOTH"
);
}
);
width = 710;
},
{
layerId = "75F4F5E0-D5B2-4549-A21B-477AF2945BCD";
paths = (
{
closed = 1;
nodes = (
"491 -10 OFFCURVE",
"625 109 OFFCURVE",
"625 354 CURVE SMOOTH",
"625 600 OFFCURVE",
"504 709 OFFCURVE",
"328 709 CURVE SMOOTH",
"171 709 OFFCURVE",
"43 620 OFFCURVE",
"43 472 CURVE SMOOTH",
"43 394 OFFCURVE",
"84 330 OFFCURVE",
"174 330 CURVE SMOOTH",
"262 330 OFFCURVE",
"302 398 OFFCURVE",
"302 473 CURVE SMOOTH",
"302 680 LINE SMOOTH",
"302 734 OFFCURVE",
"324 762 OFFCURVE",
"369 762 CURVE SMOOTH",
"405 762 OFFCURVE",
"429 744 OFFCURVE",
"457 710 CURVE",
"527 777 LINE",
"499 811 OFFCURVE",
"459 856 OFFCURVE",
"369 856 CURVE SMOOTH",
"282 856 OFFCURVE",
"209 800 OFFCURVE",
"209 691 CURVE SMOOTH",
"209 474 LINE SMOOTH",
"209 446 OFFCURVE",
"198 424 OFFCURVE",
"174 424 CURVE SMOOTH",
"151 424 OFFCURVE",
"139 440 OFFCURVE",
"139 472 CURVE SMOOTH",
"139 569 OFFCURVE",
"202 615 OFFCURVE",
"326 615 CURVE SMOOTH",
"434 615 OFFCURVE",
"509 540 OFFCURVE",
"509 353 CURVE SMOOTH",
"509 166 OFFCURVE",
"428 83 OFFCURVE",
"322 83 CURVE SMOOTH",
"237 83 OFFCURVE",
"191 115 OFFCURVE",
"148 169 CURVE",
"80 106 LINE",
"126 37 OFFCURVE",
"198 -10 OFFCURVE",
"320 -10 CURVE SMOOTH"
);
}
);
width = 684.45902;
},
{
layerId = "3F80E263-2B21-4BD5-AA74-4B7BB1AD4533";
paths = (
{
closed = 1;
nodes = (
"522 -10 OFFCURVE",
"638 123 OFFCURVE",
"638 349 CURVE SMOOTH",
"638 577 OFFCURVE",
"525 699 OFFCURVE",
"334 699 CURVE SMOOTH",
"165 699 OFFCURVE",
"37 600 OFFCURVE",
"37 459 CURVE SMOOTH",
"37 377 OFFCURVE",
"80 306 OFFCURVE",
"180 306 CURVE SMOOTH",
"282 306 OFFCURVE",
"326 381 OFFCURVE",
"326 470 CURVE SMOOTH",
"326 664 LINE SMOOTH",
"326 721 OFFCURVE",
"350 745 OFFCURVE",
"393 745 CURVE SMOOTH",
"430 745 OFFCURVE",
"454 726 OFFCURVE",
"482 695 CURVE",
"566 772 LINE",
"531 811 OFFCURVE",
"487 856 OFFCURVE",
"393 856 CURVE SMOOTH",
"302 856 OFFCURVE",
"217 800 OFFCURVE",
"217 678 CURVE SMOOTH",
"217 472 LINE SMOOTH",
"217 434 OFFCURVE",
"204 416 OFFCURVE",
"180 416 CURVE SMOOTH",
"160 416 OFFCURVE",
"148 430 OFFCURVE",
"148 459 CURVE SMOOTH",
"148 532 OFFCURVE",
"192 587 OFFCURVE",
"329 588 CURVE SMOOTH",
"431 588 OFFCURVE",
"501 518 OFFCURVE",
"501 349 CURVE SMOOTH",
"501 178 OFFCURVE",
"425 100 OFFCURVE",
"322 100 CURVE SMOOTH",
"250 100 OFFCURVE",
"206 134 OFFCURVE",
"167 181 CURVE",
"84 106 LINE",
"130 38 OFFCURVE",
"206 -10 OFFCURVE",
"321 -10 CURVE SMOOTH"
);
}
);
width = 696.91803;
}
);
unicode = 10584;
script = vithkuqi;
category = Letter;
subCategory = Uppercase;
},
{
glyphname = "Ne-vit";
lastChange = "2021-11-03 06:54:48 +0000";
layers = (
{
layerId = UUID0;
paths = (
{
closed = 1;
nodes = (
"479 -253 OFFCURVE",
"497 -252 OFFCURVE",
"516 -250 CURVE",
"516 -190 LINE",
"511 -190 OFFCURVE",
"507 -190 OFFCURVE",
"502 -190 CURVE SMOOTH",
"428 -190 OFFCURVE",
"415 -156 OFFCURVE",
"415 -96 CURVE SMOOTH",
"415 157 LINE SMOOTH",
"415 196 OFFCURVE",
"402 217 OFFCURVE",
"355 217 CURVE SMOOTH",
"308 217 LINE SMOOTH",
"214 217 OFFCURVE",
"199 302 OFFCURVE",
"199 437 CURVE SMOOTH",
"199 597 OFFCURVE",
"237 648 OFFCURVE",
"288 648 CURVE SMOOTH",
"335 648 OFFCURVE",
"355 608 OFFCURVE",
"355 552 CURVE SMOOTH",
"355 399 OFFCURVE",
"247 278 OFFCURVE",
"25 132 CURVE",
"69 80 LINE",
"314 239 OFFCURVE",
"432 386 OFFCURVE",
"432 552 CURVE SMOOTH",
"432 681 OFFCURVE",
"367 726 OFFCURVE",
"288 726 CURVE SMOOTH",
"163 726 OFFCURVE",
"104 616 OFFCURVE",
"104 437 CURVE SMOOTH",
"104 257 OFFCURVE",
"146 138 OFFCURVE",
"269 138 CURVE SMOOTH",
"310 138 LINE SMOOTH",
"318 138 OFFCURVE",
"325 131 OFFCURVE",
"325 123 CURVE SMOOTH",
"325 -112 LINE SMOOTH",
"325 -205 OFFCURVE",
"359 -253 OFFCURVE",
"464 -253 CURVE SMOOTH"
);
}
);
width = 541;
},
{
layerId = "58AAA307-6DE9-4107-B80A-C255AE991657";
paths = (
{
closed = 1;
nodes = (
"522 -248 OFFCURVE",
"552 -246 OFFCURVE",
"565 -243 CURVE",
"565 -130 LINE",
"562 -130 OFFCURVE",
"557 -130 OFFCURVE",
"551 -130 CURVE SMOOTH",
"511 -130 OFFCURVE",
"493 -99 OFFCURVE",
"493 -64 CURVE SMOOTH",
"493 178 LINE SMOOTH",
"493 230 OFFCURVE",
"476 256 OFFCURVE",
"433 256 CURVE SMOOTH",
"344 255 LINE SMOOTH",
"281 254 OFFCURVE",
"242 281 OFFCURVE",
"242 437 CURVE SMOOTH",
"242 534 OFFCURVE",
"283 599 OFFCURVE",
"323 599 CURVE SMOOTH",
"355 599 OFFCURVE",
"366 574 OFFCURVE",
"366 539 CURVE SMOOTH",
"366 397 OFFCURVE",
"211 251 OFFCURVE",
"21 158 CURVE",
"69 71 LINE",
"271 171 OFFCURVE",
"492 362 OFFCURVE",
"492 541 CURVE SMOOTH",
"492 673 OFFCURVE",
"425 726 OFFCURVE",
"322 726 CURVE SMOOTH",
"207 726 OFFCURVE",
"84 636 OFFCURVE",
"84 437 CURVE SMOOTH",
"84 227 OFFCURVE",
"153 128 OFFCURVE",
"276 128 CURVE SMOOTH",
"327 128 LINE SMOOTH",
"335 128 OFFCURVE",
"342 121 OFFCURVE",
"342 113 CURVE SMOOTH",
"342 -82 LINE SMOOTH",
"342 -180 OFFCURVE",
"389 -248 OFFCURVE",
"495 -248 CURVE SMOOTH"
);
}
);
width = 575;
},
{
layerId = "75F4F5E0-D5B2-4549-A21B-477AF2945BCD";
paths = (
{
closed = 1;
nodes = (
"493 -251 OFFCURVE",
"515 -250 OFFCURVE",
"532 -248 CURVE",
"532 -170 LINE",
"528 -170 OFFCURVE",
"523 -170 OFFCURVE",
"518 -170 CURVE SMOOTH",
"455 -170 OFFCURVE",
"441 -137 OFFCURVE",
"441 -86 CURVE SMOOTH",
"441 164 LINE SMOOTH",
"441 207 OFFCURVE",
"426 230 OFFCURVE",
"381 230 CURVE SMOOTH",
"320 229 LINE SMOOTH",
"236 229 OFFCURVE",
"213 295 OFFCURVE",
"213 437 CURVE SMOOTH",
"213 576 OFFCURVE",
"252 632 OFFCURVE",
"299 632 CURVE SMOOTH",
"342 632 OFFCURVE",
"359 597 OFFCURVE",
"359 548 CURVE SMOOTH",
"359 398 OFFCURVE",
"235 269 OFFCURVE",
"24 141 CURVE",
"69 77 LINE",
"300 217 OFFCURVE",
"452 378 OFFCURVE",
"452 548 CURVE SMOOTH",
"452 678 OFFCURVE",
"386 726 OFFCURVE",
"299 726 CURVE SMOOTH",
"177 726 OFFCURVE",
"97 623 OFFCURVE",
"97 437 CURVE SMOOTH",
"97 247 OFFCURVE",
"148 135 OFFCURVE",
"271 135 CURVE SMOOTH",
"316 135 LINE SMOOTH",
"324 135 OFFCURVE",
"331 128 OFFCURVE",
"331 120 CURVE SMOOTH",
"331 -102 LINE SMOOTH",
"331 -197 OFFCURVE",
"369 -251 OFFCURVE",
"474 -251 CURVE SMOOTH"
);
}
);
width = 552.14754;
},
{
layerId = "3F80E263-2B21-4BD5-AA74-4B7BB1AD4533";
paths = (
{
closed = 1;
nodes = (
"507 -250 OFFCURVE",
"533 -248 OFFCURVE",
"548 -246 CURVE",
"548 -150 LINE",
"545 -150 OFFCURVE",
"540 -150 OFFCURVE",
"534 -150 CURVE SMOOTH",
"482 -150 OFFCURVE",
"466 -118 OFFCURVE",
"466 -75 CURVE SMOOTH",
"466 171 LINE SMOOTH",
"466 218 OFFCURVE",
"450 243 OFFCURVE",
"406 243 CURVE SMOOTH",
"332 242 LINE SMOOTH",
"258 241 OFFCURVE",
"227 288 OFFCURVE",
"227 437 CURVE SMOOTH",
"227 556 OFFCURVE",
"267 616 OFFCURVE",
"311 616 CURVE SMOOTH",
"348 616 OFFCURVE",
"362 586 OFFCURVE",
"362 544 CURVE SMOOTH",
"362 398 OFFCURVE",
"223 260 OFFCURVE",
"23 149 CURVE",
"69 74 LINE",
"286 195 OFFCURVE",
"472 370 OFFCURVE",
"472 545 CURVE SMOOTH",
"472 676 OFFCURVE",
"405 726 OFFCURVE",
"310 726 CURVE SMOOTH",
"192 726 OFFCURVE",
"91 629 OFFCURVE",
"91 437 CURVE SMOOTH",
"91 237 OFFCURVE",
"150 132 OFFCURVE",
"273 132 CURVE SMOOTH",
"321 132 LINE SMOOTH",
"329 132 OFFCURVE",
"336 125 OFFCURVE",
"336 117 CURVE SMOOTH",
"336 -92 LINE SMOOTH",
"336 -189 OFFCURVE",
"379 -250 OFFCURVE",
"484 -250 CURVE SMOOTH"
);
}
);
width = 563.29508;
}
);
rightKerningGroup = "Bbe-vit";
unicode = 10585;
script = vithkuqi;
category = Letter;
subCategory = Uppercase;
},
{
glyphname = "Nje-vit";
lastChange = "2021-11-03 06:54:48 +0000";
layers = (
{
layerId = UUID0;
paths = (
{
closed = 1;
nodes = (
"375 -10 OFFCURVE",
"429 72 OFFCURVE",
"429 293 CURVE SMOOTH",
"429 536 OFFCURVE",
"366 723 OFFCURVE",
"171 723 CURVE SMOOTH",
"112 723 OFFCURVE",
"47 705 OFFCURVE",
"5 668 CURVE",
"37 613 LINE",
"58 625 OFFCURVE",
"103 645 OFFCURVE",
"167 645 CURVE SMOOTH",
"281 645 OFFCURVE",
"334 521 OFFCURVE",
"334 294 CURVE SMOOTH",
"334 133 OFFCURVE",
"298 68 OFFCURVE",
"246 68 CURVE SMOOTH",
"195 68 OFFCURVE",
"170 135 OFFCURVE",
"170 240 CURVE SMOOTH",
"170 517 OFFCURVE",
"294 644 OFFCURVE",
"460 646 CURVE SMOOTH",
"565 647 OFFCURVE",
"626 604 OFFCURVE",
"626 492 CURVE SMOOTH",
"626 -69 LINE SMOOTH",
"626 -192 OFFCURVE",
"665 -256 OFFCURVE",
"759 -256 CURVE SMOOTH",
"778 -256 OFFCURVE",
"792 -255 OFFCURVE",
"818 -252 CURVE",
"818 -192 LINE",
"799 -192 LINE SMOOTH",
"727 -192 OFFCURVE",
"716 -132 OFFCURVE",
"716 -52 CURVE SMOOTH",
"716 517 LINE SMOOTH",
"716 664 OFFCURVE",
"630 725 OFFCURVE",
"486 725 CURVE SMOOTH",
"240 725 OFFCURVE",
"93 513 OFFCURVE",
"93 237 CURVE SMOOTH",
"93 58 OFFCURVE",
"156 -10 OFFCURVE",
"256 -10 CURVE SMOOTH"
);
}
);
width = 833;
},
{
layerId = "58AAA307-6DE9-4107-B80A-C255AE991657";
paths = (
{
closed = 1;
nodes = (
"431 -10 OFFCURVE",
"509 88 OFFCURVE",
"509 281 CURVE SMOOTH",
"509 512 OFFCURVE",
"385 721 OFFCURVE",
"165 721 CURVE SMOOTH",
"98 721 OFFCURVE",
"37 699 OFFCURVE",
"-5 667 CURVE",
"42 557 LINE",
"83 582 OFFCURVE",
"123 594 OFFCURVE",
"165 594 CURVE SMOOTH",
"259 594 OFFCURVE",
"350 439 OFFCURVE",
"350 281 CURVE SMOOTH",
"350 171 OFFCURVE",
"341 117 OFFCURVE",
"282 117 CURVE SMOOTH",
"230 117 OFFCURVE",
"212 168 OFFCURVE",
"214 259 CURVE SMOOTH",
"219 466 OFFCURVE",
"309 598 OFFCURVE",
"474 598 CURVE SMOOTH",
"577 598 OFFCURVE",
"624 550 OFFCURVE",
"624 465 CURVE SMOOTH",
"624 -90 LINE SMOOTH",
"624 -187 OFFCURVE",
"671 -256 OFFCURVE",
"777 -256 CURVE SMOOTH",
"796 -256 OFFCURVE",
"828 -255 OFFCURVE",
"847 -253 CURVE",
"847 -138 LINE",
"833 -138 LINE SMOOTH",
"794 -138 OFFCURVE",
"775 -107 OFFCURVE",
"775 -72 CURVE SMOOTH",
"775 496 LINE SMOOTH",
"775 662 OFFCURVE",
"677 725 OFFCURVE",
"503 725 CURVE SMOOTH",
"253 725 OFFCURVE",
"91 536 OFFCURVE",
"85 259 CURVE SMOOTH",
"81 103 OFFCURVE",
"140 -10 OFFCURVE",
"282 -10 CURVE SMOOTH"
);
}
);
width = 852;
},
{
layerId = "75F4F5E0-D5B2-4549-A21B-477AF2945BCD";
paths = (
{
closed = 1;
nodes = (
"393 -10 OFFCURVE",
"455 77 OFFCURVE",
"455 289 CURVE SMOOTH",
"455 528 OFFCURVE",
"372 722 OFFCURVE",
"169 722 CURVE SMOOTH",
"107 722 OFFCURVE",
"44 703 OFFCURVE",
"2 668 CURVE",
"39 595 LINE",
"66 611 OFFCURVE",
"110 628 OFFCURVE",
"166 628 CURVE SMOOTH",
"274 628 OFFCURVE",
"339 494 OFFCURVE",
"339 290 CURVE SMOOTH",
"339 145 OFFCURVE",
"312 84 OFFCURVE",
"258 84 CURVE SMOOTH",
"206 84 OFFCURVE",
"184 146 OFFCURVE",
"184 246 CURVE SMOOTH",
"186 500 OFFCURVE",
"299 629 OFFCURVE",
"465 630 CURVE SMOOTH",
"569 631 OFFCURVE",
"625 586 OFFCURVE",
"625 483 CURVE SMOOTH",
"625 -76 LINE SMOOTH",
"625 -190 OFFCURVE",
"667 -256 OFFCURVE",
"765 -256 CURVE SMOOTH",
"784 -256 OFFCURVE",
"804 -255 OFFCURVE",
"828 -252 CURVE",
"828 -174 LINE",
"810 -174 LINE SMOOTH",
"749 -174 OFFCURVE",
"735 -124 OFFCURVE",
"735 -59 CURVE SMOOTH",
"735 510 LINE SMOOTH",
"735 663 OFFCURVE",
"645 725 OFFCURVE",
"492 725 CURVE SMOOTH",
"244 725 OFFCURVE",
"92 521 OFFCURVE",
"90 244 CURVE SMOOTH",
"89 73 OFFCURVE",
"151 -10 OFFCURVE",
"265 -10 CURVE SMOOTH"
);
}
);
width = 839.22951;
},
{
layerId = "3F80E263-2B21-4BD5-AA74-4B7BB1AD4533";
paths = (
{
closed = 1;
nodes = (
"412 -10 OFFCURVE",
"481 82 OFFCURVE",
"481 285 CURVE SMOOTH",
"481 520 OFFCURVE",
"378 722 OFFCURVE",
"167 722 CURVE SMOOTH",
"103 722 OFFCURVE",
"41 701 OFFCURVE",
"-1 668 CURVE",
"40 576 LINE",
"74 597 OFFCURVE",
"116 611 OFFCURVE",
"166 611 CURVE SMOOTH",
"267 611 OFFCURVE",
"344 467 OFFCURVE",
"344 286 CURVE SMOOTH",
"344 158 OFFCURVE",
"326 100 OFFCURVE",
"270 100 CURVE SMOOTH",
"218 100 OFFCURVE",
"198 157 OFFCURVE",
"199 252 CURVE SMOOTH",
"202 483 OFFCURVE",
"304 614 OFFCURVE",
"469 614 CURVE SMOOTH",
"573 615 OFFCURVE",
"625 568 OFFCURVE",
"625 474 CURVE SMOOTH",
"625 -83 LINE SMOOTH",
"625 -189 OFFCURVE",
"669 -256 OFFCURVE",
"771 -256 CURVE SMOOTH",
"790 -256 OFFCURVE",
"816 -255 OFFCURVE",
"837 -252 CURVE",
"837 -156 LINE",
"821 -156 LINE SMOOTH",
"771 -156 OFFCURVE",
"755 -116 OFFCURVE",
"755 -65 CURVE SMOOTH",
"755 503 LINE SMOOTH",
"755 663 OFFCURVE",
"661 725 OFFCURVE",
"497 725 CURVE SMOOTH",
"248 725 OFFCURVE",
"92 528 OFFCURVE",
"88 251 CURVE SMOOTH",
"85 88 OFFCURVE",
"146 -10 OFFCURVE",
"273 -10 CURVE SMOOTH"
);
}
);
width = 845.45902;
}
);
leftMetricsKey = "=Ei-vit";
unicode = 10586;
script = vithkuqi;
category = Letter;
subCategory = Uppercase;
},
{
glyphname = "O-vit";
lastChange = "2021-11-03 06:54:48 +0000";
layers = (
{
layerId = UUID0;
paths = (
{
closed = 1;
nodes = (
"579 -10 OFFCURVE",
"700 132 OFFCURVE",
"700 358 CURVE SMOOTH",
"700 588 OFFCURVE",
"589 725 OFFCURVE",
"388 725 CURVE SMOOTH",
"187 725 OFFCURVE",
"60 573 OFFCURVE",
"60 359 CURVE SMOOTH",
"60 145 OFFCURVE",
"155 -10 OFFCURVE",
"387 -10 CURVE SMOOTH"
);
},
{
closed = 1;
nodes = (
"243 68 OFFCURVE",
"155 168 OFFCURVE",
"155 358 CURVE SMOOTH",
"155 549 OFFCURVE",
"239 647 OFFCURVE",
"388 647 CURVE SMOOTH",
"528 647 OFFCURVE",
"623 549 OFFCURVE",
"623 358 CURVE SMOOTH",
"623 168 OFFCURVE",
"536 68 OFFCURVE",
"387 68 CURVE SMOOTH"
);
},
{
closed = 1;
nodes = (
"551 421 OFFCURVE",
"651 507 OFFCURVE",
"737 688 CURVE",
"679 721 LINE",
"611 588 OFFCURVE",
"543 511 OFFCURVE",
"436 511 CURVE SMOOTH",
"367 511 OFFCURVE",
"334 551 OFFCURVE",
"334 586 CURVE SMOOTH",
"334 620 OFFCURVE",
"355 647 OFFCURVE",
"388 647 CURVE",
"388 725 LINE",
"323 697 OFFCURVE",
"257 653 OFFCURVE",
"257 559 CURVE SMOOTH",
"257 480 OFFCURVE",
"306 421 OFFCURVE",
"424 421 CURVE SMOOTH"
);
}
);
width = 767;
},
{
layerId = "58AAA307-6DE9-4107-B80A-C255AE991657";
paths = (
{
closed = 1;
nodes = (
"631 -10 OFFCURVE",
"723 137 OFFCURVE",
"723 358 CURVE SMOOTH",
"723 576 OFFCURVE",
"626 725 OFFCURVE",
"399 725 CURVE SMOOTH",
"165 725 OFFCURVE",
"58 580 OFFCURVE",
"58 359 CURVE SMOOTH",
"58 137 OFFCURVE",
"165 -10 OFFCURVE",
"398 -10 CURVE SMOOTH"
);
},
{
closed = 1;
nodes = (
"271 117 OFFCURVE",
"217 208 OFFCURVE",
"217 358 CURVE SMOOTH",
"217 508 OFFCURVE",
"271 599 OFFCURVE",
"399 599 CURVE SMOOTH",
"527 599 OFFCURVE",
"594 508 OFFCURVE",
"594 358 CURVE SMOOTH",
"594 208 OFFCURVE",
"527 117 OFFCURVE",
"398 117 CURVE SMOOTH"
);
},
{
closed = 1;
nodes = (
"587 360 OFFCURVE",
"743 434 OFFCURVE",
"819 667 CURVE",
"728 717 LINE",
"659 562 OFFCURVE",
"594 487 OFFCURVE",
"471 487 CURVE SMOOTH",
"403 487 OFFCURVE",
"360 516 OFFCURVE",
"360 562 CURVE SMOOTH",
"360 589 OFFCURVE",
"378 599 OFFCURVE",
"399 599 CURVE",
"422 660 LINE",
"384 660 OFFCURVE",
"260 602 OFFCURVE",
"260 508 CURVE SMOOTH",
"260 404 OFFCURVE",
"342 360 OFFCURVE",
"435 360 CURVE SMOOTH"
);
}
);
width = 809;
},
{
layerId = "75F4F5E0-D5B2-4549-A21B-477AF2945BCD";
paths = (
{
closed = 1;
nodes = (
"596 -10 OFFCURVE",
"708 134 OFFCURVE",
"708 358 CURVE SMOOTH",
"708 584 OFFCURVE",
"601 725 OFFCURVE",
"392 725 CURVE SMOOTH",
"180 725 OFFCURVE",
"59 575 OFFCURVE",
"59 359 CURVE SMOOTH",
"59 142 OFFCURVE",
"158 -10 OFFCURVE",
"391 -10 CURVE SMOOTH"
);
},
{
closed = 1;
nodes = (
"252 84 OFFCURVE",
"175 181 OFFCURVE",
"175 358 CURVE SMOOTH",
"175 536 OFFCURVE",
"249 631 OFFCURVE",
"392 631 CURVE SMOOTH",
"528 631 OFFCURVE",
"613 536 OFFCURVE",
"613 358 CURVE SMOOTH",
"613 181 OFFCURVE",
"533 84 OFFCURVE",
"391 84 CURVE SMOOTH"
);
},
{
closed = 1;
nodes = (
"563 401 OFFCURVE",
"681 483 OFFCURVE",
"764 681 CURVE",
"695 720 LINE",
"627 579 OFFCURVE",
"560 503 OFFCURVE",
"447 503 CURVE SMOOTH",
"379 503 OFFCURVE",
"343 540 OFFCURVE",
"343 578 CURVE SMOOTH",
"343 610 OFFCURVE",
"363 631 OFFCURVE",
"392 631 CURVE",
"399 704 LINE",
"343 685 OFFCURVE",
"258 636 OFFCURVE",
"258 542 CURVE SMOOTH",
"258 455 OFFCURVE",
"318 401 OFFCURVE",
"428 401 CURVE SMOOTH"
);
}
);
width = 780.77049;
},
{
layerId = "3F80E263-2B21-4BD5-AA74-4B7BB1AD4533";
paths = (
{
closed = 1;
nodes = (
"613 -10 OFFCURVE",
"715 135 OFFCURVE",
"715 358 CURVE SMOOTH",
"715 580 OFFCURVE",
"613 725 OFFCURVE",
"395 725 CURVE SMOOTH",
"173 725 OFFCURVE",
"59 577 OFFCURVE",
"59 359 CURVE SMOOTH",
"59 140 OFFCURVE",
"161 -10 OFFCURVE",
"394 -10 CURVE SMOOTH"
);
},
{
closed = 1;
nodes = (
"261 100 OFFCURVE",
"195 194 OFFCURVE",
"195 358 CURVE SMOOTH",
"195 522 OFFCURVE",
"260 615 OFFCURVE",
"395 615 CURVE SMOOTH",
"528 615 OFFCURVE",
"604 522 OFFCURVE",
"604 358 CURVE SMOOTH",
"604 194 OFFCURVE",
"530 100 OFFCURVE",
"394 100 CURVE SMOOTH"
);
},
{
closed = 1;
nodes = (
"575 381 OFFCURVE",
"711 459 OFFCURVE",
"791 674 CURVE",
"711 719 LINE",
"643 571 OFFCURVE",
"577 495 OFFCURVE",
"459 495 CURVE SMOOTH",
"391 495 OFFCURVE",
"351 528 OFFCURVE",
"351 570 CURVE SMOOTH",
"351 600 OFFCURVE",
"370 615 OFFCURVE",
"395 615 CURVE",
"410 683 LINE",
"363 673 OFFCURVE",
"259 619 OFFCURVE",
"259 525 CURVE SMOOTH",
"259 430 OFFCURVE",
"330 381 OFFCURVE",
"431 381 CURVE SMOOTH"
);
}
);
width = 794.54098;
}
);
leftKerningGroup = "Ka-vit";
unicode = 10587;
script = vithkuqi;
category = Letter;
subCategory = Uppercase;
},
{
glyphname = "Pe-vit";
lastChange = "2021-11-03 06:54:48 +0000";
layers = (
{
layerId = UUID0;
paths = (
{
closed = 1;
nodes = (
"634 -11 OFFCURVE",
"668 19 OFFCURVE",
"683 33 CURVE",
"653 94 LINE",
"632 76 OFFCURVE",
"613 76 OFFCURVE",
"584 76 CURVE SMOOTH",
"558 76 OFFCURVE",
"526 95 OFFCURVE",
"490 121 CURVE SMOOTH",
"416 174 OFFCURVE",
"321 252 OFFCURVE",
"200 252 CURVE SMOOTH",
"111 252 OFFCURVE",
"35 213 OFFCURVE",
"35 122 CURVE SMOOTH",
"35 27 OFFCURVE",
"128 -9 OFFCURVE",
"236 -9 CURVE SMOOTH",
"336 -9 OFFCURVE",
"428 17 OFFCURVE",
"493 67 CURVE SMOOTH",
"554 114 OFFCURVE",
"592 182 OFFCURVE",
"592 270 CURVE SMOOTH",
"591 366 OFFCURVE",
"548 426 OFFCURVE",
"484 459 CURVE SMOOTH",
"436 484 OFFCURVE",
"376 494 OFFCURVE",
"314 494 CURVE SMOOTH",
"200 494 OFFCURVE",
"169 446 OFFCURVE",
"169 398 CURVE SMOOTH",
"169 344 OFFCURVE",
"218 309 OFFCURVE",
"297 309 CURVE SMOOTH",
"375 309 OFFCURVE",
"451 350 OFFCURVE",
"498 409 CURVE SMOOTH",
"528 447 OFFCURVE",
"547 494 OFFCURVE",
"547 542 CURVE SMOOTH",
"547 644 OFFCURVE",
"471 726 OFFCURVE",
"318 726 CURVE SMOOTH",
"203 726 OFFCURVE",
"102 658 OFFCURVE",
"62 566 CURVE",
"117 537 LINE",
"153 596 OFFCURVE",
"206 648 OFFCURVE",
"318 648 CURVE SMOOTH",
"388 648 OFFCURVE",
"452 610 OFFCURVE",
"452 522 CURVE SMOOTH",
"452 492 OFFCURVE",
"444 462 OFFCURVE",
"427 438 CURVE SMOOTH",
"402 402 OFFCURVE",
"357 377 OFFCURVE",
"291 377 CURVE SMOOTH",
"261 377 OFFCURVE",
"245 385 OFFCURVE",
"245 398 CURVE SMOOTH",
"245 413 OFFCURVE",
"257 426 OFFCURVE",
"314 426 CURVE SMOOTH",
"369 426 OFFCURVE",
"413 420 OFFCURVE",
"444 399 CURVE SMOOTH",
"478 377 OFFCURVE",
"497 337 OFFCURVE",
"497 270 CURVE SMOOTH",
"497 191 OFFCURVE",
"471 140 OFFCURVE",
"426 109 CURVE SMOOTH",
"380 76 OFFCURVE",
"315 64 OFFCURVE",
"238 64 CURVE SMOOTH",
"171 64 OFFCURVE",
"112 84 OFFCURVE",
"112 122 CURVE SMOOTH",
"112 153 OFFCURVE",
"138 167 OFFCURVE",
"193 167 CURVE SMOOTH",
"270 167 OFFCURVE",
"347 113 OFFCURVE",
"418 65 CURVE SMOOTH",
"477 25 OFFCURVE",
"531 -11 OFFCURVE",
"578 -11 CURVE SMOOTH"
);
}
);
width = 678;
},
{
layerId = "58AAA307-6DE9-4107-B80A-C255AE991657";
paths = (
{
closed = 1;
nodes = (
"706 -11 OFFCURVE",
"741 23 OFFCURVE",
"770 73 CURVE",
"690 154 LINE",
"675 135 OFFCURVE",
"660 124 OFFCURVE",
"643 124 CURVE SMOOTH",
"615 124 OFFCURVE",
"580 141 OFFCURVE",
"540 161 CURVE",
"443 211 OFFCURVE",
"285 295 OFFCURVE",
"161 295 CURVE SMOOTH",
"76 295 OFFCURVE",
"10 240 OFFCURVE",
"10 149 CURVE SMOOTH",
"10 38 OFFCURVE",
"100 -9 OFFCURVE",
"238 -9 CURVE SMOOTH",
"373 -9 OFFCURVE",
"474 25 OFFCURVE",
"545 73 CURVE",
"609 116 OFFCURVE",
"644 177 OFFCURVE",
"644 258 CURVE SMOOTH",
"644 358 OFFCURVE",
"595 440 OFFCURVE",
"508 466 CURVE",
"458 512 OFFCURVE",
"396 527 OFFCURVE",
"304 527 CURVE SMOOTH",
"194 527 OFFCURVE",
"118 484 OFFCURVE",
"118 409 CURVE SMOOTH",
"118 332 OFFCURVE",
"194 293 OFFCURVE",
"293 293 CURVE SMOOTH",
"394 293 OFFCURVE",
"479 324 OFFCURVE",
"514 392 CURVE",
"564 422 OFFCURVE",
"592 461 OFFCURVE",
"592 535 CURVE SMOOTH",
"592 652 OFFCURVE",
"493 726 OFFCURVE",
"321 726 CURVE SMOOTH",
"198 726 OFFCURVE",
"107 670 OFFCURVE",
"59 573 CURVE",
"118 527 LINE",
"161 574 OFFCURVE",
"216 601 OFFCURVE",
"301 601 CURVE SMOOTH",
"383 601 OFFCURVE",
"433 573 OFFCURVE",
"433 505 CURVE SMOOTH",
"433 489 OFFCURVE",
"432 475 OFFCURVE",
"438 424 CURVE",
"423 410 OFFCURVE",
"367 392 OFFCURVE",
"293 392 CURVE SMOOTH",
"265 392 OFFCURVE",
"241 397 OFFCURVE",
"241 409 CURVE SMOOTH",
"241 424 OFFCURVE",
"257 429 OFFCURVE",
"294 429 CURVE SMOOTH",
"383 429 OFFCURVE",
"427 419 OFFCURVE",
"455 415 CURVE",
"474 363 OFFCURVE",
"485 326 OFFCURVE",
"485 270 CURVE SMOOTH",
"485 211 OFFCURVE",
"474 160 OFFCURVE",
"424 126 CURVE",
"387 113 OFFCURVE",
"305 107 OFFCURVE",
"241 107 CURVE SMOOTH",
"180 107 OFFCURVE",
"131 119 OFFCURVE",
"131 141 CURVE SMOOTH",
"131 156 OFFCURVE",
"142 163 OFFCURVE",
"161 163 CURVE SMOOTH",
"225 163 OFFCURVE",
"309 113 OFFCURVE",
"424 68 CURVE",
"500 28 OFFCURVE",
"578 -11 OFFCURVE",
"643 -11 CURVE SMOOTH"
);
}
);
width = 745;
},
{
layerId = "75F4F5E0-D5B2-4549-A21B-477AF2945BCD";
paths = (
{
closed = 1;
nodes = (
"658 -11 OFFCURVE",
"692 20 OFFCURVE",
"712 46 CURVE",
"665 114 LINE",
"646 95 OFFCURVE",
"628 92 OFFCURVE",
"603 92 CURVE SMOOTH",
"577 92 OFFCURVE",
"544 110 OFFCURVE",
"506 134 CURVE SMOOTH",
"425 186 OFFCURVE",
"309 266 OFFCURVE",
"187 266 CURVE SMOOTH",
"100 266 OFFCURVE",
"27 222 OFFCURVE",
"27 131 CURVE SMOOTH",
"27 31 OFFCURVE",
"119 -9 OFFCURVE",
"237 -9 CURVE SMOOTH",
"348 -9 OFFCURVE",
"443 20 OFFCURVE",
"510 69 CURVE SMOOTH",
"572 115 OFFCURVE",
"609 180 OFFCURVE",
"609 266 CURVE SMOOTH",
"608 363 OFFCURVE",
"563 431 OFFCURVE",
"492 461 CURVE SMOOTH",
"443 493 OFFCURVE",
"383 505 OFFCURVE",
"311 505 CURVE SMOOTH",
"198 505 OFFCURVE",
"152 458 OFFCURVE",
"152 402 CURVE SMOOTH",
"152 340 OFFCURVE",
"210 304 OFFCURVE",
"296 304 CURVE SMOOTH",
"381 304 OFFCURVE",
"460 341 OFFCURVE",
"503 403 CURVE SMOOTH",
"540 439 OFFCURVE",
"562 483 OFFCURVE",
"562 540 CURVE SMOOTH",
"562 647 OFFCURVE",
"478 726 OFFCURVE",
"319 726 CURVE SMOOTH",
"201 726 OFFCURVE",
"104 662 OFFCURVE",
"61 568 CURVE",
"117 534 LINE",
"156 589 OFFCURVE",
"209 633 OFFCURVE",
"312 633 CURVE SMOOTH",
"386 633 OFFCURVE",
"446 598 OFFCURVE",
"446 516 CURVE SMOOTH",
"446 491 OFFCURVE",
"440 466 OFFCURVE",
"431 433 CURVE SMOOTH",
"409 405 OFFCURVE",
"360 382 OFFCURVE",
"292 382 CURVE SMOOTH",
"262 382 OFFCURVE",
"244 389 OFFCURVE",
"244 402 CURVE SMOOTH",
"244 417 OFFCURVE",
"257 427 OFFCURVE",
"307 427 CURVE SMOOTH",
"374 427 OFFCURVE",
"418 420 OFFCURVE",
"448 404 CURVE SMOOTH",
"477 372 OFFCURVE",
"493 333 OFFCURVE",
"493 270 CURVE SMOOTH",
"493 198 OFFCURVE",
"472 147 OFFCURVE",
"425 115 CURVE SMOOTH",
"382 88 OFFCURVE",
"312 78 OFFCURVE",
"239 78 CURVE SMOOTH",
"174 78 OFFCURVE",
"118 95 OFFCURVE",
"118 128 CURVE SMOOTH",
"118 154 OFFCURVE",
"139 166 OFFCURVE",
"183 166 CURVE SMOOTH",
"255 166 OFFCURVE",
"335 113 OFFCURVE",
"420 66 CURVE SMOOTH",
"485 26 OFFCURVE",
"546 -11 OFFCURVE",
"599 -11 CURVE SMOOTH"
);
}
);
width = 699.96721;
},
{
layerId = "3F80E263-2B21-4BD5-AA74-4B7BB1AD4533";
paths = (
{
closed = 1;
nodes = (
"681 -11 OFFCURVE",
"716 21 OFFCURVE",
"740 59 CURVE",
"677 134 LINE",
"660 115 OFFCURVE",
"644 108 OFFCURVE",
"623 108 CURVE SMOOTH",
"596 108 OFFCURVE",
"562 125 OFFCURVE",
"523 147 CURVE",
"434 198 OFFCURVE",
"297 280 OFFCURVE",
"174 280 CURVE SMOOTH",
"88 280 OFFCURVE",
"19 231 OFFCURVE",
"19 140 CURVE SMOOTH",
"19 34 OFFCURVE",
"110 -9 OFFCURVE",
"237 -9 CURVE SMOOTH",
"360 -9 OFFCURVE",
"458 22 OFFCURVE",
"527 71 CURVE",
"590 115 OFFCURVE",
"626 179 OFFCURVE",
"626 262 CURVE SMOOTH",
"626 361 OFFCURVE",
"579 435 OFFCURVE",
"500 463 CURVE",
"450 502 OFFCURVE",
"389 516 OFFCURVE",
"308 516 CURVE SMOOTH",
"196 516 OFFCURVE",
"135 471 OFFCURVE",
"135 405 CURVE SMOOTH",
"135 336 OFFCURVE",
"202 299 OFFCURVE",
"295 299 CURVE SMOOTH",
"387 299 OFFCURVE",
"469 333 OFFCURVE",
"508 398 CURVE",
"552 431 OFFCURVE",
"577 472 OFFCURVE",
"577 538 CURVE SMOOTH",
"577 649 OFFCURVE",
"485 726 OFFCURVE",
"320 726 CURVE SMOOTH",
"200 726 OFFCURVE",
"105 666 OFFCURVE",
"60 570 CURVE",
"117 531 LINE",
"158 582 OFFCURVE",
"212 617 OFFCURVE",
"307 617 CURVE SMOOTH",
"385 617 OFFCURVE",
"440 586 OFFCURVE",
"440 511 CURVE SMOOTH",
"440 490 OFFCURVE",
"436 470 OFFCURVE",
"434 429 CURVE",
"416 407 OFFCURVE",
"363 387 OFFCURVE",
"292 387 CURVE SMOOTH",
"263 387 OFFCURVE",
"243 393 OFFCURVE",
"243 405 CURVE SMOOTH",
"243 420 OFFCURVE",
"257 428 OFFCURVE",
"301 428 CURVE SMOOTH",
"378 428 OFFCURVE",
"422 420 OFFCURVE",
"451 409 CURVE",
"476 368 OFFCURVE",
"489 330 OFFCURVE",
"489 270 CURVE SMOOTH",
"489 204 OFFCURVE",
"473 153 OFFCURVE",
"425 120 CURVE",
"384 100 OFFCURVE",
"309 92 OFFCURVE",
"240 92 CURVE SMOOTH",
"177 92 OFFCURVE",
"124 107 OFFCURVE",
"124 134 CURVE SMOOTH",
"124 155 OFFCURVE",
"140 165 OFFCURVE",
"172 165 CURVE SMOOTH",
"240 165 OFFCURVE",
"322 113 OFFCURVE",
"422 67 CURVE",
"492 27 OFFCURVE",
"562 -11 OFFCURVE",
"620 -11 CURVE SMOOTH"
);
}
);
width = 721.93443;
}
);
unicode = 10588;
script = vithkuqi;
category = Letter;
subCategory = Uppercase;
},
{
glyphname = "Qa-vit";
lastChange = "2021-11-03 06:54:48 +0000";
layers = (
{
anchors = (
{
name = _topright;
position = "{656, 609}";
},
{
name = top;
position = "{710, 723}";
}
);
components = (
{
name = "Ka-vit";
}
);
layerId = UUID0;
paths = (
{
closed = 1;
nodes = (
"652 537 LINE",
"766 624 LINE SMOOTH",
"773 629 OFFCURVE",
"780 634 OFFCURVE",
"787 641 CURVE SMOOTH",
"806 660 OFFCURVE",
"806 691 OFFCURVE",
"787 709 CURVE SMOOTH",
"768 728 OFFCURVE",
"737 728 OFFCURVE",
"719 710 CURVE SMOOTH",
"715 706 OFFCURVE",
"705 694 OFFCURVE",
"701 689 CURVE SMOOTH",
"612 576 LINE"
);
}
);
width = 816;
},
{
anchors = (
{
name = _topright;
position = "{588, 609}";
},
{
name = top;
position = "{649, 779}";
}
);
components = (
{
name = "Ka-vit";
}
);
layerId = "58AAA307-6DE9-4107-B80A-C255AE991657";
paths = (
{
closed = 1;
nodes = (
"748 510 LINE",
"833 611 LINE SMOOTH",
"841 620 OFFCURVE",
"850 634 OFFCURVE",
"856 646 CURVE SMOOTH",
"872 677 OFFCURVE",
"864 715 OFFCURVE",
"833 732 CURVE SMOOTH",
"801 748 OFFCURVE",
"762 740 OFFCURVE",
"746 710 CURVE SMOOTH",
"740 696 OFFCURVE",
"732 680 OFFCURVE",
"729 672 CURVE SMOOTH",
"681 544 LINE"
);
}
);
width = 899;
},
{
anchors = (
{
name = _topright;
position = "{634, 609}";
},
{
name = top;
position = "{690, 741}";
}
);
components = (
{
alignment = -1;
name = "Ka-vit";
}
);
layerId = "75F4F5E0-D5B2-4549-A21B-477AF2945BCD";
paths = (
{
closed = 1;
nodes = (
"683 528 LINE",
"788 620 LINE SMOOTH",
"795 626 OFFCURVE",
"803 634 OFFCURVE",
"810 643 CURVE SMOOTH",
"828 666 OFFCURVE",
"825 699 OFFCURVE",
"802 717 CURVE SMOOTH",
"779 735 OFFCURVE",
"745 732 OFFCURVE",
"728 710 CURVE SMOOTH",
"723 703 OFFCURVE",
"714 689 OFFCURVE",
"710 683 CURVE SMOOTH",
"635 566 LINE"
);
}
);
width = 843.21311;
},
{
anchors = (
{
name = _topright;
position = "{612, 609}";
},
{
name = top;
position = "{670, 760}";
}
);
components = (
{
alignment = -1;
name = "Ka-vit";
}
);
layerId = "3F80E263-2B21-4BD5-AA74-4B7BB1AD4533";
paths = (
{
closed = 1;
nodes = (
"715 519 LINE",
"810 616 LINE SMOOTH",
"817 623 OFFCURVE",
"826 634 OFFCURVE",
"832 644 CURVE SMOOTH",
"849 671 OFFCURVE",
"844 707 OFFCURVE",
"817 724 CURVE SMOOTH",
"790 741 OFFCURVE",
"753 736 OFFCURVE",
"737 710 CURVE SMOOTH",
"731 700 OFFCURVE",
"723 685 OFFCURVE",
"719 678 CURVE SMOOTH",
"657 555 LINE"
);
}
);
width = 870.42623;
}
);
leftKerningGroup = "Ka-vit";
leftMetricsKey = "=Ka-vit";
unicode = 10589;
script = vithkuqi;
category = Letter;
subCategory = Uppercase;
},
{
glyphname = "Re-vit";
lastChange = "2021-11-03 06:54:48 +0000";
layers = (
{
layerId = UUID0;
paths = (
{
closed = 1;
nodes = (
"589 -10 OFFCURVE",
"689 276 OFFCURVE",
"689 481 CURVE SMOOTH",
"689 667 OFFCURVE",
"624 726 OFFCURVE",
"521 726 CURVE SMOOTH",
"409 726 OFFCURVE",
"350 639 OFFCURVE",
"350 545 CURVE SMOOTH",
"350 437 OFFCURVE",
"402 388 OFFCURVE",
"452 347 CURVE",
"517 407 LINE",
"470 439 OFFCURVE",
"445 486 OFFCURVE",
"445 545 CURVE SMOOTH",
"445 605 OFFCURVE",
"476 648 OFFCURVE",
"525 648 CURVE SMOOTH",
"581 648 OFFCURVE",
"612 605 OFFCURVE",
"612 488 CURVE SMOOTH",
"612 279 OFFCURVE",
"505 68 OFFCURVE",
"336 68 CURVE SMOOTH",
"236 68 OFFCURVE",
"209 148 OFFCURVE",
"209 226 CURVE SMOOTH",
"209 735 LINE SMOOTH",
"209 806 OFFCURVE",
"184 856 OFFCURVE",
"116 856 CURVE SMOOTH",
"78 856 OFFCURVE",
"37 836 OFFCURVE",
"5 809 CURVE",
"33 752 LINE",
"49 759 OFFCURVE",
"67 765 OFFCURVE",
"78 765 CURVE SMOOTH",
"107 765 OFFCURVE",
"119 753 OFFCURVE",
"119 717 CURVE SMOOTH",
"119 218 LINE SMOOTH",
"119 72 OFFCURVE",
"178 -10 OFFCURVE",
"332 -10 CURVE SMOOTH"
);
}
);
width = 739;
},
{
layerId = "58AAA307-6DE9-4107-B80A-C255AE991657";
paths = (
{
closed = 1;
nodes = (
"618 -10 OFFCURVE",
"755 223 OFFCURVE",
"755 482 CURVE SMOOTH",
"755 660 OFFCURVE",
"682 726 OFFCURVE",
"572 726 CURVE SMOOTH",
"438 726 OFFCURVE",
"370 640 OFFCURVE",
"370 537 CURVE SMOOTH",
"370 432 OFFCURVE",
"414 380 OFFCURVE",
"486 325 CURVE",
"581 415 LINE",
"564 432 OFFCURVE",
"529 473 OFFCURVE",
"529 537 CURVE SMOOTH",
"529 571 OFFCURVE",
"540 599 OFFCURVE",
"572 599 CURVE SMOOTH",
"604 599 OFFCURVE",
"626 560 OFFCURVE",
"626 482 CURVE SMOOTH",
"626 266 OFFCURVE",
"515 117 OFFCURVE",
"382 117 CURVE SMOOTH",
"307 117 OFFCURVE",
"280 168 OFFCURVE",
"280 234 CURVE SMOOTH",
"279 703 LINE SMOOTH",
"279 823 OFFCURVE",
"220 855 OFFCURVE",
"151 855 CURVE SMOOTH",
"98 855 OFFCURVE",
"36 826 OFFCURVE",
"5 799 CURVE",
"45 690 LINE",
"57 694 OFFCURVE",
"68 702 OFFCURVE",
"85 702 CURVE SMOOTH",
"103 702 OFFCURVE",
"121 688 OFFCURVE",
"121 655 CURVE SMOOTH",
"122 214 LINE SMOOTH",
"122 75 OFFCURVE",
"195 -10 OFFCURVE",
"367 -10 CURVE SMOOTH"
);
}
);
width = 805;
},
{
layerId = "75F4F5E0-D5B2-4549-A21B-477AF2945BCD";
paths = (
{
closed = 1;
nodes = (
"599 -10 OFFCURVE",
"711 259 OFFCURVE",
"711 481 CURVE SMOOTH",
"711 665 OFFCURVE",
"643 726 OFFCURVE",
"538 726 CURVE SMOOTH",
"419 726 OFFCURVE",
"357 639 OFFCURVE",
"357 542 CURVE SMOOTH",
"357 435 OFFCURVE",
"406 385 OFFCURVE",
"463 340 CURVE",
"538 410 LINE",
"501 437 OFFCURVE",
"473 482 OFFCURVE",
"473 542 CURVE SMOOTH",
"473 594 OFFCURVE",
"497 632 OFFCURVE",
"540 632 CURVE SMOOTH",
"589 632 OFFCURVE",
"617 590 OFFCURVE",
"617 486 CURVE SMOOTH",
"617 275 OFFCURVE",
"508 84 OFFCURVE",
"351 84 CURVE SMOOTH",
"259 84 OFFCURVE",
"232 155 OFFCURVE",
"232 229 CURVE SMOOTH",
"232 725 LINE SMOOTH",
"232 812 OFFCURVE",
"196 856 OFFCURVE",
"127 856 CURVE SMOOTH",
"85 856 OFFCURVE",
"37 833 OFFCURVE",
"5 806 CURVE",
"37 732 LINE",
"52 738 OFFCURVE",
"67 744 OFFCURVE",
"80 744 CURVE SMOOTH",
"106 744 OFFCURVE",
"120 732 OFFCURVE",
"120 697 CURVE SMOOTH",
"120 217 LINE SMOOTH",
"120 73 OFFCURVE",
"184 -10 OFFCURVE",
"343 -10 CURVE SMOOTH"
);
}
);
width = 760.63934;
},
{
layerId = "3F80E263-2B21-4BD5-AA74-4B7BB1AD4533";
paths = (
{
closed = 1;
nodes = (
"608 -10 OFFCURVE",
"732 241 OFFCURVE",
"732 481 CURVE SMOOTH",
"732 663 OFFCURVE",
"662 726 OFFCURVE",
"555 726 CURVE SMOOTH",
"428 726 OFFCURVE",
"363 639 OFFCURVE",
"363 540 CURVE SMOOTH",
"363 434 OFFCURVE",
"410 383 OFFCURVE",
"474 333 CURVE",
"559 412 LINE",
"532 435 OFFCURVE",
"500 478 OFFCURVE",
"500 540 CURVE SMOOTH",
"500 583 OFFCURVE",
"518 616 OFFCURVE",
"556 616 CURVE SMOOTH",
"596 616 OFFCURVE",
"621 575 OFFCURVE",
"621 484 CURVE SMOOTH",
"621 271 OFFCURVE",
"511 100 OFFCURVE",
"366 100 CURVE SMOOTH",
"282 100 OFFCURVE",
"255 161 OFFCURVE",
"255 231 CURVE SMOOTH",
"255 714 LINE SMOOTH",
"255 817 OFFCURVE",
"208 856 OFFCURVE",
"139 856 CURVE SMOOTH",
"91 856 OFFCURVE",
"37 830 OFFCURVE",
"5 803 CURVE",
"41 712 LINE",
"54 717 OFFCURVE",
"67 724 OFFCURVE",
"82 724 CURVE SMOOTH",
"105 724 OFFCURVE",
"120 711 OFFCURVE",
"120 677 CURVE SMOOTH",
"121 216 LINE SMOOTH",
"121 74 OFFCURVE",
"189 -10 OFFCURVE",
"355 -10 CURVE SMOOTH"
);
}
);
width = 782.27869;
}
);
leftKerningGroup = "Re-vit";
rightMetricsKey = "=Se-vit";
unicode = 1058A;
script = vithkuqi;
category = Letter;
subCategory = Uppercase;
},
{
glyphname = "Se-vit";
lastChange = "2021-11-03 06:54:48 +0000";
layers = (
{
anchors = (
{
name = top;
position = "{352, 714}";
}
);
layerId = UUID0;
paths = (
{
closed = 1;
nodes = (
"589 -10 OFFCURVE",
"689 276 OFFCURVE",
"689 481 CURVE SMOOTH",
"689 667 OFFCURVE",
"624 726 OFFCURVE",
"521 726 CURVE SMOOTH",
"409 726 OFFCURVE",
"350 639 OFFCURVE",
"350 545 CURVE SMOOTH",
"350 437 OFFCURVE",
"402 388 OFFCURVE",
"452 347 CURVE",
"517 407 LINE",
"470 439 OFFCURVE",
"445 486 OFFCURVE",
"445 545 CURVE SMOOTH",
"445 605 OFFCURVE",
"476 648 OFFCURVE",
"525 648 CURVE SMOOTH",
"581 648 OFFCURVE",
"612 605 OFFCURVE",
"612 488 CURVE SMOOTH",
"612 279 OFFCURVE",
"505 68 OFFCURVE",
"336 68 CURVE SMOOTH",
"236 68 OFFCURVE",
"209 148 OFFCURVE",
"209 226 CURVE SMOOTH",
"209 605 LINE SMOOTH",
"209 676 OFFCURVE",
"184 726 OFFCURVE",
"116 726 CURVE SMOOTH",
"78 726 OFFCURVE",
"37 706 OFFCURVE",
"5 679 CURVE",
"33 622 LINE",
"49 629 OFFCURVE",
"67 635 OFFCURVE",
"78 635 CURVE SMOOTH",
"107 635 OFFCURVE",
"119 623 OFFCURVE",
"119 587 CURVE SMOOTH",
"119 218 LINE SMOOTH",
"119 72 OFFCURVE",
"178 -10 OFFCURVE",
"332 -10 CURVE SMOOTH"
);
}
);
width = 739;
},
{
anchors = (
{
name = top;
position = "{374, 714}";
}
);
layerId = "58AAA307-6DE9-4107-B80A-C255AE991657";
paths = (
{
closed = 1;
nodes = (
"618 -10 OFFCURVE",
"755 223 OFFCURVE",
"755 482 CURVE SMOOTH",
"755 660 OFFCURVE",
"682 726 OFFCURVE",
"572 726 CURVE SMOOTH",
"438 726 OFFCURVE",
"370 640 OFFCURVE",
"370 537 CURVE SMOOTH",
"370 432 OFFCURVE",
"414 380 OFFCURVE",
"486 325 CURVE",
"581 415 LINE",
"564 432 OFFCURVE",
"529 473 OFFCURVE",
"529 537 CURVE SMOOTH",
"529 571 OFFCURVE",
"540 599 OFFCURVE",
"572 599 CURVE SMOOTH",
"604 599 OFFCURVE",
"626 560 OFFCURVE",
"626 482 CURVE SMOOTH",
"626 266 OFFCURVE",
"515 117 OFFCURVE",
"382 117 CURVE SMOOTH",
"307 117 OFFCURVE",
"280 168 OFFCURVE",
"280 234 CURVE SMOOTH",
"279 574 LINE SMOOTH",
"279 694 OFFCURVE",
"220 726 OFFCURVE",
"151 726 CURVE SMOOTH",
"98 726 OFFCURVE",
"36 697 OFFCURVE",
"5 670 CURVE",
"45 561 LINE",
"57 565 OFFCURVE",
"68 573 OFFCURVE",
"85 573 CURVE SMOOTH",
"103 573 OFFCURVE",
"121 559 OFFCURVE",
"121 526 CURVE SMOOTH",
"122 214 LINE SMOOTH",
"122 75 OFFCURVE",
"195 -10 OFFCURVE",
"367 -10 CURVE SMOOTH"
);
}
);
width = 805;
},
{
anchors = (
{
name = top;
position = "{359, 714}";
}
);
layerId = "75F4F5E0-D5B2-4549-A21B-477AF2945BCD";
paths = (
{
closed = 1;
nodes = (
"599 -10 OFFCURVE",
"711 259 OFFCURVE",
"711 481 CURVE SMOOTH",
"711 665 OFFCURVE",
"643 726 OFFCURVE",
"538 726 CURVE SMOOTH",
"419 726 OFFCURVE",
"357 639 OFFCURVE",
"357 542 CURVE SMOOTH",
"357 435 OFFCURVE",
"406 385 OFFCURVE",
"463 340 CURVE",
"538 410 LINE",
"501 437 OFFCURVE",
"473 482 OFFCURVE",
"473 542 CURVE SMOOTH",
"473 594 OFFCURVE",
"497 632 OFFCURVE",
"540 632 CURVE SMOOTH",
"589 632 OFFCURVE",
"617 590 OFFCURVE",
"617 486 CURVE SMOOTH",
"617 275 OFFCURVE",
"508 84 OFFCURVE",
"351 84 CURVE SMOOTH",
"259 84 OFFCURVE",
"232 155 OFFCURVE",
"232 229 CURVE SMOOTH",
"232 595 LINE SMOOTH",
"232 682 OFFCURVE",
"196 726 OFFCURVE",
"127 726 CURVE SMOOTH",
"85 726 OFFCURVE",
"37 703 OFFCURVE",
"5 676 CURVE",
"37 602 LINE",
"52 608 OFFCURVE",
"67 615 OFFCURVE",
"80 615 CURVE SMOOTH",
"106 615 OFFCURVE",
"120 602 OFFCURVE",
"120 567 CURVE SMOOTH",
"120 217 LINE SMOOTH",
"120 73 OFFCURVE",
"184 -10 OFFCURVE",
"343 -10 CURVE SMOOTH"
);
}
);
width = 760.63934;
},
{
anchors = (
{
name = top;
position = "{366, 714}";
}
);
layerId = "3F80E263-2B21-4BD5-AA74-4B7BB1AD4533";
paths = (
{
closed = 1;
nodes = (
"608 -10 OFFCURVE",
"732 241 OFFCURVE",
"732 481 CURVE SMOOTH",
"732 663 OFFCURVE",
"662 726 OFFCURVE",
"555 726 CURVE SMOOTH",
"428 726 OFFCURVE",
"363 639 OFFCURVE",
"363 540 CURVE SMOOTH",
"363 434 OFFCURVE",
"410 383 OFFCURVE",
"474 333 CURVE",
"559 412 LINE",
"532 435 OFFCURVE",
"500 478 OFFCURVE",
"500 540 CURVE SMOOTH",
"500 583 OFFCURVE",
"518 616 OFFCURVE",
"556 616 CURVE SMOOTH",
"596 616 OFFCURVE",
"621 575 OFFCURVE",
"621 484 CURVE SMOOTH",
"621 271 OFFCURVE",
"511 100 OFFCURVE",
"366 100 CURVE SMOOTH",
"282 100 OFFCURVE",
"255 161 OFFCURVE",
"255 231 CURVE SMOOTH",
"255 585 LINE SMOOTH",
"255 688 OFFCURVE",
"208 726 OFFCURVE",
"139 726 CURVE SMOOTH",
"91 726 OFFCURVE",
"37 700 OFFCURVE",
"5 673 CURVE",
"41 582 LINE",
"54 587 OFFCURVE",
"67 595 OFFCURVE",
"82 595 CURVE SMOOTH",
"105 595 OFFCURVE",
"120 581 OFFCURVE",
"120 547 CURVE SMOOTH",
"121 216 LINE SMOOTH",
"121 74 OFFCURVE",
"189 -10 OFFCURVE",
"355 -10 CURVE SMOOTH"
);
}
);
width = 782.27869;
}
);
leftKerningGroup = "Re-vit";
leftMetricsKey = "Re-vit";
unicode = 1058C;
script = vithkuqi;
category = Letter;
subCategory = Uppercase;
},
{
glyphname = "She-vit";
lastChange = "2021-11-03 06:54:48 +0000";
layers = (
{
anchors = (
{
name = _top;
position = "{358, 714}";
},
{
name = top;
position = "{358, 889}";
}
);
components = (
{
name = "Se-vit";
}
);
layerId = UUID0;
paths = (
{
closed = 1;
nodes = (
"503 820 LINE",
"503 889 LINE",
"213 889 LINE",
"213 820 LINE"
);
}
);
width = 739;
},
{
anchors = (
{
name = _top;
position = "{363, 714}";
},
{
name = top;
position = "{363, 890}";
}
);
components = (
{
name = "Se-vit";
}
);
layerId = "58AAA307-6DE9-4107-B80A-C255AE991657";
paths = (
{
closed = 1;
nodes = (
"515 791 LINE",
"515 890 LINE",
"210 890 LINE",
"210 791 LINE"
);
}
);
width = 805;
},
{
anchors = (
{
name = _top;
position = "{360, 714}";
},
{
name = top;
position = "{360, 889}";
}
);
components = (
{
alignment = -1;
name = "Se-vit";
}
);
layerId = "75F4F5E0-D5B2-4549-A21B-477AF2945BCD";
paths = (
{
closed = 1;
nodes = (
"507 810 LINE",
"507 889 LINE",
"212 889 LINE",
"212 810 LINE"
);
}
);
width = 760.63934;
},
{
anchors = (
{
name = _top;
position = "{361, 714}";
},
{
name = top;
position = "{361, 889}";
}
);
components = (
{
alignment = -1;
name = "Se-vit";
}
);
layerId = "3F80E263-2B21-4BD5-AA74-4B7BB1AD4533";
paths = (
{
closed = 1;
nodes = (
"511 801 LINE",
"511 889 LINE",
"211 889 LINE",
"211 801 LINE"
);
}
);
width = 782.27869;
}
);
leftKerningGroup = "Re-vit";
leftMetricsKey = "Se-vit";
rightMetricsKey = "Se-vit";
unicode = 1058D;
script = vithkuqi;
category = Letter;
subCategory = Uppercase;
},
{
glyphname = "Te-vit";
lastChange = "2021-11-03 06:54:48 +0000";
layers = (
{
layerId = UUID0;
paths = (
{
closed = 1;
nodes = (
"621 149 OFFCURVE",
"707 266 OFFCURVE",
"726 372 CURVE",
"659 399 LINE",
"635 295 OFFCURVE",
"572 227 OFFCURVE",
"428 227 CURVE SMOOTH",
"289 227 OFFCURVE",
"192 304 OFFCURVE",
"192 399 CURVE SMOOTH",
"192 459 OFFCURVE",
"229 483 OFFCURVE",
"275 483 CURVE SMOOTH",
"319 483 OFFCURVE",
"364 451 OFFCURVE",
"383 412 CURVE",
"387 497 LINE",
"376 497 LINE",
"356 523 OFFCURVE",
"319 556 OFFCURVE",
"248 556 CURVE SMOOTH",
"169 556 OFFCURVE",
"97 506 OFFCURVE",
"97 399 CURVE SMOOTH",
"97 259 OFFCURVE",
"240 149 OFFCURVE",
"428 149 CURVE SMOOTH"
);
},
{
closed = 1;
nodes = (
"466 -240 LINE",
"466 845 LINE",
"376 845 LINE",
"376 808 LINE",
"383 775 LINE",
"377 749 OFFCURVE",
"376 714 OFFCURVE",
"376 688 CURVE SMOOTH",
"376 572 LINE SMOOTH",
"376 540 OFFCURVE",
"378 505 OFFCURVE",
"382 492 CURVE",
"376 460 LINE",
"376 -240 LINE"
);
},
{
closed = 1;
nodes = (
"45 700 LINE",
"40 739 OFFCURVE",
"46 775 OFFCURVE",
"88 775 CURVE SMOOTH",
"153 775 OFFCURVE",
"237 703 OFFCURVE",
"304 703 CURVE SMOOTH",
"338 703 OFFCURVE",
"360 725 OFFCURVE",
"374 758 CURVE",
"412 758 LINE",
"376 845 LINE",
"376 796 OFFCURVE",
"356 785 OFFCURVE",
"323 785 CURVE SMOOTH",
"268 785 OFFCURVE",
"191 856 OFFCURVE",
"96 856 CURVE SMOOTH",
"5 856 OFFCURVE",
"-15 795 OFFCURVE",
"-15 748 CURVE SMOOTH",
"-15 728 OFFCURVE",
"-11 716 OFFCURVE",
"-8 700 CURVE"
);
}
);
width = 761;
},
{
layerId = "58AAA307-6DE9-4107-B80A-C255AE991657";
paths = (
{
closed = 1;
nodes = (
"623 120 OFFCURVE",
"744 220 OFFCURVE",
"786 357 CURVE",
"689 409 LINE",
"641 316 OFFCURVE",
"582 247 OFFCURVE",
"440 247 CURVE SMOOTH",
"297 247 OFFCURVE",
"233 316 OFFCURVE",
"233 390 CURVE SMOOTH",
"233 428 OFFCURVE",
"254 448 OFFCURVE",
"283 448 CURVE SMOOTH",
"307 448 OFFCURVE",
"358 433 OFFCURVE",
"385 387 CURVE",
"370 514 LINE",
"359 514 LINE",
"335 548 OFFCURVE",
"289 572 OFFCURVE",
"232 572 CURVE SMOOTH",
"119 572 OFFCURVE",
"63 504 OFFCURVE",
"65 390 CURVE SMOOTH",
"68 221 OFFCURVE",
"230 120 OFFCURVE",
"440 120 CURVE SMOOTH"
);
},
{
closed = 1;
nodes = (
"507 -240 LINE",
"507 845 LINE",
"356 845 LINE",
"356 753 LINE",
"362 734 LINE",
"360 720 OFFCURVE",
"356 685 OFFCURVE",
"356 652 CURVE SMOOTH",
"356 611 LINE SMOOTH",
"356 579 OFFCURVE",
"359 524 OFFCURVE",
"366 511 CURVE",
"356 440 LINE",
"356 -240 LINE"
);
},
{
closed = 1;
nodes = (
"108 656 LINE",
"105 696 OFFCURVE",
"119 712 OFFCURVE",
"147 712 CURVE SMOOTH",
"202 712 OFFCURVE",
"233 662 OFFCURVE",
"279 662 CURVE SMOOTH",
"315 662 OFFCURVE",
"342 693 OFFCURVE",
"355 732 CURVE",
"368 732 LINE",
"356 845 LINE",
"356 808 OFFCURVE",
"339 803 OFFCURVE",
"300 803 CURVE SMOOTH",
"249 803 OFFCURVE",
"203 855 OFFCURVE",
"122 855 CURVE SMOOTH",
"37 855 OFFCURVE",
"-20 806 OFFCURVE",
"-20 725 CURVE SMOOTH",
"-20 696 OFFCURVE",
"-16 679 OFFCURVE",
"-7 656 CURVE"
);
}
);
width = 811;
},
{
layerId = "75F4F5E0-D5B2-4549-A21B-477AF2945BCD";
paths = (
{
closed = 1;
nodes = (
"622 139 OFFCURVE",
"719 251 OFFCURVE",
"746 367 CURVE",
"669 402 LINE",
"637 302 OFFCURVE",
"575 234 OFFCURVE",
"432 234 CURVE SMOOTH",
"292 234 OFFCURVE",
"205 308 OFFCURVE",
"205 396 CURVE SMOOTH",
"205 449 OFFCURVE",
"237 472 OFFCURVE",
"278 472 CURVE SMOOTH",
"315 472 OFFCURVE",
"362 445 OFFCURVE",
"384 404 CURVE",
"381 503 LINE",
"370 503 LINE",
"349 531 OFFCURVE",
"309 561 OFFCURVE",
"243 561 CURVE SMOOTH",
"153 561 OFFCURVE",
"86 505 OFFCURVE",
"87 396 CURVE SMOOTH",
"87 247 OFFCURVE",
"237 139 OFFCURVE",
"432 139 CURVE SMOOTH"
);
},
{
closed = 1;
nodes = (
"479 -240 LINE",
"479 845 LINE",
"369 845 LINE",
"369 790 LINE",
"376 762 LINE",
"371 739 OFFCURVE",
"369 704 OFFCURVE",
"369 676 CURVE SMOOTH",
"369 585 LINE SMOOTH",
"369 553 OFFCURVE",
"372 511 OFFCURVE",
"377 498 CURVE",
"369 453 LINE",
"369 -240 LINE"
);
},
{
closed = 1;
nodes = (
"66 686 LINE",
"61 725 OFFCURVE",
"70 754 OFFCURVE",
"107 754 CURVE SMOOTH",
"169 754 OFFCURVE",
"236 690 OFFCURVE",
"296 690 CURVE SMOOTH",
"330 690 OFFCURVE",
"354 715 OFFCURVE",
"368 749 CURVE",
"398 749 LINE",
"369 845 LINE",
"369 800 OFFCURVE",
"350 791 OFFCURVE",
"315 791 CURVE SMOOTH",
"262 791 OFFCURVE",
"195 856 OFFCURVE",
"105 856 CURVE SMOOTH",
"15 856 OFFCURVE",
"-17 799 OFFCURVE",
"-17 740 CURVE SMOOTH",
"-17 718 OFFCURVE",
"-13 704 OFFCURVE",
"-8 686 CURVE"
);
}
);
width = 777.39344;
},
{
layerId = "3F80E263-2B21-4BD5-AA74-4B7BB1AD4533";
paths = (
{
closed = 1;
nodes = (
"622 130 OFFCURVE",
"731 236 OFFCURVE",
"766 362 CURVE",
"679 405 LINE",
"639 309 OFFCURVE",
"578 240 OFFCURVE",
"436 240 CURVE SMOOTH",
"294 240 OFFCURVE",
"219 312 OFFCURVE",
"219 393 CURVE SMOOTH",
"219 439 OFFCURVE",
"245 460 OFFCURVE",
"280 460 CURVE SMOOTH",
"311 460 OFFCURVE",
"360 439 OFFCURVE",
"384 396 CURVE",
"376 508 LINE",
"365 508 LINE",
"342 539 OFFCURVE",
"299 566 OFFCURVE",
"238 566 CURVE SMOOTH",
"136 566 OFFCURVE",
"75 505 OFFCURVE",
"76 393 CURVE SMOOTH",
"78 234 OFFCURVE",
"234 130 OFFCURVE",
"436 130 CURVE SMOOTH"
);
},
{
closed = 1;
nodes = (
"493 -240 LINE",
"493 845 LINE",
"363 845 LINE",
"363 772 LINE",
"369 748 LINE",
"366 730 OFFCURVE",
"363 695 OFFCURVE",
"363 664 CURVE SMOOTH",
"363 598 LINE SMOOTH",
"363 566 OFFCURVE",
"366 517 OFFCURVE",
"372 504 CURVE",
"363 447 LINE",
"363 -240 LINE"
);
},
{
closed = 1;
nodes = (
"86 671 LINE",
"82 711 OFFCURVE",
"94 734 OFFCURVE",
"127 734 CURVE SMOOTH",
"185 734 OFFCURVE",
"235 676 OFFCURVE",
"288 676 CURVE SMOOTH",
"323 676 OFFCURVE",
"348 704 OFFCURVE",
"362 741 CURVE",
"383 741 LINE",
"363 845 LINE",
"363 804 OFFCURVE",
"345 797 OFFCURVE",
"308 797 CURVE SMOOTH",
"256 797 OFFCURVE",
"199 856 OFFCURVE",
"113 856 CURVE SMOOTH",
"26 856 OFFCURVE",
"-18 802 OFFCURVE",
"-18 733 CURVE SMOOTH",
"-18 707 OFFCURVE",
"-14 692 OFFCURVE",
"-8 671 CURVE"
);
}
);
width = 793.78689;
}
);
leftKerningGroup = "Te-vit";
rightKerningGroup = "Te-vit";
unicode = 1058E;
script = vithkuqi;
category = Letter;
subCategory = Uppercase;
},
{
glyphname = "The-vit";
lastChange = "2021-11-03 06:54:48 +0000";
layers = (
{
layerId = UUID0;
paths = (
{
closed = 1;
nodes = (
"277 92 OFFCURVE",
"445 310 OFFCURVE",
"445 550 CURVE SMOOTH",
"445 678 OFFCURVE",
"397 726 OFFCURVE",
"319 726 CURVE SMOOTH",
"230 726 OFFCURVE",
"117 634 OFFCURVE",
"117 369 CURVE SMOOTH",
"117 130 OFFCURVE",
"201 -11 OFFCURVE",
"362 -11 CURVE SMOOTH",
"402 -11 OFFCURVE",
"424 -3 OFFCURVE",
"451 8 CURVE",
"451 68 LINE",
"434 66 OFFCURVE",
"415 66 OFFCURVE",
"402 66 CURVE SMOOTH",
"266 66 OFFCURVE",
"212 169 OFFCURVE",
"212 368 CURVE SMOOTH",
"212 606 OFFCURVE",
"277 648 OFFCURVE",
"319 648 CURVE SMOOTH",
"350 648 OFFCURVE",
"368 616 OFFCURVE",
"368 548 CURVE SMOOTH",
"368 328 OFFCURVE",
"222 152 OFFCURVE",
"45 54 CURVE",
"82 0 LINE"
);
}
);
width = 531;
},
{
layerId = "58AAA307-6DE9-4107-B80A-C255AE991657";
paths = (
{
closed = 1;
nodes = (
"272 80 OFFCURVE",
"496 299 OFFCURVE",
"496 521 CURVE SMOOTH",
"496 677 OFFCURVE",
"413 726 OFFCURVE",
"316 726 CURVE SMOOTH",
"201 726 OFFCURVE",
"77 644 OFFCURVE",
"77 369 CURVE SMOOTH",
"77 126 OFFCURVE",
"188 -9 OFFCURVE",
"393 -9 CURVE SMOOTH",
"441 -9 OFFCURVE",
"463 -4 OFFCURVE",
"482 0 CURVE",
"482 125 LINE",
"465 124 OFFCURVE",
"426 123 OFFCURVE",
"413 123 CURVE SMOOTH",
"259 123 OFFCURVE",
"236 217 OFFCURVE",
"236 375 CURVE SMOOTH",
"236 544 OFFCURVE",
"277 599 OFFCURVE",
"317 599 CURVE SMOOTH",
"349 599 OFFCURVE",
"370 574 OFFCURVE",
"370 519 CURVE SMOOTH",
"370 329 OFFCURVE",
"212 170 OFFCURVE",
"5 87 CURVE",
"47 0 LINE"
);
}
);
width = 541;
},
{
layerId = "75F4F5E0-D5B2-4549-A21B-477AF2945BCD";
paths = (
{
closed = 1;
nodes = (
"275 88 OFFCURVE",
"462 306 OFFCURVE",
"462 540 CURVE SMOOTH",
"462 678 OFFCURVE",
"402 726 OFFCURVE",
"318 726 CURVE SMOOTH",
"220 726 OFFCURVE",
"104 637 OFFCURVE",
"104 369 CURVE SMOOTH",
"104 129 OFFCURVE",
"197 -10 OFFCURVE",
"372 -10 CURVE SMOOTH",
"415 -10 OFFCURVE",
"437 -3 OFFCURVE",
"461 5 CURVE",
"461 87 LINE",
"444 85 OFFCURVE",
"419 85 OFFCURVE",
"406 85 CURVE SMOOTH",
"264 85 OFFCURVE",
"220 185 OFFCURVE",
"220 370 CURVE SMOOTH",
"220 586 OFFCURVE",
"277 632 OFFCURVE",
"318 632 CURVE SMOOTH",
"350 632 OFFCURVE",
"369 602 OFFCURVE",
"369 538 CURVE SMOOTH",
"369 328 OFFCURVE",
"219 158 OFFCURVE",
"32 65 CURVE",
"71 0 LINE"
);
}
);
width = 534.27869;
},
{
layerId = "3F80E263-2B21-4BD5-AA74-4B7BB1AD4533";
paths = (
{
closed = 1;
nodes = (
"274 84 OFFCURVE",
"479 303 OFFCURVE",
"479 531 CURVE SMOOTH",
"479 678 OFFCURVE",
"407 726 OFFCURVE",
"317 726 CURVE SMOOTH",
"211 726 OFFCURVE",
"91 640 OFFCURVE",
"91 369 CURVE SMOOTH",
"91 128 OFFCURVE",
"193 -10 OFFCURVE",
"382 -10 CURVE SMOOTH",
"428 -10 OFFCURVE",
"450 -3 OFFCURVE",
"471 3 CURVE",
"471 106 LINE",
"454 104 OFFCURVE",
"422 104 OFFCURVE",
"409 104 CURVE SMOOTH",
"262 104 OFFCURVE",
"228 201 OFFCURVE",
"228 372 CURVE SMOOTH",
"228 566 OFFCURVE",
"277 616 OFFCURVE",
"318 616 CURVE SMOOTH",
"350 616 OFFCURVE",
"369 588 OFFCURVE",
"369 529 CURVE SMOOTH",
"369 328 OFFCURVE",
"216 164 OFFCURVE",
"19 76 CURVE",
"59 0 LINE"
);
}
);
width = 537.55738;
}
);
unicode = 1058F;
script = vithkuqi;
category = Letter;
subCategory = Uppercase;
},
{
glyphname = "U-vit";
lastChange = "2021-11-03 06:54:48 +0000";
layers = (
{
anchors = (
{
name = top;
position = "{365, 714}";
}
);
layerId = UUID0;
paths = (
{
closed = 1;
nodes = (
"409 0 LINE",
"493 134 OFFCURVE",
"561 458 OFFCURVE",
"585 639 CURVE",
"561 626 LINE",
"702 652 LINE",
"702 714 LINE",
"522 713 LINE",
"490 486 OFFCURVE",
"469 298 OFFCURVE",
"378 87 CURVE",
"410 54 LINE",
"307 616 OFFCURVE",
"240 726 OFFCURVE",
"128 726 CURVE SMOOTH",
"78 726 OFFCURVE",
"49 702 OFFCURVE",
"12 661 CURVE",
"44 620 LINE",
"57 629 OFFCURVE",
"74 645 OFFCURVE",
"95 645 CURVE SMOOTH",
"174 645 OFFCURVE",
"223 538 OFFCURVE",
"333 0 CURVE"
);
}
);
width = 725;
},
{
anchors = (
{
name = top;
position = "{355, 714}";
}
);
layerId = "58AAA307-6DE9-4107-B80A-C255AE991657";
paths = (
{
closed = 1;
nodes = (
"434 0 LINE",
"504 113 OFFCURVE",
"585 267 OFFCURVE",
"635 677 CURVE",
"557 573 LINE",
"738 600 LINE",
"738 714 LINE",
"512 714 LINE",
"503 423 OFFCURVE",
"431 215 OFFCURVE",
"377 125 CURVE",
"424 64 LINE",
"351 507 OFFCURVE",
"313 726 OFFCURVE",
"142 726 CURVE SMOOTH",
"87 726 OFFCURVE",
"36 698 OFFCURVE",
"5 671 CURVE",
"46 561 LINE",
"59 570 OFFCURVE",
"69 573 OFFCURVE",
"86 573 CURVE SMOOTH",
"149 573 OFFCURVE",
"193 488 OFFCURVE",
"280 0 CURVE"
);
}
);
width = 753;
},
{
anchors = (
{
name = top;
position = "{362, 714}";
}
);
layerId = "75F4F5E0-D5B2-4549-A21B-477AF2945BCD";
paths = (
{
closed = 1;
nodes = (
"417 0 LINE",
"497 127 OFFCURVE",
"569 395 OFFCURVE",
"601 651 CURVE",
"560 609 LINE",
"714 635 LINE",
"714 714 LINE",
"519 713 LINE",
"494 465 OFFCURVE",
"457 271 OFFCURVE",
"378 99 CURVE",
"415 57 LINE",
"321 580 OFFCURVE",
"264 726 OFFCURVE",
"133 726 CURVE SMOOTH",
"81 726 OFFCURVE",
"45 701 OFFCURVE",
"10 664 CURVE",
"45 601 LINE",
"58 610 OFFCURVE",
"72 621 OFFCURVE",
"92 621 CURVE SMOOTH",
"166 621 OFFCURVE",
"213 522 OFFCURVE",
"316 0 CURVE"
);
}
);
width = 734.18033;
},
{
anchors = (
{
name = top;
position = "{359, 714}";
}
);
layerId = "3F80E263-2B21-4BD5-AA74-4B7BB1AD4533";
paths = (
{
closed = 1;
nodes = (
"425 0 LINE",
"500 120 OFFCURVE",
"577 333 OFFCURVE",
"618 664 CURVE",
"559 591 LINE",
"726 618 LINE",
"726 714 LINE",
"516 713 LINE",
"498 445 OFFCURVE",
"444 244 OFFCURVE",
"378 112 CURVE",
"419 60 LINE",
"336 544 OFFCURVE",
"288 726 OFFCURVE",
"137 726 CURVE SMOOTH",
"84 726 OFFCURVE",
"41 700 OFFCURVE",
"8 667 CURVE",
"45 581 LINE",
"58 590 OFFCURVE",
"71 598 OFFCURVE",
"89 598 CURVE SMOOTH",
"158 598 OFFCURVE",
"203 505 OFFCURVE",
"298 0 CURVE"
);
}
);
width = 743.36066;
}
);
leftKerningGroup = "U-vit";
rightKerningGroup = "Lla-vit";
unicode = 10590;
script = vithkuqi;
category = Letter;
subCategory = Uppercase;
},
{
glyphname = "Ve-vit";
lastChange = "2021-11-03 06:54:48 +0000";
layers = (
{
layerId = UUID0;
paths = (
{
closed = 1;
nodes = (
"800 -256 OFFCURVE",
"842 -210 OFFCURVE",
"842 -150 CURVE SMOOTH",
"842 -64 OFFCURVE",
"761 -13 OFFCURVE",
"577 -13 CURVE SMOOTH",
"396 -13 OFFCURVE",
"243 -89 OFFCURVE",
"165 -160 CURVE",
"206 -214 LINE",
"281 -153 OFFCURVE",
"421 -87 OFFCURVE",
"577 -87 CURVE SMOOTH",
"726 -87 OFFCURVE",
"764 -122 OFFCURVE",
"764 -146 CURVE SMOOTH",
"764 -168 OFFCURVE",
"750 -182 OFFCURVE",
"726 -182 CURVE SMOOTH",
"688 -182 OFFCURVE",
"669 -150 OFFCURVE",
"669 -113 CURVE SMOOTH",
"669 714 LINE",
"579 714 LINE",
"579 173 LINE",
"586 148 LINE",
"581 104 OFFCURVE",
"579 70 OFFCURVE",
"579 41 CURVE SMOOTH",
"579 -122 LINE SMOOTH",
"579 -226 OFFCURVE",
"656 -256 OFFCURVE",
"719 -256 CURVE SMOOTH"
);
},
{
closed = 1;
nodes = (
"477 -10 OFFCURVE",
"544 52 OFFCURVE",
"573 110 CURVE",
"666 110 LINE",
"579 294 LINE",
"579 121 OFFCURVE",
"463 68 OFFCURVE",
"372 68 CURVE SMOOTH",
"272 68 OFFCURVE",
"209 128 OFFCURVE",
"209 226 CURVE SMOOTH",
"209 605 LINE SMOOTH",
"209 676 OFFCURVE",
"184 726 OFFCURVE",
"116 726 CURVE SMOOTH",
"78 726 OFFCURVE",
"37 706 OFFCURVE",
"5 679 CURVE",
"33 622 LINE",
"49 629 OFFCURVE",
"67 635 OFFCURVE",
"78 635 CURVE SMOOTH",
"107 635 OFFCURVE",
"119 623 OFFCURVE",
"119 587 CURVE SMOOTH",
"119 218 LINE SMOOTH",
"119 83 OFFCURVE",
"189 -10 OFFCURVE",
"357 -10 CURVE SMOOTH"
);
}
);
width = 772;
},
{
layerId = "58AAA307-6DE9-4107-B80A-C255AE991657";
paths = (
{
closed = 1;
nodes = (
"839 -254 OFFCURVE",
"900 -191 OFFCURVE",
"900 -104 CURVE SMOOTH",
"900 -19 OFFCURVE",
"856 67 OFFCURVE",
"625 67 CURVE SMOOTH",
"386 67 OFFCURVE",
"228 -17 OFFCURVE",
"127 -129 CURVE",
"210 -219 LINE",
"318 -119 OFFCURVE",
"433 -60 OFFCURVE",
"633 -60 CURVE SMOOTH",
"746 -60 OFFCURVE",
"771 -81 OFFCURVE",
"771 -104 CURVE SMOOTH",
"771 -120 OFFCURVE",
"760 -126 OFFCURVE",
"744 -126 CURVE SMOOTH",
"720 -126 OFFCURVE",
"709 -105 OFFCURVE",
"709 -79 CURVE SMOOTH",
"709 714 LINE",
"558 714 LINE",
"558 181 LINE",
"565 148 LINE",
"561 128 OFFCURVE",
"558 93 OFFCURVE",
"558 41 CURVE SMOOTH",
"558 -66 LINE SMOOTH",
"558 -193 OFFCURVE",
"619 -254 OFFCURVE",
"744 -254 CURVE SMOOTH"
);
},
{
closed = 1;
nodes = (
"463 66 OFFCURVE",
"529 117 OFFCURVE",
"542 156 CURVE",
"570 156 LINE",
"558 372 LINE",
"556 201 OFFCURVE",
"466 193 OFFCURVE",
"406 193 CURVE SMOOTH",
"310 193 OFFCURVE",
"280 254 OFFCURVE",
"280 320 CURVE SMOOTH",
"279 574 LINE SMOOTH",
"279 694 OFFCURVE",
"220 726 OFFCURVE",
"151 726 CURVE SMOOTH",
"98 726 OFFCURVE",
"36 697 OFFCURVE",
"5 670 CURVE",
"45 561 LINE",
"57 565 OFFCURVE",
"68 573 OFFCURVE",
"85 573 CURVE SMOOTH",
"103 573 OFFCURVE",
"121 559 OFFCURVE",
"121 526 CURVE SMOOTH",
"122 300 LINE SMOOTH",
"123 161 OFFCURVE",
"195 66 OFFCURVE",
"367 66 CURVE SMOOTH"
);
}
);
width = 818;
},
{
layerId = "75F4F5E0-D5B2-4549-A21B-477AF2945BCD";
paths = (
{
closed = 1;
nodes = (
"813 -255 OFFCURVE",
"861 -204 OFFCURVE",
"861 -135 CURVE SMOOTH",
"861 -49 OFFCURVE",
"792 13 OFFCURVE",
"593 13 CURVE SMOOTH",
"393 13 OFFCURVE",
"238 -65 OFFCURVE",
"153 -150 CURVE",
"207 -216 LINE",
"293 -142 OFFCURVE",
"425 -78 OFFCURVE",
"595 -78 CURVE SMOOTH",
"733 -78 OFFCURVE",
"766 -109 OFFCURVE",
"766 -132 CURVE SMOOTH",
"766 -152 OFFCURVE",
"753 -164 OFFCURVE",
"732 -164 CURVE SMOOTH",
"698 -164 OFFCURVE",
"682 -135 OFFCURVE",
"682 -102 CURVE SMOOTH",
"682 714 LINE",
"572 714 LINE",
"572 176 LINE",
"579 148 LINE",
"574 112 OFFCURVE",
"572 78 OFFCURVE",
"572 41 CURVE SMOOTH",
"572 -104 LINE SMOOTH",
"572 -215 OFFCURVE",
"644 -255 OFFCURVE",
"727 -255 CURVE SMOOTH"
);
},
{
closed = 1;
nodes = (
"472 15 OFFCURVE",
"539 73 OFFCURVE",
"563 125 CURVE",
"635 125 LINE",
"572 320 LINE",
"571 147 OFFCURVE",
"464 109 OFFCURVE",
"383 109 CURVE SMOOTH",
"284 109 OFFCURVE",
"232 169 OFFCURVE",
"232 257 CURVE SMOOTH",
"232 595 LINE SMOOTH",
"232 682 OFFCURVE",
"196 726 OFFCURVE",
"127 726 CURVE SMOOTH",
"85 726 OFFCURVE",
"37 703 OFFCURVE",
"5 676 CURVE",
"37 602 LINE",
"52 608 OFFCURVE",
"67 615 OFFCURVE",
"80 615 CURVE SMOOTH",
"106 615 OFFCURVE",
"120 602 OFFCURVE",
"120 567 CURVE SMOOTH",
"120 245 LINE SMOOTH",
"120 109 OFFCURVE",
"191 15 OFFCURVE",
"360 15 CURVE SMOOTH"
);
}
);
width = 787.08197;
},
{
layerId = "3F80E263-2B21-4BD5-AA74-4B7BB1AD4533";
paths = (
{
closed = 1;
nodes = (
"826 -255 OFFCURVE",
"880 -198 OFFCURVE",
"880 -120 CURVE SMOOTH",
"880 -34 OFFCURVE",
"823 39 OFFCURVE",
"609 39 CURVE SMOOTH",
"390 39 OFFCURVE",
"233 -42 OFFCURVE",
"140 -140 CURVE",
"208 -217 LINE",
"305 -131 OFFCURVE",
"429 -69 OFFCURVE",
"614 -69 CURVE SMOOTH",
"739 -69 OFFCURVE",
"768 -95 OFFCURVE",
"768 -118 CURVE SMOOTH",
"768 -136 OFFCURVE",
"756 -145 OFFCURVE",
"738 -145 CURVE SMOOTH",
"709 -145 OFFCURVE",
"695 -120 OFFCURVE",
"695 -91 CURVE SMOOTH",
"695 714 LINE",
"565 714 LINE",
"565 178 LINE",
"572 148 LINE",
"568 120 OFFCURVE",
"565 85 OFFCURVE",
"565 41 CURVE SMOOTH",
"565 -85 LINE SMOOTH",
"565 -204 OFFCURVE",
"632 -255 OFFCURVE",
"735 -255 CURVE SMOOTH"
);
},
{
closed = 1;
nodes = (
"468 40 OFFCURVE",
"534 94 OFFCURVE",
"553 140 CURVE",
"603 140 LINE",
"565 345 LINE",
"564 173 OFFCURVE",
"465 150 OFFCURVE",
"394 150 CURVE SMOOTH",
"297 150 OFFCURVE",
"255 210 OFFCURVE",
"255 288 CURVE SMOOTH",
"255 585 LINE SMOOTH",
"255 688 OFFCURVE",
"208 726 OFFCURVE",
"139 726 CURVE SMOOTH",
"91 726 OFFCURVE",
"37 700 OFFCURVE",
"5 673 CURVE",
"41 582 LINE",
"54 587 OFFCURVE",
"67 595 OFFCURVE",
"82 595 CURVE SMOOTH",
"105 595 OFFCURVE",
"120 581 OFFCURVE",
"120 547 CURVE SMOOTH",
"121 272 LINE SMOOTH",
"121 134 OFFCURVE",
"193 40 OFFCURVE",
"363 40 CURVE SMOOTH"
);
}
);
width = 802.16393;
}
);
leftKerningGroup = "Re-vit";
leftMetricsKey = "Re-vit";
unicode = 10591;
script = vithkuqi;
category = Letter;
subCategory = Uppercase;
},
{
glyphname = "Xe-vit";
lastChange = "2021-11-03 06:54:48 +0000";
layers = (
{
layerId = UUID0;
paths = (
{
closed = 1;
nodes = (
"459 -256 OFFCURVE",
"520 -138 OFFCURVE",
"520 -17 CURVE SMOOTH",
"520 145 OFFCURVE",
"400 213 OFFCURVE",
"306 306 CURVE SMOOTH",
"251 361 OFFCURVE",
"199 425 OFFCURVE",
"199 518 CURVE SMOOTH",
"199 611 OFFCURVE",
"242 663 OFFCURVE",
"267 688 CURVE",
"195 635 LINE",
"542 635 LINE",
"542 714 LINE",
"285 714 LINE SMOOTH",
"186 714 OFFCURVE",
"104 618 OFFCURVE",
"104 512 CURVE SMOOTH",
"104 382 OFFCURVE",
"171 310 OFFCURVE",
"249 236 CURVE SMOOTH",
"331 157 OFFCURVE",
"425 78 OFFCURVE",
"425 -17 CURVE SMOOTH",
"425 -118 OFFCURVE",
"371 -178 OFFCURVE",
"268 -178 CURVE SMOOTH",
"163 -178 OFFCURVE",
"97 -116 OFFCURVE",
"97 4 CURVE SMOOTH",
"97 198 OFFCURVE",
"267 338 OFFCURVE",
"467 376 CURVE",
"327 352 LINE",
"536 350 LINE",
"571 429 LINE",
"459 429 LINE",
"248 429 OFFCURVE",
"20 205 OFFCURVE",
"20 4 CURVE SMOOTH",
"20 -171 OFFCURVE",
"107 -256 OFFCURVE",
"268 -256 CURVE SMOOTH"
);
}
);
width = 611;
},
{
layerId = "58AAA307-6DE9-4107-B80A-C255AE991657";
paths = (
{
closed = 1;
nodes = (
"445 -255 OFFCURVE",
"547 -152 OFFCURVE",
"547 -12 CURVE SMOOTH",
"547 104 OFFCURVE",
"507 176 OFFCURVE",
"355 309 CURVE SMOOTH",
"282 373 OFFCURVE",
"242 400 OFFCURVE",
"242 500 CURVE SMOOTH",
"242 564 OFFCURVE",
"275 627 OFFCURVE",
"295 654 CURVE",
"213 588 LINE",
"590 588 LINE",
"588 714 LINE",
"300 714 LINE SMOOTH",
"196 714 OFFCURVE",
"85 646 OFFCURVE",
"85 490 CURVE SMOOTH",
"85 386 OFFCURVE",
"131 307 OFFCURVE",
"238 211 CURVE SMOOTH",
"324 134 OFFCURVE",
"391 75 OFFCURVE",
"391 -12 CURVE SMOOTH",
"391 -89 OFFCURVE",
"340 -126 OFFCURVE",
"273 -126 CURVE SMOOTH",
"192 -126 OFFCURVE",
"147 -85 OFFCURVE",
"147 8 CURVE SMOOTH",
"147 247 OFFCURVE",
"372 324 OFFCURVE",
"482 358 CURVE",
"257 298 LINE",
"567 298 LINE",
"607 424 LINE",
"459 424 LINE SMOOTH",
"240 424 OFFCURVE",
"20 239 OFFCURVE",
"20 6 CURVE SMOOTH",
"20 -191 OFFCURVE",
"122 -252 OFFCURVE",
"274 -253 CURVE SMOOTH"
);
}
);
width = 637;
},
{
layerId = "75F4F5E0-D5B2-4549-A21B-477AF2945BCD";
paths = (
{
closed = 1;
nodes = (
"454 -256 OFFCURVE",
"529 -143 OFFCURVE",
"529 -15 CURVE SMOOTH",
"529 132 OFFCURVE",
"435 201 OFFCURVE",
"322 307 CURVE SMOOTH",
"261 365 OFFCURVE",
"213 417 OFFCURVE",
"213 512 CURVE SMOOTH",
"213 596 OFFCURVE",
"253 651 OFFCURVE",
"276 677 CURVE",
"201 620 LINE",
"558 620 LINE",
"557 714 LINE",
"290 714 LINE SMOOTH",
"189 714 OFFCURVE",
"98 627 OFFCURVE",
"98 505 CURVE SMOOTH",
"98 383 OFFCURVE",
"158 309 OFFCURVE",
"245 228 CURVE SMOOTH",
"329 149 OFFCURVE",
"414 77 OFFCURVE",
"414 -15 CURVE SMOOTH",
"414 -108 OFFCURVE",
"361 -161 OFFCURVE",
"270 -161 CURVE SMOOTH",
"173 -161 OFFCURVE",
"113 -106 OFFCURVE",
"113 5 CURVE SMOOTH",
"113 214 OFFCURVE",
"301 333 OFFCURVE",
"472 370 CURVE",
"304 334 LINE",
"546 333 LINE",
"583 427 LINE",
"459 427 LINE",
"245 427 OFFCURVE",
"20 216 OFFCURVE",
"20 5 CURVE SMOOTH",
"20 -178 OFFCURVE",
"112 -255 OFFCURVE",
"270 -255 CURVE SMOOTH"
);
}
);
width = 619.52459;
},
{
layerId = "3F80E263-2B21-4BD5-AA74-4B7BB1AD4533";
paths = (
{
closed = 1;
nodes = (
"450 -256 OFFCURVE",
"538 -147 OFFCURVE",
"538 -14 CURVE SMOOTH",
"538 118 OFFCURVE",
"470 189 OFFCURVE",
"338 308 CURVE SMOOTH",
"271 369 OFFCURVE",
"227 409 OFFCURVE",
"227 506 CURVE SMOOTH",
"227 580 OFFCURVE",
"264 639 OFFCURVE",
"285 666 CURVE",
"207 604 LINE",
"574 604 LINE",
"572 714 LINE",
"295 714 LINE SMOOTH",
"192 714 OFFCURVE",
"92 636 OFFCURVE",
"92 498 CURVE SMOOTH",
"92 384 OFFCURVE",
"145 308 OFFCURVE",
"242 220 CURVE SMOOTH",
"327 142 OFFCURVE",
"403 76 OFFCURVE",
"403 -14 CURVE SMOOTH",
"403 -99 OFFCURVE",
"351 -144 OFFCURVE",
"271 -144 CURVE SMOOTH",
"182 -144 OFFCURVE",
"130 -96 OFFCURVE",
"130 6 CURVE SMOOTH",
"130 230 OFFCURVE",
"336 329 OFFCURVE",
"477 364 CURVE",
"281 316 LINE",
"556 316 LINE",
"595 426 LINE",
"459 426 LINE SMOOTH",
"243 426 OFFCURVE",
"20 227 OFFCURVE",
"20 5 CURVE SMOOTH",
"20 -184 OFFCURVE",
"117 -254 OFFCURVE",
"272 -254 CURVE SMOOTH"
);
}
);
width = 628.04918;
}
);
unicode = 10592;
script = vithkuqi;
category = Letter;
subCategory = Uppercase;
},
{
glyphname = "Y-vit";
lastChange = "2021-11-03 06:54:48 +0000";
layers = (
{
anchors = (
{
name = _top;
position = "{361, 714}";
},
{
name = top;
position = "{361, 949}";
}
);
components = (
{
name = "U-vit";
}
);
layerId = UUID0;
paths = (
{
closed = 1;
nodes = (
"413 797 OFFCURVE",
"471 829 OFFCURVE",
"506 898 CURVE",
"465 932 LINE",
"434 884 OFFCURVE",
"413 872 OFFCURVE",
"382 872 CURVE SMOOTH",
"333 872 OFFCURVE",
"346 950 OFFCURVE",
"284 950 CURVE SMOOTH",
"249 950 OFFCURVE",
"225 928 OFFCURVE",
"225 888 CURVE SMOOTH",
"225 825 OFFCURVE",
"293 797 OFFCURVE",
"346 797 CURVE SMOOTH"
);
}
);
width = 725;
},
{
anchors = (
{
name = _top;
position = "{377, 714}";
},
{
name = top;
position = "{377, 948}";
}
);
components = (
{
name = "U-vit";
}
);
layerId = "58AAA307-6DE9-4107-B80A-C255AE991657";
paths = (
{
closed = 1;
nodes = (
"430 787 OFFCURVE",
"489 819 OFFCURVE",
"525 904 CURVE",
"471 937 LINE",
"442 886 OFFCURVE",
"431 879 OFFCURVE",
"413 879 CURVE SMOOTH",
"365 879 OFFCURVE",
"375 948 OFFCURVE",
"307 948 CURVE SMOOTH",
"274 948 OFFCURVE",
"240 924 OFFCURVE",
"240 878 CURVE SMOOTH",
"240 821 OFFCURVE",
"296 787 OFFCURVE",
"365 787 CURVE SMOOTH"
);
}
);
width = 753;
},
{
anchors = (
{
name = _top;
position = "{366, 714}";
},
{
name = top;
position = "{366, 949}";
}
);
components = (
{
alignment = -1;
name = "U-vit";
}
);
layerId = "75F4F5E0-D5B2-4549-A21B-477AF2945BCD";
paths = (
{
closed = 1;
nodes = (
"419 794 OFFCURVE",
"477 826 OFFCURVE",
"512 900 CURVE",
"467 934 LINE",
"437 885 OFFCURVE",
"419 874 OFFCURVE",
"392 874 CURVE SMOOTH",
"343 874 OFFCURVE",
"356 949 OFFCURVE",
"292 949 CURVE SMOOTH",
"257 949 OFFCURVE",
"230 927 OFFCURVE",
"230 885 CURVE SMOOTH",
"230 824 OFFCURVE",
"294 794 OFFCURVE",
"352 794 CURVE SMOOTH"
);
}
);
width = 734.18033;
},
{
anchors = (
{
name = _top;
position = "{371, 714}";
},
{
name = top;
position = "{371, 949}";
}
);
components = (
{
alignment = -1;
name = "U-vit";
}
);
layerId = "3F80E263-2B21-4BD5-AA74-4B7BB1AD4533";
paths = (
{
closed = 1;
nodes = (
"424 791 OFFCURVE",
"483 823 OFFCURVE",
"518 902 CURVE",
"469 935 LINE",
"439 885 OFFCURVE",
"425 876 OFFCURVE",
"402 876 CURVE SMOOTH",
"354 876 OFFCURVE",
"365 949 OFFCURVE",
"299 949 CURVE SMOOTH",
"265 949 OFFCURVE",
"235 926 OFFCURVE",
"235 882 CURVE SMOOTH",
"235 823 OFFCURVE",
"295 791 OFFCURVE",
"358 791 CURVE SMOOTH"
);
}
);
width = 743.36066;
}
);
leftKerningGroup = "U-vit";
leftMetricsKey = "=U-vit";
rightKerningGroup = "Lla-vit";
rightMetricsKey = "=U-vit";
unicode = 10594;
script = vithkuqi;
category = Letter;
subCategory = Uppercase;
},
{
glyphname = "Ze-vit";
lastChange = "2021-11-03 06:54:48 +0000";
layers = (
{
anchors = (
{
name = top;
position = "{447, 714}";
}
);
layerId = UUID0;
paths = (
{
closed = 1;
nodes = (
"419 -10 OFFCURVE",
"506 71 OFFCURVE",
"499 285 CURVE",
"559 307 OFFCURVE",
"606 349 OFFCURVE",
"635 401 CURVE",
"591 441 LINE",
"568 417 OFFCURVE",
"539 379 OFFCURVE",
"512 367 CURVE",
"512 410 OFFCURVE",
"490 439 OFFCURVE",
"456 448 CURVE",
"461 573 OFFCURVE",
"494 646 OFFCURVE",
"593 646 CURVE SMOOTH",
"669 646 OFFCURVE",
"739 569 OFFCURVE",
"739 365 CURVE SMOOTH",
"739 167 OFFCURVE",
"659 56 OFFCURVE",
"534 48 CURVE",
"534 -10 LINE",
"689 -7 OFFCURVE",
"834 105 OFFCURVE",
"834 364 CURVE SMOOTH",
"834 626 OFFCURVE",
"738 724 OFFCURVE",
"596 724 CURVE SMOOTH",
"471 724 OFFCURVE",
"389 639 OFFCURVE",
"389 445 CURVE",
"369 436 OFFCURVE",
"341 404 OFFCURVE",
"341 361 CURVE SMOOTH",
"341 309 OFFCURVE",
"377 271 OFFCURVE",
"432 271 CURVE SMOOTH",
"435 271 LINE",
"434 134 OFFCURVE",
"396 68 OFFCURVE",
"303 68 CURVE SMOOTH",
"228 68 OFFCURVE",
"155 145 OFFCURVE",
"155 349 CURVE SMOOTH",
"155 547 OFFCURVE",
"235 658 OFFCURVE",
"360 666 CURVE",
"360 724 LINE",
"205 721 OFFCURVE",
"60 609 OFFCURVE",
"60 350 CURVE SMOOTH",
"60 85 OFFCURVE",
"158 -10 OFFCURVE",
"300 -10 CURVE SMOOTH"
);
}
);
width = 894;
},
{
anchors = (
{
name = top;
position = "{515, 714}";
}
);
layerId = "58AAA307-6DE9-4107-B80A-C255AE991657";
paths = (
{
closed = 1;
nodes = (
"475 -10 OFFCURVE",
"578 58 OFFCURVE",
"578 269 CURVE",
"644 288 OFFCURVE",
"722 336 OFFCURVE",
"741 363 CURVE",
"690 458 LINE",
"668 438 OFFCURVE",
"628 414 OFFCURVE",
"605 406 CURVE",
"599 417 OFFCURVE",
"589 432 OFFCURVE",
"575 442 CURVE",
"575 553 OFFCURVE",
"617 593 OFFCURVE",
"675 593 CURVE SMOOTH",
"751 593 OFFCURVE",
"808 525 OFFCURVE",
"808 354 CURVE SMOOTH",
"808 190 OFFCURVE",
"747 118 OFFCURVE",
"663 103 CURVE",
"663 -10 LINE",
"880 -13 OFFCURVE",
"967 137 OFFCURVE",
"967 353 CURVE SMOOTH",
"967 582 OFFCURVE",
"870 722 OFFCURVE",
"684 722 CURVE SMOOTH",
"573 722 OFFCURVE",
"448 665 OFFCURVE",
"448 452 CURVE",
"414 432 OFFCURVE",
"396 390 OFFCURVE",
"396 357 CURVE SMOOTH",
"396 301 OFFCURVE",
"435 256 OFFCURVE",
"496 246 CURVE",
"455 345 LINE",
"453 179 OFFCURVE",
"420 119 OFFCURVE",
"350 119 CURVE SMOOTH",
"274 119 OFFCURVE",
"217 187 OFFCURVE",
"217 358 CURVE SMOOTH",
"217 522 OFFCURVE",
"278 594 OFFCURVE",
"362 609 CURVE",
"362 722 LINE",
"165 725 OFFCURVE",
"58 575 OFFCURVE",
"58 359 CURVE SMOOTH",
"58 130 OFFCURVE",
"155 -10 OFFCURVE",
"341 -10 CURVE SMOOTH"
);
}
);
width = 1025;
},
{
anchors = (
{
name = top;
position = "{469, 714}";
}
);
layerId = "75F4F5E0-D5B2-4549-A21B-477AF2945BCD";
paths = (
{
closed = 1;
nodes = (
"437 -10 OFFCURVE",
"530 67 OFFCURVE",
"525 280 CURVE",
"587 301 OFFCURVE",
"644 345 OFFCURVE",
"670 389 CURVE",
"623 447 LINE",
"601 424 OFFCURVE",
"568 390 OFFCURVE",
"542 380 CURVE",
"541 412 OFFCURVE",
"522 437 OFFCURVE",
"495 446 CURVE",
"498 566 OFFCURVE",
"534 629 OFFCURVE",
"620 629 CURVE SMOOTH",
"696 629 OFFCURVE",
"762 555 OFFCURVE",
"762 361 CURVE SMOOTH",
"762 175 OFFCURVE",
"688 76 OFFCURVE",
"576 66 CURVE",
"576 -10 LINE",
"752 -9 OFFCURVE",
"878 115 OFFCURVE",
"878 360 CURVE SMOOTH",
"878 612 OFFCURVE",
"781 723 OFFCURVE",
"625 723 CURVE SMOOTH",
"504 723 OFFCURVE",
"408 648 OFFCURVE",
"408 447 CURVE",
"384 435 OFFCURVE",
"359 399 OFFCURVE",
"359 360 CURVE SMOOTH",
"359 306 OFFCURVE",
"396 266 OFFCURVE",
"453 263 CURVE SMOOTH",
"442 295 LINE",
"440 149 OFFCURVE",
"404 85 OFFCURVE",
"318 85 CURVE SMOOTH",
"243 85 OFFCURVE",
"175 159 OFFCURVE",
"175 352 CURVE SMOOTH",
"175 539 OFFCURVE",
"249 637 OFFCURVE",
"361 647 CURVE",
"361 723 LINE",
"192 722 OFFCURVE",
"59 598 OFFCURVE",
"59 353 CURVE SMOOTH",
"59 100 OFFCURVE",
"157 -10 OFFCURVE",
"313 -10 CURVE SMOOTH"
);
}
);
width = 936.95082;
},
{
anchors = (
{
name = top;
position = "{491, 714}";
}
);
layerId = "3F80E263-2B21-4BD5-AA74-4B7BB1AD4533";
paths = (
{
closed = 1;
nodes = (
"456 -10 OFFCURVE",
"553 63 OFFCURVE",
"551 275 CURVE",
"615 295 OFFCURVE",
"682 341 OFFCURVE",
"705 376 CURVE",
"656 452 LINE",
"634 431 OFFCURVE",
"597 402 OFFCURVE",
"573 393 CURVE",
"569 414 OFFCURVE",
"555 435 OFFCURVE",
"534 444 CURVE",
"536 560 OFFCURVE",
"574 611 OFFCURVE",
"647 611 CURVE SMOOTH",
"723 611 OFFCURVE",
"784 540 OFFCURVE",
"784 358 CURVE SMOOTH",
"784 182 OFFCURVE",
"717 96 OFFCURVE",
"618 84 CURVE",
"618 -10 LINE",
"814 -11 OFFCURVE",
"921 126 OFFCURVE",
"921 357 CURVE SMOOTH",
"921 597 OFFCURVE",
"824 723 OFFCURVE",
"654 723 CURVE SMOOTH",
"538 723 OFFCURVE",
"428 656 OFFCURVE",
"428 449 CURVE",
"399 434 OFFCURVE",
"377 395 OFFCURVE",
"377 359 CURVE SMOOTH",
"377 304 OFFCURVE",
"415 261 OFFCURVE",
"474 255 CURVE",
"448 319 LINE",
"446 164 OFFCURVE",
"412 102 OFFCURVE",
"334 102 CURVE SMOOTH",
"258 102 OFFCURVE",
"195 173 OFFCURVE",
"195 355 CURVE SMOOTH",
"195 531 OFFCURVE",
"263 616 OFFCURVE",
"361 628 CURVE",
"361 723 LINE",
"179 723 OFFCURVE",
"59 587 OFFCURVE",
"59 356 CURVE SMOOTH",
"59 115 OFFCURVE",
"156 -10 OFFCURVE",
"327 -10 CURVE SMOOTH"
);
}
);
width = 979.90164;
}
);
leftKerningGroup = "Ka-vit";
leftMetricsKey = "Ka-vit";
rightKerningGroup = "Ze-vit";
rightMetricsKey = "=|";
unicode = 10595;
script = vithkuqi;
category = Letter;
subCategory = Uppercase;
},
{
glyphname = "a-vit";
lastChange = "2021-11-03 06:54:48 +0000";
layers = (
{
layerId = "58AAA307-6DE9-4107-B80A-C255AE991657";
paths = (
{
closed = 1;
nodes = (
"522 -10 OFFCURVE",
"626 175 OFFCURVE",
"626 336 CURVE SMOOTH",
"626 469 OFFCURVE",
"576 557 OFFCURVE",
"458 557 CURVE SMOOTH",
"377 557 OFFCURVE",
"309 508 OFFCURVE",
"309 402 CURVE SMOOTH",
"309 307 OFFCURVE",
"368 245 OFFCURVE",
"473 219 CURVE SMOOTH",
"573 194 LINE SMOOTH",
"627 180 OFFCURVE",
"648 162 OFFCURVE",
"648 136 CURVE SMOOTH",
"648 109 OFFCURVE",
"627 104 OFFCURVE",
"587 102 CURVE",
"586 -11 LINE",
"683 -11 OFFCURVE",
"769 32 OFFCURVE",
"769 138 CURVE SMOOTH",
"769 257 OFFCURVE",
"692 298 OFFCURVE",
"605 321 CURVE SMOOTH",
"505 347 LINE SMOOTH",
"470 356 OFFCURVE",
"434 365 OFFCURVE",
"434 397 CURVE SMOOTH",
"434 415 OFFCURVE",
"448 429 OFFCURVE",
"466 429 CURVE SMOOTH",
"500 429 OFFCURVE",
"504 403 OFFCURVE",
"504 349 CURVE SMOOTH",
"504 193 OFFCURVE",
"442 108 OFFCURVE",
"325 109 CURVE SMOOTH",
"240 110 OFFCURVE",
"197 164 OFFCURVE",
"197 274 CURVE SMOOTH",
"197 381 OFFCURVE",
"230 438 OFFCURVE",
"296 441 CURVE",
"296 558 LINE",
"155 558 OFFCURVE",
"45 458 OFFCURVE",
"45 274 CURVE SMOOTH",
"45 75 OFFCURVE",
"158 -10 OFFCURVE",
"325 -10 CURVE SMOOTH"
);
}
);
width = 769;
},
{
layerId = UUID0;
paths = (
{
closed = 1;
nodes = (
"494 -10 OFFCURVE",
"569 175 OFFCURVE",
"569 336 CURVE SMOOTH",
"569 465 OFFCURVE",
"526 547 OFFCURVE",
"431 547 CURVE SMOOTH",
"364 547 OFFCURVE",
"315 505 OFFCURVE",
"315 431 CURVE SMOOTH",
"315 346 OFFCURVE",
"368 309 OFFCURVE",
"445 278 CURVE SMOOTH",
"545 238 LINE SMOOTH",
"621 208 OFFCURVE",
"641 183 OFFCURVE",
"641 124 CURVE SMOOTH",
"641 79 OFFCURVE",
"605 52 OFFCURVE",
"554 52 CURVE",
"554 -10 LINE",
"645 -10 OFFCURVE",
"714 32 OFFCURVE",
"714 138 CURVE SMOOTH",
"714 238 OFFCURVE",
"652 275 OFFCURVE",
"577 306 CURVE SMOOTH",
"477 347 LINE SMOOTH",
"419 371 OFFCURVE",
"391 399 OFFCURVE",
"391 431 CURVE SMOOTH",
"391 458 OFFCURVE",
"408 473 OFFCURVE",
"431 473 CURVE SMOOTH",
"467 473 OFFCURVE",
"493 430 OFFCURVE",
"493 336 CURVE SMOOTH",
"493 179 OFFCURVE",
"426 64 OFFCURVE",
"304 64 CURVE SMOOTH",
"202 64 OFFCURVE",
"146 132 OFFCURVE",
"146 266 CURVE SMOOTH",
"146 413 OFFCURVE",
"179 476 OFFCURVE",
"288 485 CURVE",
"288 544 LINE",
"155 544 OFFCURVE",
"55 458 OFFCURVE",
"55 267 CURVE SMOOTH",
"55 75 OFFCURVE",
"151 -10 OFFCURVE",
"302 -10 CURVE SMOOTH"
);
}
);
width = 724;
},
{
layerId = "75F4F5E0-D5B2-4549-A21B-477AF2945BCD";
paths = (
{
closed = 1;
nodes = (
"503 -10 OFFCURVE",
"588 175 OFFCURVE",
"588 336 CURVE SMOOTH",
"588 466 OFFCURVE",
"542 550 OFFCURVE",
"440 550 CURVE SMOOTH",
"368 550 OFFCURVE",
"313 506 OFFCURVE",
"313 421 CURVE SMOOTH",
"313 333 OFFCURVE",
"368 288 OFFCURVE",
"454 259 CURVE SMOOTH",
"554 224 LINE SMOOTH",
"623 199 OFFCURVE",
"643 176 OFFCURVE",
"643 128 CURVE SMOOTH",
"643 89 OFFCURVE",
"612 69 OFFCURVE",
"565 68 CURVE",
"564 -10 LINE",
"657 -10 OFFCURVE",
"732 32 OFFCURVE",
"732 138 CURVE SMOOTH",
"732 244 OFFCURVE",
"665 283 OFFCURVE",
"586 311 CURVE SMOOTH",
"486 347 LINE SMOOTH",
"436 366 OFFCURVE",
"405 388 OFFCURVE",
"405 420 CURVE SMOOTH",
"405 444 OFFCURVE",
"421 459 OFFCURVE",
"442 459 CURVE SMOOTH",
"478 459 OFFCURVE",
"497 421 OFFCURVE",
"497 340 CURVE SMOOTH",
"497 184 OFFCURVE",
"431 78 OFFCURVE",
"311 79 CURVE SMOOTH",
"214 79 OFFCURVE",
"163 142 OFFCURVE",
"163 269 CURVE SMOOTH",
"163 403 OFFCURVE",
"196 464 OFFCURVE",
"291 471 CURVE",
"291 549 LINE",
"155 549 OFFCURVE",
"52 458 OFFCURVE",
"52 269 CURVE SMOOTH",
"52 75 OFFCURVE",
"153 -10 OFFCURVE",
"310 -10 CURVE SMOOTH"
);
}
);
width = 738.7541;
},
{
layerId = "3F80E263-2B21-4BD5-AA74-4B7BB1AD4533";
paths = (
{
closed = 1;
nodes = (
"512 -10 OFFCURVE",
"607 175 OFFCURVE",
"607 336 CURVE SMOOTH",
"607 467 OFFCURVE",
"559 553 OFFCURVE",
"449 553 CURVE SMOOTH",
"372 553 OFFCURVE",
"311 507 OFFCURVE",
"311 412 CURVE SMOOTH",
"311 320 OFFCURVE",
"368 267 OFFCURVE",
"463 239 CURVE SMOOTH",
"563 209 LINE SMOOTH",
"625 190 OFFCURVE",
"645 169 OFFCURVE",
"645 132 CURVE SMOOTH",
"645 99 OFFCURVE",
"619 86 OFFCURVE",
"576 85 CURVE",
"575 -10 LINE",
"670 -10 OFFCURVE",
"750 32 OFFCURVE",
"750 138 CURVE SMOOTH",
"750 250 OFFCURVE",
"678 290 OFFCURVE",
"595 316 CURVE SMOOTH",
"495 347 LINE SMOOTH",
"453 361 OFFCURVE",
"419 377 OFFCURVE",
"419 409 CURVE SMOOTH",
"419 430 OFFCURVE",
"434 444 OFFCURVE",
"454 444 CURVE SMOOTH",
"489 444 OFFCURVE",
"500 412 OFFCURVE",
"500 344 CURVE SMOOTH",
"500 188 OFFCURVE",
"436 93 OFFCURVE",
"318 94 CURVE SMOOTH",
"227 94 OFFCURVE",
"180 153 OFFCURVE",
"180 271 CURVE SMOOTH",
"180 392 OFFCURVE",
"213 451 OFFCURVE",
"293 456 CURVE",
"293 553 LINE",
"155 553 OFFCURVE",
"49 458 OFFCURVE",
"49 271 CURVE SMOOTH",
"49 75 OFFCURVE",
"155 -10 OFFCURVE",
"317 -10 CURVE SMOOTH"
);
}
);
width = 753.5082;
}
);
leftKerningGroup = "ka-vit";
leftMetricsKey = "ka-vit";
rightKerningGroup = "a-vit";
unicode = 10597;
script = vithkuqi;
category = Letter;
subCategory = Lowercase;
},
{
glyphname = "bbe-vit";
lastChange = "2021-11-03 06:54:48 +0000";
layers = (
{
layerId = UUID0;
paths = (
{
closed = 1;
nodes = (
"573 -11 OFFCURVE",
"591 -10 OFFCURVE",
"610 -8 CURVE",
"610 52 LINE",
"596 52 LINE SMOOTH",
"542 52 OFFCURVE",
"510 86 OFFCURVE",
"509 146 CURVE SMOOTH",
"507 295 LINE SMOOTH",
"505 451 OFFCURVE",
"416 498 OFFCURVE",
"285 498 CURVE SMOOTH",
"126 498 OFFCURVE",
"30 394 OFFCURVE",
"30 259 CURVE SMOOTH",
"30 187 OFFCURVE",
"62 131 OFFCURVE",
"141 131 CURVE SMOOTH",
"215 131 OFFCURVE",
"250 179 OFFCURVE",
"250 240 CURVE SMOOTH",
"250 611 LINE SMOOTH",
"250 671 OFFCURVE",
"259 699 OFFCURVE",
"306 699 CURVE SMOOTH",
"323 699 OFFCURVE",
"350 689 OFFCURVE",
"376 660 CURVE",
"426 714 LINE",
"404 739 OFFCURVE",
"376 771 OFFCURVE",
"307 771 CURVE SMOOTH",
"221 771 OFFCURVE",
"174 714 OFFCURVE",
"174 619 CURVE SMOOTH",
"174 240 LINE SMOOTH",
"174 222 OFFCURVE",
"165 204 OFFCURVE",
"141 204 CURVE SMOOTH",
"115 204 OFFCURVE",
"106 227 OFFCURVE",
"106 259 CURVE SMOOTH",
"106 359 OFFCURVE",
"155 429 OFFCURVE",
"281 429 CURVE SMOOTH",
"371 429 OFFCURVE",
"418 384 OFFCURVE",
"419 288 CURVE SMOOTH",
"421 130 LINE SMOOTH",
"422 37 OFFCURVE",
"455 -11 OFFCURVE",
"558 -11 CURVE SMOOTH"
);
}
);
width = 610;
},
{
layerId = "58AAA307-6DE9-4107-B80A-C255AE991657";
paths = (
{
closed = 1;
nodes = (
"591 -10 OFFCURVE",
"601 -9 OFFCURVE",
"626 -2 CURVE",
"626 108 LINE",
"601 108 LINE SMOOTH",
"551 108 OFFCURVE",
"543 133 OFFCURVE",
"543 184 CURVE SMOOTH",
"543 324 LINE SMOOTH",
"543 470 OFFCURVE",
"433 526 OFFCURVE",
"291 526 CURVE SMOOTH",
"127 526 OFFCURVE",
"20 426 OFFCURVE",
"20 288 CURVE SMOOTH",
"20 174 OFFCURVE",
"77 108 OFFCURVE",
"176 108 CURVE SMOOTH",
"260 108 OFFCURVE",
"313 164 OFFCURVE",
"313 242 CURVE SMOOTH",
"313 607 LINE SMOOTH",
"313 634 OFFCURVE",
"326 650 OFFCURVE",
"347 650 CURVE SMOOTH",
"373 650 OFFCURVE",
"387 636 OFFCURVE",
"398 624 CURVE",
"468 707 LINE",
"457 730 OFFCURVE",
"409 770 OFFCURVE",
"342 770 CURVE SMOOTH",
"248 770 OFFCURVE",
"190 711 OFFCURVE",
"190 608 CURVE SMOOTH",
"190 246 LINE SMOOTH",
"190 232 OFFCURVE",
"183 228 OFFCURVE",
"176 228 CURVE SMOOTH",
"159 228 OFFCURVE",
"145 251 OFFCURVE",
"145 288 CURVE SMOOTH",
"145 355 OFFCURVE",
"189 406 OFFCURVE",
"280 406 CURVE SMOOTH",
"350 406 OFFCURVE",
"394 374 OFFCURVE",
"394 298 CURVE SMOOTH",
"394 140 LINE SMOOTH",
"394 38 OFFCURVE",
"458 -10 OFFCURVE",
"564 -10 CURVE SMOOTH"
);
}
);
width = 626;
},
{
layerId = "75F4F5E0-D5B2-4549-A21B-477AF2945BCD";
paths = (
{
closed = 1;
nodes = (
"579 -11 OFFCURVE",
"594 -10 OFFCURVE",
"615 -6 CURVE",
"615 70 LINE",
"598 70 LINE SMOOTH",
"545 70 OFFCURVE",
"521 101 OFFCURVE",
"520 158 CURVE SMOOTH",
"519 305 LINE SMOOTH",
"517 457 OFFCURVE",
"422 507 OFFCURVE",
"287 507 CURVE SMOOTH",
"126 507 OFFCURVE",
"27 404 OFFCURVE",
"27 269 CURVE SMOOTH",
"27 183 OFFCURVE",
"67 123 OFFCURVE",
"152 123 CURVE SMOOTH",
"230 123 OFFCURVE",
"271 174 OFFCURVE",
"271 241 CURVE SMOOTH",
"271 610 LINE SMOOTH",
"271 659 OFFCURVE",
"281 683 OFFCURVE",
"319 683 CURVE SMOOTH",
"339 683 OFFCURVE",
"362 672 OFFCURVE",
"383 648 CURVE",
"440 712 LINE",
"421 736 OFFCURVE",
"387 771 OFFCURVE",
"318 771 CURVE SMOOTH",
"230 771 OFFCURVE",
"179 713 OFFCURVE",
"179 615 CURVE SMOOTH",
"179 242 LINE SMOOTH",
"179 225 OFFCURVE",
"171 212 OFFCURVE",
"152 212 CURVE SMOOTH",
"129 212 OFFCURVE",
"119 235 OFFCURVE",
"119 269 CURVE SMOOTH",
"119 358 OFFCURVE",
"166 421 OFFCURVE",
"281 421 CURVE SMOOTH",
"364 421 OFFCURVE",
"410 381 OFFCURVE",
"411 291 CURVE SMOOTH",
"412 133 LINE SMOOTH",
"413 37 OFFCURVE",
"456 -11 OFFCURVE",
"560 -11 CURVE SMOOTH"
);
}
);
width = 615.2459;
},
{
layerId = "3F80E263-2B21-4BD5-AA74-4B7BB1AD4533";
paths = (
{
closed = 1;
nodes = (
"585 -11 OFFCURVE",
"597 -10 OFFCURVE",
"620 -4 CURVE",
"620 89 LINE",
"599 89 LINE SMOOTH",
"548 89 OFFCURVE",
"532 117 OFFCURVE",
"531 171 CURVE SMOOTH",
"531 314 LINE SMOOTH",
"530 463 OFFCURVE",
"427 516 OFFCURVE",
"289 516 CURVE SMOOTH",
"126 516 OFFCURVE",
"24 415 OFFCURVE",
"24 278 CURVE SMOOTH",
"24 179 OFFCURVE",
"72 116 OFFCURVE",
"164 116 CURVE SMOOTH",
"245 116 OFFCURVE",
"291 169 OFFCURVE",
"291 241 CURVE SMOOTH",
"291 609 LINE SMOOTH",
"291 647 OFFCURVE",
"303 667 OFFCURVE",
"333 667 CURVE SMOOTH",
"356 667 OFFCURVE",
"374 654 OFFCURVE",
"390 636 CURVE",
"454 710 LINE",
"439 733 OFFCURVE",
"398 771 OFFCURVE",
"330 771 CURVE SMOOTH",
"239 771 OFFCURVE",
"184 712 OFFCURVE",
"184 612 CURVE SMOOTH",
"184 244 LINE SMOOTH",
"184 228 OFFCURVE",
"177 220 OFFCURVE",
"164 220 CURVE SMOOTH",
"144 220 OFFCURVE",
"132 243 OFFCURVE",
"132 278 CURVE SMOOTH",
"132 357 OFFCURVE",
"177 414 OFFCURVE",
"281 414 CURVE SMOOTH",
"357 414 OFFCURVE",
"402 378 OFFCURVE",
"403 294 CURVE SMOOTH",
"403 136 LINE SMOOTH",
"404 37 OFFCURVE",
"457 -11 OFFCURVE",
"562 -11 CURVE SMOOTH"
);
}
);
width = 620.4918;
}
);
leftKerningGroup = "bbe-vit";
rightKerningGroup = "bbe-vit";
unicode = 10598;
script = vithkuqi;
category = Letter;
subCategory = Lowercase;
},
{
glyphname = "be-vit";
lastChange = "2021-11-03 06:54:48 +0000";
layers = (
{
layerId = "58AAA307-6DE9-4107-B80A-C255AE991657";
paths = (
{
closed = 1;
nodes = (
"302 -11 OFFCURVE",
"332 -4 OFFCURVE",
"349 1 CURVE",
"349 110 LINE",
"328 109 OFFCURVE",
"319 107 OFFCURVE",
"295 107 CURVE SMOOTH",
"259 107 OFFCURVE",
"229 114 OFFCURVE",
"229 181 CURVE SMOOTH",
"229 185 LINE SMOOTH",
"229 195 OFFCURVE",
"229 197 OFFCURVE",
"223 233 CURVE",
"230 233 LINE",
"257 202 OFFCURVE",
"301 183 OFFCURVE",
"353 183 CURVE SMOOTH",
"438 183 OFFCURVE",
"526 247 OFFCURVE",
"526 367 CURVE SMOOTH",
"526 502 OFFCURVE",
"438 558 OFFCURVE",
"334 557 CURVE SMOOTH",
"271 557 OFFCURVE",
"223 532 OFFCURVE",
"200 506 CURVE",
"230 519 LINE",
"230 577 LINE SMOOTH",
"230 642 OFFCURVE",
"248 658 OFFCURVE",
"291 660 CURVE",
"291 770 LINE",
"170 772 OFFCURVE",
"78 720 OFFCURVE",
"78 583 CURVE SMOOTH",
"78 145 LINE SMOOTH",
"78 34 OFFCURVE",
"162 -11 OFFCURVE",
"259 -11 CURVE SMOOTH"
);
},
{
closed = 1;
nodes = (
"269 298 OFFCURVE",
"229 320 OFFCURVE",
"229 369 CURVE SMOOTH",
"229 413 OFFCURVE",
"269 441 OFFCURVE",
"325 441 CURVE SMOOTH",
"369 441 OFFCURVE",
"412 421 OFFCURVE",
"412 370 CURVE SMOOTH",
"412 324 OFFCURVE",
"378 298 OFFCURVE",
"319 298 CURVE SMOOTH"
);
}
);
width = 551;
},
{
layerId = UUID0;
paths = (
{
closed = 1;
nodes = (
"266 -11 OFFCURVE",
"296 -4 OFFCURVE",
"313 0 CURVE",
"313 61 LINE",
"292 60 OFFCURVE",
"273 58 OFFCURVE",
"249 58 CURVE SMOOTH",
"203 58 OFFCURVE",
"173 80 OFFCURVE",
"173 147 CURVE SMOOTH",
"173 205 LINE SMOOTH",
"173 232 OFFCURVE",
"173 264 OFFCURVE",
"167 294 CURVE",
"174 294 LINE",
"201 252 OFFCURVE",
"235 237 OFFCURVE",
"277 237 CURVE SMOOTH",
"366 237 OFFCURVE",
"422 304 OFFCURVE",
"422 390 CURVE SMOOTH",
"422 494 OFFCURVE",
"348 546 OFFCURVE",
"264 545 CURVE SMOOTH",
"221 545 OFFCURVE",
"173 526 OFFCURVE",
"153 503 CURVE",
"173 513 LINE",
"173 604 LINE SMOOTH",
"173 653 OFFCURVE",
"185 694 OFFCURVE",
"239 710 CURVE",
"239 771 LINE",
"122 760 OFFCURVE",
"85 687 OFFCURVE",
"85 594 CURVE SMOOTH",
"85 145 LINE SMOOTH",
"85 34 OFFCURVE",
"137 -11 OFFCURVE",
"225 -11 CURVE SMOOTH"
);
},
{
closed = 1;
nodes = (
"214 309 OFFCURVE",
"174 342 OFFCURVE",
"174 390 CURVE SMOOTH",
"174 436 OFFCURVE",
"205 472 OFFCURVE",
"264 472 CURVE SMOOTH",
"314 472 OFFCURVE",
"346 439 OFFCURVE",
"346 390 CURVE SMOOTH",
"346 345 OFFCURVE",
"321 309 OFFCURVE",
"265 309 CURVE SMOOTH"
);
}
);
width = 447;
},
{
layerId = "75F4F5E0-D5B2-4549-A21B-477AF2945BCD";
paths = (
{
closed = 1;
nodes = (
"278 -11 OFFCURVE",
"308 -4 OFFCURVE",
"325 0 CURVE",
"325 77 LINE",
"304 76 OFFCURVE",
"288 74 OFFCURVE",
"264 74 CURVE SMOOTH",
"221 74 OFFCURVE",
"191 91 OFFCURVE",
"191 158 CURVE SMOOTH",
"191 198 LINE SMOOTH",
"191 220 OFFCURVE",
"191 242 OFFCURVE",
"185 274 CURVE",
"192 274 LINE",
"219 236 OFFCURVE",
"257 219 OFFCURVE",
"302 219 CURVE SMOOTH",
"390 219 OFFCURVE",
"456 285 OFFCURVE",
"456 382 CURVE SMOOTH",
"456 497 OFFCURVE",
"378 550 OFFCURVE",
"287 549 CURVE SMOOTH",
"237 549 OFFCURVE",
"189 528 OFFCURVE",
"168 504 CURVE",
"192 515 LINE",
"192 595 LINE SMOOTH",
"192 649 OFFCURVE",
"206 682 OFFCURVE",
"256 694 CURVE",
"256 771 LINE",
"138 764 OFFCURVE",
"83 698 OFFCURVE",
"83 590 CURVE SMOOTH",
"83 145 LINE SMOOTH",
"83 34 OFFCURVE",
"145 -11 OFFCURVE",
"236 -11 CURVE SMOOTH"
);
},
{
closed = 1;
nodes = (
"232 305 OFFCURVE",
"192 335 OFFCURVE",
"192 383 CURVE SMOOTH",
"192 428 OFFCURVE",
"226 462 OFFCURVE",
"284 462 CURVE SMOOTH",
"332 462 OFFCURVE",
"368 433 OFFCURVE",
"368 383 CURVE SMOOTH",
"368 338 OFFCURVE",
"340 305 OFFCURVE",
"283 305 CURVE SMOOTH"
);
}
);
width = 481.09836;
},
{
layerId = "3F80E263-2B21-4BD5-AA74-4B7BB1AD4533";
paths = (
{
closed = 1;
nodes = (
"290 -11 OFFCURVE",
"320 -4 OFFCURVE",
"337 0 CURVE",
"337 93 LINE",
"316 92 OFFCURVE",
"303 90 OFFCURVE",
"279 90 CURVE SMOOTH",
"240 90 OFFCURVE",
"210 102 OFFCURVE",
"210 169 CURVE SMOOTH",
"210 192 LINE SMOOTH",
"210 208 OFFCURVE",
"210 220 OFFCURVE",
"204 254 CURVE",
"211 254 LINE",
"238 219 OFFCURVE",
"278 201 OFFCURVE",
"327 201 CURVE SMOOTH",
"413 201 OFFCURVE",
"490 266 OFFCURVE",
"490 375 CURVE SMOOTH",
"490 499 OFFCURVE",
"407 554 OFFCURVE",
"310 553 CURVE SMOOTH",
"254 553 OFFCURVE",
"206 530 OFFCURVE",
"184 505 CURVE",
"211 517 LINE",
"211 586 LINE SMOOTH",
"211 646 OFFCURVE",
"226 670 OFFCURVE",
"273 677 CURVE",
"273 771 LINE",
"154 768 OFFCURVE",
"81 709 OFFCURVE",
"81 587 CURVE SMOOTH",
"81 145 LINE SMOOTH",
"81 34 OFFCURVE",
"153 -11 OFFCURVE",
"247 -11 CURVE SMOOTH"
);
},
{
closed = 1;
nodes = (
"250 302 OFFCURVE",
"210 328 OFFCURVE",
"210 376 CURVE SMOOTH",
"210 421 OFFCURVE",
"247 452 OFFCURVE",
"304 452 CURVE SMOOTH",
"350 452 OFFCURVE",
"389 427 OFFCURVE",
"389 377 CURVE SMOOTH",
"389 331 OFFCURVE",
"359 302 OFFCURVE",
"301 302 CURVE SMOOTH"
);
}
);
width = 515.19672;
}
);
unicode = 10599;
script = vithkuqi;
category = Letter;
subCategory = Lowercase;
},
{
glyphname = "ce-vit";
lastChange = "2021-11-03 06:54:48 +0000";
layers = (
{
layerId = UUID0;
paths = (
{
closed = 1;
nodes = (
"296 -250 OFFCURVE",
"307 -247 OFFCURVE",
"330 -242 CURVE",
"330 -181 LINE",
"319 -183 OFFCURVE",
"300 -184 OFFCURVE",
"287 -184 CURVE SMOOTH",
"238 -184 OFFCURVE",
"196 -159 OFFCURVE",
"196 -100 CURVE SMOOTH",
"196 -17 OFFCURVE",
"243 52 OFFCURVE",
"362 157 CURVE",
"362 222 LINE",
"273 222 LINE SMOOTH",
"250 222 OFFCURVE",
"228 222 OFFCURVE",
"189 219 CURVE",
"170 203 LINE",
"290 241 OFFCURVE",
"392 305 OFFCURVE",
"392 413 CURVE SMOOTH",
"392 491 OFFCURVE",
"329 546 OFFCURVE",
"212 546 CURVE SMOOTH",
"112 546 OFFCURVE",
"40 495 OFFCURVE",
"40 414 CURVE SMOOTH",
"40 342 OFFCURVE",
"87 299 OFFCURVE",
"157 299 CURVE SMOOTH",
"186 299 OFFCURVE",
"199 303 OFFCURVE",
"213 308 CURVE",
"196 369 LINE",
"187 366 OFFCURVE",
"176 366 OFFCURVE",
"166 366 CURVE SMOOTH",
"136 366 OFFCURVE",
"116 384 OFFCURVE",
"116 414 CURVE SMOOTH",
"116 449 OFFCURVE",
"149 471 OFFCURVE",
"212 471 CURVE SMOOTH",
"265 471 OFFCURVE",
"301 449 OFFCURVE",
"301 396 CURVE SMOOTH",
"301 318 OFFCURVE",
"199 251 OFFCURVE",
"117 220 CURVE",
"117 152 LINE",
"232 152 LINE SMOOTH",
"264 152 OFFCURVE",
"306 156 OFFCURVE",
"318 161 CURVE",
"327 174 LINE",
"176 87 OFFCURVE",
"105 -21 OFFCURVE",
"105 -101 CURVE SMOOTH",
"105 -209 OFFCURVE",
"183 -250 OFFCURVE",
"258 -250 CURVE SMOOTH"
);
}
);
width = 437;
},
{
layerId = "58AAA307-6DE9-4107-B80A-C255AE991657";
paths = (
{
closed = 1;
nodes = (
"339 -249 OFFCURVE",
"360 -242 OFFCURVE",
"377 -236 CURVE",
"377 -128 LINE",
"366 -131 OFFCURVE",
"348 -133 OFFCURVE",
"335 -133 CURVE SMOOTH",
"286 -133 OFFCURVE",
"266 -109 OFFCURVE",
"266 -68 CURVE SMOOTH",
"266 3 OFFCURVE",
"340 54 OFFCURVE",
"426 106 CURVE",
"426 211 LINE",
"340 211 LINE SMOOTH",
"304 211 OFFCURVE",
"232 202 OFFCURVE",
"198 195 CURVE",
"200 176 LINE",
"389 242 OFFCURVE",
"435 322 OFFCURVE",
"435 395 CURVE SMOOTH",
"435 501 OFFCURVE",
"361 560 OFFCURVE",
"224 560 CURVE SMOOTH",
"115 560 OFFCURVE",
"30 501 OFFCURVE",
"30 405 CURVE SMOOTH",
"30 325 OFFCURVE",
"87 275 OFFCURVE",
"162 275 CURVE SMOOTH",
"197 275 OFFCURVE",
"220 285 OFFCURVE",
"237 296 CURVE",
"213 389 LINE",
"204 385 OFFCURVE",
"195 382 OFFCURVE",
"184 382 CURVE SMOOTH",
"172 382 OFFCURVE",
"155 388 OFFCURVE",
"155 405 CURVE SMOOTH",
"155 425 OFFCURVE",
"176 438 OFFCURVE",
"210 438 CURVE SMOOTH",
"261 438 OFFCURVE",
"280 408 OFFCURVE",
"280 365 CURVE SMOOTH",
"280 315 OFFCURVE",
"247 267 OFFCURVE",
"128 207 CURVE",
"128 99 LINE",
"228 99 LINE SMOOTH",
"273 99 OFFCURVE",
"314 105 OFFCURVE",
"326 110 CURVE",
"324 126 LINE",
"169 50 OFFCURVE",
"114 -33 OFFCURVE",
"114 -113 CURVE SMOOTH",
"114 -213 OFFCURVE",
"184 -249 OFFCURVE",
"293 -249 CURVE SMOOTH"
);
}
);
width = 470;
},
{
layerId = "75F4F5E0-D5B2-4549-A21B-477AF2945BCD";
paths = (
{
closed = 1;
nodes = (
"310 -250 OFFCURVE",
"324 -245 OFFCURVE",
"345 -240 CURVE",
"345 -164 LINE",
"334 -166 OFFCURVE",
"316 -167 OFFCURVE",
"303 -167 CURVE SMOOTH",
"254 -167 OFFCURVE",
"219 -143 OFFCURVE",
"219 -90 CURVE SMOOTH",
"219 -10 OFFCURVE",
"275 53 OFFCURVE",
"383 140 CURVE",
"383 218 LINE",
"295 218 LINE SMOOTH",
"268 218 OFFCURVE",
"229 215 OFFCURVE",
"192 211 CURVE",
"180 194 LINE",
"322 241 OFFCURVE",
"406 311 OFFCURVE",
"406 407 CURVE SMOOTH",
"406 494 OFFCURVE",
"339 551 OFFCURVE",
"216 551 CURVE SMOOTH",
"113 551 OFFCURVE",
"37 497 OFFCURVE",
"37 411 CURVE SMOOTH",
"37 336 OFFCURVE",
"87 291 OFFCURVE",
"159 291 CURVE SMOOTH",
"190 291 OFFCURVE",
"206 297 OFFCURVE",
"221 304 CURVE",
"202 376 LINE",
"193 372 OFFCURVE",
"182 371 OFFCURVE",
"172 371 CURVE SMOOTH",
"148 371 OFFCURVE",
"129 385 OFFCURVE",
"129 411 CURVE SMOOTH",
"129 441 OFFCURVE",
"158 460 OFFCURVE",
"211 460 CURVE SMOOTH",
"264 460 OFFCURVE",
"294 436 OFFCURVE",
"294 386 CURVE SMOOTH",
"294 317 OFFCURVE",
"215 256 OFFCURVE",
"121 216 CURVE",
"121 135 LINE",
"231 135 LINE SMOOTH",
"267 135 OFFCURVE",
"309 139 OFFCURVE",
"321 144 CURVE",
"326 158 LINE",
"174 75 OFFCURVE",
"108 -25 OFFCURVE",
"108 -105 CURVE SMOOTH",
"108 -210 OFFCURVE",
"183 -250 OFFCURVE",
"269 -250 CURVE SMOOTH"
);
}
);
width = 447.81967;
},
{
layerId = "3F80E263-2B21-4BD5-AA74-4B7BB1AD4533";
paths = (
{
closed = 1;
nodes = (
"324 -250 OFFCURVE",
"342 -244 OFFCURVE",
"361 -238 CURVE",
"361 -146 LINE",
"350 -149 OFFCURVE",
"332 -150 OFFCURVE",
"319 -150 CURVE SMOOTH",
"270 -150 OFFCURVE",
"242 -126 OFFCURVE",
"242 -79 CURVE SMOOTH",
"242 -4 OFFCURVE",
"307 53 OFFCURVE",
"404 123 CURVE",
"404 215 LINE",
"317 215 LINE SMOOTH",
"286 215 OFFCURVE",
"230 209 OFFCURVE",
"195 203 CURVE",
"190 185 LINE",
"355 241 OFFCURVE",
"420 316 OFFCURVE",
"420 401 CURVE SMOOTH",
"420 497 OFFCURVE",
"350 555 OFFCURVE",
"220 555 CURVE SMOOTH",
"114 555 OFFCURVE",
"34 499 OFFCURVE",
"34 408 CURVE SMOOTH",
"34 331 OFFCURVE",
"87 283 OFFCURVE",
"160 283 CURVE SMOOTH",
"193 283 OFFCURVE",
"213 291 OFFCURVE",
"229 300 CURVE",
"207 382 LINE",
"198 378 OFFCURVE",
"188 376 OFFCURVE",
"178 376 CURVE SMOOTH",
"160 376 OFFCURVE",
"142 386 OFFCURVE",
"142 408 CURVE SMOOTH",
"142 433 OFFCURVE",
"167 449 OFFCURVE",
"211 449 CURVE SMOOTH",
"263 449 OFFCURVE",
"287 422 OFFCURVE",
"287 376 CURVE SMOOTH",
"287 316 OFFCURVE",
"231 261 OFFCURVE",
"124 212 CURVE",
"124 117 LINE",
"230 117 LINE SMOOTH",
"270 117 OFFCURVE",
"311 122 OFFCURVE",
"323 127 CURVE",
"325 142 LINE",
"172 63 OFFCURVE",
"111 -29 OFFCURVE",
"111 -109 CURVE SMOOTH",
"111 -211 OFFCURVE",
"183 -250 OFFCURVE",
"281 -250 CURVE SMOOTH"
);
}
);
width = 458.63934;
}
);
unicode = 1059A;
script = vithkuqi;
category = Letter;
subCategory = Lowercase;
},
{
glyphname = "che-cit";
lastChange = "2021-11-03 06:54:48 +0000";
layers = (
{
layerId = UUID0;
paths = (
{
closed = 1;
nodes = (
"371 -10 OFFCURVE",
"424 6 OFFCURVE",
"467 36 CURVE SMOOTH",
"526 77 OFFCURVE",
"564 144 OFFCURVE",
"564 232 CURVE SMOOTH",
"564 351 OFFCURVE",
"513 398 OFFCURVE",
"435 398 CURVE SMOOTH",
"339 398 OFFCURVE",
"292 326 OFFCURVE",
"292 227 CURVE SMOOTH",
"292 137 OFFCURVE",
"333 71 OFFCURVE",
"394 32 CURVE SMOOTH",
"436 5 OFFCURVE",
"487 -9 OFFCURVE",
"541 -9 CURVE SMOOTH",
"689 -9 OFFCURVE",
"772 77 OFFCURVE",
"772 232 CURVE SMOOTH",
"772 363 OFFCURVE",
"720 428 OFFCURVE",
"537 536 CURVE SMOOTH",
"446 590 OFFCURVE",
"400 613 OFFCURVE",
"400 655 CURVE SMOOTH",
"400 681 OFFCURVE",
"419 700 OFFCURVE",
"455 700 CURVE SMOOTH",
"482 700 OFFCURVE",
"512 684 OFFCURVE",
"551 651 CURVE",
"598 716 LINE",
"567 743 OFFCURVE",
"526 770 OFFCURVE",
"458 770 CURVE SMOOTH",
"371 770 OFFCURVE",
"324 722 OFFCURVE",
"324 655 CURVE SMOOTH",
"324 573 OFFCURVE",
"398 533 OFFCURVE",
"501 475 CURVE SMOOTH",
"654 389 OFFCURVE",
"696 317 OFFCURVE",
"696 232 CURVE SMOOTH",
"696 121 OFFCURVE",
"653 63 OFFCURVE",
"544 63 CURVE SMOOTH",
"514 63 OFFCURVE",
"486 66 OFFCURVE",
"462 75 CURVE SMOOTH",
"413 94 OFFCURVE",
"380 137 OFFCURVE",
"380 231 CURVE SMOOTH",
"380 291 OFFCURVE",
"399 324 OFFCURVE",
"435 324 CURVE SMOOTH",
"470 324 OFFCURVE",
"488 288 OFFCURVE",
"488 231 CURVE SMOOTH",
"488 132 OFFCURVE",
"455 90 OFFCURVE",
"403 74 CURVE SMOOTH",
"379 66 OFFCURVE",
"351 64 OFFCURVE",
"321 64 CURVE SMOOTH",
"202 64 OFFCURVE",
"146 122 OFFCURVE",
"146 266 CURVE SMOOTH",
"146 410 OFFCURVE",
"179 476 OFFCURVE",
"308 485 CURVE",
"308 544 LINE",
"155 544 OFFCURVE",
"55 456 OFFCURVE",
"55 267 CURVE SMOOTH",
"55 75 OFFCURVE",
"151 -10 OFFCURVE",
"313 -10 CURVE SMOOTH"
);
}
);
width = 802;
},
{
layerId = "58AAA307-6DE9-4107-B80A-C255AE991657";
paths = (
{
closed = 1;
nodes = (
"387 -9 OFFCURVE",
"467 14 OFFCURVE",
"519 57 CURVE",
"598 103 OFFCURVE",
"645 173 OFFCURVE",
"643 265 CURVE SMOOTH",
"641 383 OFFCURVE",
"581 451 OFFCURVE",
"482 451 CURVE SMOOTH",
"366 451 OFFCURVE",
"293 385 OFFCURVE",
"293 262 CURVE SMOOTH",
"293 185 OFFCURVE",
"331 111 OFFCURVE",
"408 59 CURVE",
"449 18 OFFCURVE",
"520 -8 OFFCURVE",
"603 -8 CURVE SMOOTH",
"778 -8 OFFCURVE",
"862 101 OFFCURVE",
"862 256 CURVE SMOOTH",
"862 385 OFFCURVE",
"818 465 OFFCURVE",
"662 529 CURVE SMOOTH",
"537 580 OFFCURVE",
"498 595 OFFCURVE",
"498 624 CURVE SMOOTH",
"498 640 OFFCURVE",
"513 650 OFFCURVE",
"528 650 CURVE SMOOTH",
"554 650 OFFCURVE",
"568 636 OFFCURVE",
"579 624 CURVE",
"649 707 LINE",
"638 730 OFFCURVE",
"590 770 OFFCURVE",
"523 770 CURVE SMOOTH",
"434 770 OFFCURVE",
"374 712 OFFCURVE",
"374 629 CURVE SMOOTH",
"374 535 OFFCURVE",
"434 496 OFFCURVE",
"577 442 CURVE SMOOTH",
"685 401 OFFCURVE",
"736 350 OFFCURVE",
"737 256 CURVE SMOOTH",
"738 163 OFFCURVE",
"692 110 OFFCURVE",
"605 110 CURVE SMOOTH",
"576 110 OFFCURVE",
"547 117 OFFCURVE",
"522 91 CURVE",
"477 155 OFFCURVE",
"445 199 OFFCURVE",
"445 262 CURVE SMOOTH",
"445 302 OFFCURVE",
"458 328 OFFCURVE",
"482 328 CURVE SMOOTH",
"507 328 OFFCURVE",
"519 304 OFFCURVE",
"519 265 CURVE SMOOTH",
"519 195 OFFCURVE",
"489 149 OFFCURVE",
"433 87 CURVE",
"404 115 OFFCURVE",
"368 109 OFFCURVE",
"326 109 CURVE SMOOTH",
"239 109 OFFCURVE",
"197 164 OFFCURVE",
"197 274 CURVE SMOOTH",
"197 381 OFFCURVE",
"230 438 OFFCURVE",
"296 441 CURVE",
"296 558 LINE",
"155 558 OFFCURVE",
"45 458 OFFCURVE",
"45 274 CURVE SMOOTH",
"45 75 OFFCURVE",
"148 -10 OFFCURVE",
"312 -9 CURVE SMOOTH"
);
}
);
width = 887;
},
{
layerId = "75F4F5E0-D5B2-4549-A21B-477AF2945BCD";
paths = (
{
closed = 1;
nodes = (
"376 -10 OFFCURVE",
"438 9 OFFCURVE",
"484 43 CURVE SMOOTH",
"550 86 OFFCURVE",
"591 154 OFFCURVE",
"590 243 CURVE SMOOTH",
"589 361 OFFCURVE",
"535 415 OFFCURVE",
"450 415 CURVE SMOOTH",
"348 415 OFFCURVE",
"292 345 OFFCURVE",
"292 238 CURVE SMOOTH",
"292 153 OFFCURVE",
"332 84 OFFCURVE",
"399 41 CURVE SMOOTH",
"440 9 OFFCURVE",
"498 -9 OFFCURVE",
"561 -9 CURVE SMOOTH",
"718 -9 OFFCURVE",
"802 85 OFFCURVE",
"802 240 CURVE SMOOTH",
"802 370 OFFCURVE",
"752 440 OFFCURVE",
"578 534 CURVE SMOOTH",
"476 587 OFFCURVE",
"432 607 OFFCURVE",
"432 645 CURVE SMOOTH",
"432 668 OFFCURVE",
"450 684 OFFCURVE",
"479 684 CURVE SMOOTH",
"506 684 OFFCURVE",
"530 668 OFFCURVE",
"560 642 CURVE",
"615 713 LINE",
"590 739 OFFCURVE",
"547 770 OFFCURVE",
"479 770 CURVE SMOOTH",
"392 770 OFFCURVE",
"340 719 OFFCURVE",
"340 646 CURVE SMOOTH",
"340 561 OFFCURVE",
"410 521 OFFCURVE",
"526 464 CURVE SMOOTH",
"664 393 OFFCURVE",
"709 328 OFFCURVE",
"709 240 CURVE SMOOTH",
"710 135 OFFCURVE",
"666 78 OFFCURVE",
"564 78 CURVE SMOOTH",
"534 78 OFFCURVE",
"506 83 OFFCURVE",
"482 80 CURVE SMOOTH",
"434 114 OFFCURVE",
"401 157 OFFCURVE",
"401 241 CURVE SMOOTH",
"401 295 OFFCURVE",
"418 325 OFFCURVE",
"450 325 CURVE SMOOTH",
"482 325 OFFCURVE",
"498 293 OFFCURVE",
"498 242 CURVE SMOOTH",
"498 153 OFFCURVE",
"466 109 OFFCURVE",
"413 78 CURVE SMOOTH",
"387 82 OFFCURVE",
"357 79 OFFCURVE",
"323 79 CURVE SMOOTH",
"214 79 OFFCURVE",
"163 136 OFFCURVE",
"163 269 CURVE SMOOTH",
"163 400 OFFCURVE",
"196 464 OFFCURVE",
"304 471 CURVE",
"304 549 LINE",
"155 549 OFFCURVE",
"52 457 OFFCURVE",
"52 269 CURVE SMOOTH",
"52 75 OFFCURVE",
"150 -10 OFFCURVE",
"313 -10 CURVE SMOOTH"
);
}
);
width = 829.86885;
},
{
layerId = "3F80E263-2B21-4BD5-AA74-4B7BB1AD4533";
paths = (
{
closed = 1;
nodes = (
"381 -10 OFFCURVE",
"452 11 OFFCURVE",
"501 50 CURVE",
"573 94 OFFCURVE",
"617 163 OFFCURVE",
"616 254 CURVE SMOOTH",
"614 372 OFFCURVE",
"557 433 OFFCURVE",
"466 433 CURVE SMOOTH",
"357 433 OFFCURVE",
"292 365 OFFCURVE",
"292 250 CURVE SMOOTH",
"292 169 OFFCURVE",
"332 97 OFFCURVE",
"403 50 CURVE",
"444 13 OFFCURVE",
"509 -9 OFFCURVE",
"581 -9 CURVE SMOOTH",
"747 -9 OFFCURVE",
"831 93 OFFCURVE",
"831 248 CURVE SMOOTH",
"831 377 OFFCURVE",
"784 452 OFFCURVE",
"619 532 CURVE SMOOTH",
"506 584 OFFCURVE",
"464 601 OFFCURVE",
"464 635 CURVE SMOOTH",
"464 654 OFFCURVE",
"481 667 OFFCURVE",
"503 667 CURVE SMOOTH",
"529 667 OFFCURVE",
"549 652 OFFCURVE",
"569 633 CURVE",
"632 710 LINE",
"613 735 OFFCURVE",
"568 770 OFFCURVE",
"500 770 CURVE SMOOTH",
"412 770 OFFCURVE",
"357 716 OFFCURVE",
"357 638 CURVE SMOOTH",
"357 548 OFFCURVE",
"422 509 OFFCURVE",
"551 453 CURVE SMOOTH",
"674 397 OFFCURVE",
"722 339 OFFCURVE",
"723 248 CURVE SMOOTH",
"724 149 OFFCURVE",
"679 94 OFFCURVE",
"584 94 CURVE SMOOTH",
"554 94 OFFCURVE",
"526 100 OFFCURVE",
"502 85 CURVE",
"455 134 OFFCURVE",
"422 177 OFFCURVE",
"422 251 CURVE SMOOTH",
"422 298 OFFCURVE",
"438 326 OFFCURVE",
"466 326 CURVE SMOOTH",
"494 326 OFFCURVE",
"508 298 OFFCURVE",
"508 253 CURVE SMOOTH",
"508 173 OFFCURVE",
"477 129 OFFCURVE",
"423 82 CURVE",
"395 98 OFFCURVE",
"362 94 OFFCURVE",
"324 94 CURVE SMOOTH",
"226 94 OFFCURVE",
"180 150 OFFCURVE",
"180 271 CURVE SMOOTH",
"180 391 OFFCURVE",
"213 451 OFFCURVE",
"300 456 CURVE",
"300 553 LINE",
"155 553 OFFCURVE",
"49 457 OFFCURVE",
"49 271 CURVE SMOOTH",
"49 75 OFFCURVE",
"149 -10 OFFCURVE",
"313 -10 CURVE SMOOTH"
);
}
);
width = 857.7377;
}
);
leftKerningGroup = "ka-vit";
leftMetricsKey = "o-vit";
rightKerningGroup = "che-cit";
unicode = 1059B;
script = vithkuqi;
category = Letter;
subCategory = Lowercase;
},
{
glyphname = "de-vit";
lastChange = "2021-11-03 06:54:48 +0000";
layers = (
{
components = (
{
name = "dhe-vit";
transform = "{1, 0, 0, 1, 14, 0}";
}
);
layerId = UUID0;
paths = (
{
closed = 1;
nodes = (
"290 466 LINE",
"290 536 LINE",
"0 536 LINE",
"0 466 LINE"
);
}
);
width = 574;
},
{
components = (
{
name = "dhe-vit";
transform = "{1, 0, 0, 1, 47, 0}";
}
);
layerId = "58AAA307-6DE9-4107-B80A-C255AE991657";
paths = (
{
closed = 1;
nodes = (
"394 434 LINE",
"394 546 LINE",
"10 546 LINE",
"10 434 LINE"
);
}
);
width = 676;
},
{
components = (
{
alignment = -1;
name = "dhe-vit";
transform = "{1, 0, 0, 1, 25, 0}";
}
);
layerId = "75F4F5E0-D5B2-4549-A21B-477AF2945BCD";
paths = (
{
closed = 1;
nodes = (
"324 456 LINE",
"324 539 LINE",
"3 539 LINE",
"3 456 LINE"
);
}
);
width = 607.44262;
},
{
components = (
{
alignment = -1;
name = "dhe-vit";
transform = "{1, 0, 0, 1, 36, 0}";
}
);
layerId = "3F80E263-2B21-4BD5-AA74-4B7BB1AD4533";
paths = (
{
closed = 1;
nodes = (
"358 445 LINE",
"358 542 LINE",
"6 542 LINE",
"6 445 LINE"
);
}
);
width = 640.88525;
}
);
rightKerningGroup = "de-vit";
rightMetricsKey = "=dhe-vit";
unicode = 1059C;
script = vithkuqi;
category = Letter;
subCategory = Lowercase;
},
{
glyphname = "dhe-vit";
lastChange = "2021-11-03 06:54:48 +0000";
layers = (
{
layerId = UUID0;
paths = (
{
closed = 1;
nodes = (
"85 760 LINE",
"85 155 LINE SMOOTH",
"85 50 OFFCURVE",
"128 -10 OFFCURVE",
"259 -10 CURVE SMOOTH",
"325 -10 OFFCURVE",
"374 18 OFFCURVE",
"399 40 CURVE",
"403 40 LINE",
"424 17 OFFCURVE",
"474 -7 OFFCURVE",
"526 -7 CURVE SMOOTH",
"538 -7 OFFCURVE",
"549 -6 OFFCURVE",
"560 -3 CURVE",
"560 56 LINE",
"494 56 OFFCURVE",
"451 81 OFFCURVE",
"432 104 CURVE",
"449 174 OFFCURVE",
"459 257 OFFCURVE",
"459 298 CURVE SMOOTH",
"459 384 OFFCURVE",
"437 415 OFFCURVE",
"407 415 CURVE SMOOTH",
"377 415 OFFCURVE",
"353 384 OFFCURVE",
"353 298 CURVE SMOOTH",
"353 257 OFFCURVE",
"361 174 OFFCURVE",
"378 104 CURVE",
"352 79 OFFCURVE",
"321 64 OFFCURVE",
"274 64 CURVE SMOOTH",
"200 64 OFFCURVE",
"173 106 OFFCURVE",
"173 173 CURVE SMOOTH",
"173 760 LINE"
);
}
);
width = 560;
},
{
layerId = "58AAA307-6DE9-4107-B80A-C255AE991657";
paths = (
{
closed = 1;
nodes = (
"75 760 LINE",
"75 183 LINE SMOOTH",
"75 45 OFFCURVE",
"165 -10 OFFCURVE",
"287 -10 CURVE SMOOTH",
"352 -10 OFFCURVE",
"420 10 OFFCURVE",
"448 40 CURVE",
"457 40 LINE",
"488 11 OFFCURVE",
"531 -7 OFFCURVE",
"595 -7 CURVE SMOOTH",
"607 -7 OFFCURVE",
"618 -6 OFFCURVE",
"629 -3 CURVE",
"629 101 LINE",
"565 101 OFFCURVE",
"528 110 OFFCURVE",
"499 142 CURVE",
"541 205 OFFCURVE",
"548 266 OFFCURVE",
"548 307 CURVE SMOOTH",
"548 393 OFFCURVE",
"511 424 OFFCURVE",
"461 424 CURVE SMOOTH",
"413 424 OFFCURVE",
"372 393 OFFCURVE",
"372 307 CURVE SMOOTH",
"372 266 OFFCURVE",
"385 192 OFFCURVE",
"414 142 CURVE",
"400 124 OFFCURVE",
"371 110 OFFCURVE",
"332 110 CURVE SMOOTH",
"259 110 OFFCURVE",
"224 152 OFFCURVE",
"224 209 CURVE SMOOTH",
"224 760 LINE"
);
}
);
width = 629;
},
{
layerId = "75F4F5E0-D5B2-4549-A21B-477AF2945BCD";
paths = (
{
closed = 1;
nodes = (
"82 760 LINE",
"82 164 LINE SMOOTH",
"82 48 OFFCURVE",
"140 -10 OFFCURVE",
"268 -10 CURVE SMOOTH",
"334 -10 OFFCURVE",
"389 15 OFFCURVE",
"415 40 CURVE",
"421 40 LINE",
"445 15 OFFCURVE",
"493 -7 OFFCURVE",
"549 -7 CURVE SMOOTH",
"561 -7 OFFCURVE",
"572 -6 OFFCURVE",
"583 -3 CURVE",
"583 71 LINE",
"517 71 OFFCURVE",
"476 91 OFFCURVE",
"454 116 CURVE",
"479 184 OFFCURVE",
"488 260 OFFCURVE",
"488 301 CURVE SMOOTH",
"488 387 OFFCURVE",
"461 418 OFFCURVE",
"425 418 CURVE SMOOTH",
"389 418 OFFCURVE",
"359 387 OFFCURVE",
"359 301 CURVE SMOOTH",
"359 260 OFFCURVE",
"369 180 OFFCURVE",
"390 116 CURVE",
"368 94 OFFCURVE",
"337 79 OFFCURVE",
"293 79 CURVE SMOOTH",
"219 79 OFFCURVE",
"190 121 OFFCURVE",
"190 185 CURVE SMOOTH",
"190 760 LINE"
);
}
);
width = 582.62295;
},
{
layerId = "3F80E263-2B21-4BD5-AA74-4B7BB1AD4533";
paths = (
{
closed = 1;
nodes = (
"79 760 LINE",
"79 173 LINE SMOOTH",
"79 47 OFFCURVE",
"152 -10 OFFCURVE",
"277 -10 CURVE SMOOTH",
"343 -10 OFFCURVE",
"404 13 OFFCURVE",
"431 40 CURVE",
"439 40 LINE",
"466 13 OFFCURVE",
"512 -7 OFFCURVE",
"571 -7 CURVE SMOOTH",
"583 -7 OFFCURVE",
"594 -6 OFFCURVE",
"605 -3 CURVE",
"605 86 LINE",
"540 86 OFFCURVE",
"501 100 OFFCURVE",
"476 129 CURVE",
"509 194 OFFCURVE",
"517 263 OFFCURVE",
"517 304 CURVE SMOOTH",
"517 390 OFFCURVE",
"485 421 OFFCURVE",
"443 421 CURVE SMOOTH",
"401 421 OFFCURVE",
"365 390 OFFCURVE",
"365 304 CURVE SMOOTH",
"365 263 OFFCURVE",
"377 186 OFFCURVE",
"402 129 CURVE",
"384 109 OFFCURVE",
"354 94 OFFCURVE",
"312 94 CURVE SMOOTH",
"239 94 OFFCURVE",
"207 136 OFFCURVE",
"207 197 CURVE SMOOTH",
"207 760 LINE"
);
}
);
width = 605.2459;
}
);
rightKerningGroup = "de-vit";
unicode = 1059D;
script = vithkuqi;
category = Letter;
subCategory = Lowercase;
},
